<?xml version="1.0" encoding="UTF-8" standalone="no"?>
<!-- Created with Inkscape (http://www.inkscape.org/) -->

<svg
   width="30.799486mm"
   height="43.250858mm"
   viewBox="0 0 30.799486 43.250858"
   version="1.1"
   id="svg662"
   inkscape:version="1.1 (c68e22c387, 2021-05-23)"
   sodipodi:docname="dod.svg"
   xmlns:inkscape="http://www.inkscape.org/namespaces/inkscape"
   xmlns:sodipodi="http://sodipodi.sourceforge.net/DTD/sodipodi-0.dtd"
   xmlns="http://www.w3.org/2000/svg"
   xmlns:svg="http://www.w3.org/2000/svg">
  <sodipodi:namedview
     id="namedview664"
     pagecolor="#505050"
     bordercolor="#eeeeee"
     borderopacity="1"
     inkscape:pageshadow="0"
     inkscape:pageopacity="0"
     inkscape:pagecheckerboard="0"
     inkscape:document-units="mm"
     showgrid="false"
     inkscape:zoom="0.77771465"
     inkscape:cx="58.504749"
     inkscape:cy="81.649485"
     inkscape:window-width="1284"
     inkscape:window-height="1081"
     inkscape:window-x="1850"
     inkscape:window-y="180"
     inkscape:window-maximized="0"
     inkscape:current-layer="layer1" />
  <defs
     id="defs659">
    <clipPath
       clipPathUnits="userSpaceOnUse"
       id="clipPath81">
      <path
         d="M 0,841.89 H 595.276 V 0 H 0 Z"
         id="path79" />
    </clipPath>
  </defs>
  <g
     inkscape:label="Layer 1"
     inkscape:groupmode="layer"
     id="layer1"
     transform="translate(-89.553865,-126.87458)">
    <g
       id="g75"
       transform="matrix(0.35277777,0,0,-0.35277777,71.443392,317.6025)">
      <g
         id="g77"
         clip-path="url(#clipPath81)">
        <g
           id="g83"
           transform="translate(56.8146,476.8944)">
          <path
             d="m 0,0 c 0,14.423 -0.063,28.846 0.035,43.268 0.033,4.913 -0.557,9.308 -3.811,13.477 -3.24,4.15 -1.746,6.528 3.565,6.921 1.69,0.125 3.395,0.069 5.093,0.078 9.798,0.054 9.772,0.063 6.22,-8.742 -0.378,-0.938 -0.225,-2.089 -0.319,-3.142 1.272,0.12 2.68,-0.058 3.781,0.439 1.237,0.558 2.383,1.579 3.248,2.654 5.946,7.393 13.368,5.961 20.898,3.513 2.743,-0.892 4.32,-2.885 3.125,-5.891 -1.054,-2.651 -2.956,-4.119 -6.022,-2.923 -1.316,0.513 -2.605,1.177 -3.971,1.463 -4.96,1.037 -9.081,-2.135 -9.399,-7.113 -0.269,-4.201 2.413,-6.42 6.435,-5.08 1.851,0.617 3.536,1.758 5.26,2.724 3.399,1.906 6.26,1.225 7.591,-2.378 3.516,-9.523 5.215,-19.311 -0.141,-28.649 -1.69,-2.948 -4.997,-5.194 -8.003,-7.05 -1.133,-0.699 -4.179,0.047 -5.131,1.169 -0.945,1.114 -1.045,3.901 -0.293,5.296 1.587,2.942 4.186,5.32 5.973,8.177 1.974,3.156 -0.107,6.684 -3.682,5.933 -2.498,-0.524 -5.393,-2.18 -6.797,-4.229 -2.562,-3.738 -3.926,-8.216 -2.11,-12.867 1.228,-3.142 2.259,-6.494 4.147,-9.219 4.829,-6.966 9.896,-13.793 15.293,-20.326 1.618,-1.959 4.501,-3.457 7.04,-3.949 4.775,-0.924 6.798,0.896 7.405,5.748 0.28,2.23 0.134,4.517 0.135,6.779 0.014,18.382 0.014,36.764 0.024,55.145 0.002,2.546 -0.044,5.094 0.065,7.635 0.344,8.009 2.205,11.021 7.107,11.689 6.82,0.93 13.66,-2.855 15.568,-9.021 0.993,-3.21 1.499,-6.625 1.798,-9.985 0.571,-6.436 -0.298,-7.2 -7.003,-7.15 -6.357,0.048 -6.371,0.29 -4.093,6.631 0.899,2.503 1.112,5.35 1.074,8.032 -0.01,0.783 -1.881,1.835 -3.065,2.16 -0.46,0.126 -1.855,-1.337 -1.998,-2.212 -0.407,-2.489 -0.524,-5.048 -0.516,-7.579 0.092,-27.707 0.316,-55.415 0.277,-83.122 -0.007,-5.144 0.101,-9.651 6.236,-11.123 0.511,-0.123 1.132,-0.519 1.356,-0.963 0.596,-1.176 1.25,-2.431 1.332,-3.69 0.024,-0.372 -1.769,-1.218 -2.743,-1.241 -5.658,-0.133 -11.327,-0.224 -16.978,-10e-4 -1.406,0.056 -3.629,1.077 -3.921,2.098 -0.355,1.239 0.511,3.504 1.604,4.346 2.741,2.111 3.948,4.628 3.919,7.98 -0.043,4.904 -1.788,7.132 -5.914,7.869 -4.424,0.79 -5.149,-2.406 -6.167,-5.36 -0.368,-1.067 -0.548,-2.201 -0.937,-3.26 -3.235,-8.81 -11.897,-12.945 -19.609,-9.388 -8.395,3.873 -12.028,14.514 -7.102,22.199 1.535,2.394 4.407,4.509 7.11,5.377 1.795,0.577 4.876,-0.738 6.481,-2.196 2.145,-1.95 1.44,-4.73 -0.568,-6.795 -1.371,-1.411 -3.193,-2.427 -4.392,-3.95 -0.929,-1.179 -2.086,-3.539 -1.587,-4.193 1.007,-1.323 3.038,-2.486 4.703,-2.568 3.975,-0.196 6.007,2.913 7.462,5.993 4.186,8.86 0.68,16.367 -4.527,23.518 -3.485,4.785 -6.768,9.718 -10.31,14.459 -6.681,8.941 -6.865,18.833 -4.425,29.096 0.592,2.494 1.878,4.957 -0.652,6.984 -1.039,0.832 -2.608,1.831 -3.649,1.577 C 10.659,34.861 9.71,32.947 9.663,31.754 9.274,21.894 8.986,12.027 8.86,2.16 8.653,-13.955 8.593,-30.072 8.469,-46.187 c -0.01,-1.414 0.072,-2.838 -0.073,-4.239 -0.235,-2.269 -0.492,-4.742 -3.523,-4.903 -3.594,-0.192 -5.102,1.962 -5.107,5.284 -0.02,14.139 0.01,28.277 0.021,42.416 0.002,2.543 0,5.086 0,7.629 0.071,0 0.142,0 0.213,0"
             style="fill:#231f20;fill-opacity:1;fill-rule:nonzero;stroke:none"
             id="path85" />
        </g>
        <g
           id="g87"
           transform="translate(132.0011,445.6109)">
          <path
             d="m 0,0 c 4.429,0.165 6.425,-1.575 6.6,-5.752 0.187,-4.493 -2.641,-8.04 -6.618,-8.3 -4.322,-0.281 -7.107,2.672 -7.08,7.508 C -7.075,-2.418 -4.639,-0.173 0,0"
             style="fill:#231f20;fill-opacity:1;fill-rule:nonzero;stroke:none"
             id="path89" />
        </g>
        <g
           id="g91"
           transform="translate(124.4848,493.1401)">
          <path
             d="m 0,0 c -0.056,4.327 2.924,7.548 7.071,7.644 3.51,0.08 7.035,-3.468 6.928,-6.975 C 13.898,-2.662 10.274,-6.313 6.918,-6.465 2.677,-6.657 0.054,-4.206 0,0"
             style="fill:#231f20;fill-opacity:1;fill-rule:nonzero;stroke:none"
             id="path93" />
        </g>
        <g
           id="g95"
           transform="translate(132.3655,474.5051)">
          <path
             d="m 0,0 c 4.086,0.091 6.221,-1.997 6.276,-6.137 0.056,-4.215 -2.487,-7.185 -6.375,-7.447 -4.158,-0.279 -7.177,2.334 -7.338,6.35 C -7.612,-2.842 -4.801,-0.107 0,0"
             style="fill:#231f20;fill-opacity:1;fill-rule:nonzero;stroke:none"
             id="path97" />
        </g>
        <g
           id="g99"
           transform="translate(79.2102,458.4804)">
          <path
             d="m 0,0 c -0.023,-4.295 -1.614,-6.332 -5.012,-6.417 -3.598,-0.091 -5.705,2.014 -5.748,5.74 -0.047,4.174 2.895,7.81 6.225,7.692 C -1.71,6.914 0.023,4.235 0,0"
             style="fill:#231f20;fill-opacity:1;fill-rule:nonzero;stroke:none"
             id="path101" />
        </g>
        <g
           id="g103"
           transform="translate(104.8916,472.3099)">
          <path
             d="m 0,0 c -0.04,-3.423 -1.775,-5.011 -5.197,-4.931 -3.437,0.081 -5.539,2.197 -5.566,5.738 -0.024,3.101 3.376,6.366 6.489,6.232 C -1.684,6.928 0.157,3.895 0,0"
             style="fill:#231f20;fill-opacity:1;fill-rule:nonzero;stroke:none"
             id="path105" />
        </g>
      </g>
    </g>
  </g>
</svg>
