<?xml version="1.0" encoding="UTF-8" standalone="no"?>
<!-- Created with Inkscape (http://www.inkscape.org/) -->

<svg
   width="49.033253mm"
   height="37.412224mm"
   viewBox="0 0 49.033253 37.412224"
   version="1.1"
   id="svg642"
   inkscape:version="1.1 (c68e22c387, 2021-05-23)"
   sodipodi:docname="dyr.svg"
   xmlns:inkscape="http://www.inkscape.org/namespaces/inkscape"
   xmlns:sodipodi="http://sodipodi.sourceforge.net/DTD/sodipodi-0.dtd"
   xmlns="http://www.w3.org/2000/svg"
   xmlns:svg="http://www.w3.org/2000/svg">
  <sodipodi:namedview
     id="namedview644"
     pagecolor="#505050"
     bordercolor="#eeeeee"
     borderopacity="1"
     inkscape:pageshadow="0"
     inkscape:pageopacity="0"
     inkscape:pagecheckerboard="0"
     inkscape:document-units="mm"
     showgrid="false"
     inkscape:zoom="0.77771465"
     inkscape:cx="-304.09611"
     inkscape:cy="-251.37755"
     inkscape:window-width="3440"
     inkscape:window-height="1377"
     inkscape:window-x="-8"
     inkscape:window-y="-8"
     inkscape:window-maximized="1"
     inkscape:current-layer="layer1" />
  <defs
     id="defs639">
    <clipPath
       clipPathUnits="userSpaceOnUse"
       id="clipPath167">
      <path
         d="M 0,841.89 H 595.276 V 0 H 0 Z"
         id="path165" />
    </clipPath>
  </defs>
  <g
     inkscape:label="Layer 1"
     inkscape:groupmode="layer"
     id="layer1"
     transform="translate(-185.39059,-215.01554)">
    <g
       id="g161"
       transform="matrix(0.35277777,0,0,-0.35277777,42.108923,302.14904)">
      <g
         id="g163"
         clip-path="url(#clipPath167)">
        <g
           id="g169"
           transform="translate(442.9894,190.5864)">
          <path
             d="m 0,0 c -6.077,-0.531 -11.804,-0.827 -17.468,-1.588 -5.099,-0.685 -7.751,-4.158 -7.992,-9.351 -0.116,-2.507 0.038,-5.25 -0.956,-7.422 -0.779,-1.705 -3.374,-3.951 -4.729,-3.694 -1.773,0.338 -4.436,2.905 -4.432,4.507 0.024,8.731 0.676,17.466 1.337,26.182 0.072,0.958 1.47,2.363 2.452,2.555 1.03,0.202 3.006,-0.522 3.338,-1.338 1.303,-3.195 3.852,-2.919 6.343,-2.689 5.704,0.527 11.389,1.261 17.089,1.834 4.266,0.43 5.635,3.911 6.772,6.999 0.738,2.006 -0.677,4.069 -3.352,4.494 -3.553,0.564 -7.108,1.148 -10.63,1.876 -8.889,1.838 -16.014,6.379 -21.099,13.944 -3.121,4.645 -3.934,9.761 -3.319,15.242 0.346,3.075 2.119,4.576 4.96,4.728 2.778,0.149 5.6,0.058 8.363,-0.266 2.712,-0.318 3.313,-2.563 1.645,-5.111 -1.153,-1.759 -2.261,-3.554 -3.276,-5.395 -1.81,-3.284 -0.547,-6.105 2.126,-7.957 2.786,-1.932 5.899,-3.744 9.138,-4.598 4.743,-1.25 9.738,-1.524 14.599,-2.366 2.638,-0.457 3.629,0.614 3.865,3.088 0.404,4.23 0.219,8.03 -3.343,11.294 -1.269,1.163 -1.888,4.179 -1.341,5.884 0.803,2.499 3.424,2.873 6.101,2.305 1.081,-0.23 2.34,0.526 3.536,0.634 1.225,0.111 2.91,0.446 3.586,-0.18 0.653,-0.606 0.507,-2.35 0.305,-3.526 C 13.156,47.381 12.022,44.736 11.911,42.037 11.405,29.838 10.425,17.59 11.054,5.434 c 0.509,-9.833 2.734,-19.635 4.89,-29.297 0.801,-3.594 3.225,-7.007 5.506,-10.06 5.73,-7.666 17.774,-8.395 22.214,2.405 1.94,4.716 3.585,9.895 3.762,14.92 0.472,13.403 0.139,26.837 -0.005,40.258 -0.06,5.648 -0.243,11.313 -0.8,16.928 -0.208,2.098 -1.433,4.199 -2.559,6.082 -1.689,2.822 -1.394,5.74 1.724,6.352 3.453,0.678 7.297,0.278 10.758,-0.542 1.013,-0.239 1.865,-3.538 1.774,-5.386 -0.107,-2.165 -1.41,-4.25 -2.039,-6.415 -1.483,-5.106 0.762,-8.908 6.088,-8.611 6.868,0.384 13.835,1.386 20.446,3.234 6.02,1.683 7.405,8.182 4.068,13.705 -0.841,1.392 -1.44,3.763 -0.799,4.979 0.67,1.269 2.924,2.222 4.566,2.36 2.884,0.241 5.828,-0.313 8.751,-0.406 3.081,-0.099 3.161,-1.657 2.249,-3.987 -1.092,-2.79 -2.126,-5.607 -3.043,-8.458 C 95.244,33.049 87.106,27.84 77.336,24.822 72.666,23.38 67.647,23.059 62.789,22.215 c -1.435,-0.25 -2.975,-0.299 -4.268,-0.88 -2.731,-1.227 -4.038,-3.5 -3.428,-6.487 0.588,-2.881 2.18,-4.302 5.512,-4.451 11.33,-0.505 22.626,-1.437 33.928,0.579 3.639,0.649 5.298,-0.936 5.298,-4.604 0,-7.694 -0.069,-15.393 -0.388,-23.078 -0.07,-1.704 -1.292,-3.36 -2.125,-5.382 -3.902,1.58 -5.293,4.376 -5.643,7.804 -0.309,3.037 -0.323,6.103 -0.574,9.148 -0.248,3.006 -1.654,4.969 -4.971,5.145 -7.987,0.423 -15.969,0.96 -23.958,1.325 -3.587,0.163 -4.903,-1.497 -4.87,-5.305 0.101,-11.91 -3.006,-23.167 -8.694,-33.595 -5.213,-9.556 -15.119,-13.76 -25.416,-11.463 -4.415,0.985 -7.645,3.422 -10.311,7 C 5.442,-32.044 3.565,-20.16 1.09,-8.48 0.546,-5.911 0.406,-3.257 0,0"
             style="fill:#231f20;fill-opacity:1;fill-rule:nonzero;stroke:none"
             id="path171" />
        </g>
        <g
           id="g173"
           transform="translate(470.7673,229.7156)">
          <path
             d="M 0,0 C 4.237,0.049 6.592,-2.005 6.543,-5.704 6.494,-9.382 3.595,-12.739 0.378,-12.842 -3.155,-12.956 -6.197,-9.645 -6.141,-5.747 -6.089,-2.115 -3.877,-0.045 0,0"
             style="fill:#231f20;fill-opacity:1;fill-rule:nonzero;stroke:none"
             id="path175" />
        </g>
      </g>
    </g>
  </g>
</svg>
