<?xml version="1.0" encoding="UTF-8" standalone="no"?>
<!-- Created with Inkscape (http://www.inkscape.org/) -->

<svg
   width="39.641045mm"
   height="43.204784mm"
   viewBox="0 0 39.641045 43.204784"
   version="1.1"
   id="svg1393"
   inkscape:version="1.1 (c68e22c387, 2021-05-23)"
   sodipodi:docname="eladrin.svg"
   xmlns:inkscape="http://www.inkscape.org/namespaces/inkscape"
   xmlns:sodipodi="http://sodipodi.sourceforge.net/DTD/sodipodi-0.dtd"
   xmlns="http://www.w3.org/2000/svg"
   xmlns:svg="http://www.w3.org/2000/svg">
  <sodipodi:namedview
     id="namedview1395"
     pagecolor="#ffffff"
     bordercolor="#666666"
     borderopacity="1.0"
     inkscape:pageshadow="2"
     inkscape:pageopacity="0.0"
     inkscape:pagecheckerboard="0"
     inkscape:document-units="mm"
     showgrid="false"
     inkscape:zoom="0.77771465"
     inkscape:cx="75.220391"
     inkscape:cy="81.649485"
     inkscape:window-width="1284"
     inkscape:window-height="1081"
     inkscape:window-x="1917"
     inkscape:window-y="226"
     inkscape:window-maximized="0"
     inkscape:current-layer="layer1" />
  <defs
     id="defs1390">
    <clipPath
       clipPathUnits="userSpaceOnUse"
       id="clipPath1211">
      <path
         d="M 0,841.89 H 595.276 V 0 H 0 Z"
         id="path1209" />
    </clipPath>
  </defs>
  <g
     inkscape:label="Layer 1"
     inkscape:groupmode="layer"
     id="layer1"
     transform="translate(-85.133085,-126.89761)">
    <g
       id="g1205"
       transform="matrix(0.35277777,0,0,-0.35277777,-65.14754,409.02194)">
      <g
         id="g1207"
         clip-path="url(#clipPath1211)">
        <g
           id="g1213"
           transform="translate(529.4389,774.7145)">
          <path
             d="m 0,0 c -17.37,-0.711 -17.37,-0.711 -23.654,3.16 -8.661,-5.324 -12.978,-4.618 -20.858,3.093 -3.002,-1.972 -5.674,-4.704 -8.845,-5.538 -3.194,-0.839 -6.883,0.207 -10.948,0.465 0.691,-8.098 -2.684,-17.082 1.366,-25.566 4.195,-8.786 11.789,-10.695 20.064,-5.697 4.08,2.464 3.19,12.351 -1.711,15.441 -0.574,-1.281 -1.08,-2.538 -1.689,-3.742 -1.679,-3.319 -4.665,-4.383 -8.008,-2.902 -2.789,1.236 -3.531,4.053 -1.979,7.512 2.309,5.148 5.651,7.085 11.575,6.711 4.775,-0.301 9.151,-3.686 10.261,-8.884 1.434,-6.711 1.682,-13.293 -3.234,-19.22 -5.136,-6.192 -13.31,-8.847 -21.277,-6.158 -8.093,2.732 -13.626,10.044 -13.301,18.15 0.348,8.654 0.796,17.319 1.692,25.928 0.456,4.372 -0.259,8.288 -1.768,12.285 -1.986,5.259 -0.094,7.722 5.599,7.614 0.893,-0.017 1.79,-0.012 2.677,-0.101 3.569,-0.358 4.684,-2.082 3.554,-5.463 -0.282,-0.845 -0.713,-1.652 -0.909,-2.514 -0.869,-3.833 0.627,-7.197 3.443,-7.878 3.394,-0.82 7.02,1.757 7.816,5.627 0.385,1.872 0.476,3.815 0.98,5.649 0.766,2.782 6.148,4.655 9.802,3.406 3.284,-1.123 2.408,-3.673 1.861,-6.072 -1.219,-5.347 -0.185,-7.415 3.94,-8.728 2.584,-0.822 4.158,0.293 4.665,2.479 0.503,2.167 0.54,4.545 0.269,6.768 -0.603,4.951 0.488,6.257 5.571,5.967 0.764,-0.043 1.53,-0.08 2.29,-0.167 4.334,-0.498 5.323,-2.196 3.633,-6.145 -0.45,-1.05 -0.983,-2.107 -1.185,-3.215 -0.652,-3.574 1.533,-6.246 5.149,-6.46 8.225,-0.488 12.069,5.356 8.982,13.652 -1.504,4.04 -0.858,5.059 3.494,5.443 0.888,0.078 1.784,0.074 2.677,0.09 7.507,0.139 7.36,-0.356 6.558,-7.671 C 7.836,10.786 8.937,4.076 8.77,-2.545 8.54,-11.714 8.224,-20.908 7.292,-30.025 6.441,-38.348 2.013,-43.54 -6.614,-46.159 c -8.579,-2.604 -16.73,-6.865 -24.739,-11.033 -7.925,-4.124 -12.366,-18.845 -8.48,-26.783 0.701,-1.434 2.318,-2.968 3.808,-3.376 8.192,-2.245 16.551,-2.963 24.937,-1.178 1.402,0.298 3.112,1.378 3.765,2.59 3.274,6.085 3.513,12.531 0.607,18.759 -0.728,1.56 -3.246,3.284 -4.861,3.209 -2.849,-0.134 -6.064,-1.009 -8.323,-2.667 -2.072,-1.522 -0.433,-4.563 2.377,-4.964 4.391,-0.626 6.649,-2.773 6.417,-6.099 -0.211,-3.034 -2.881,-5.09 -6.881,-5.299 -4.712,-0.247 -9.2,2.264 -10.749,6.426 -1.554,4.177 -1.887,9.909 2.554,13.66 5.022,4.241 10.561,5.979 16.931,5.545 5.749,-0.391 9.432,-2.809 10.349,-8.428 1.096,-6.712 1.439,-13.626 1.3,-20.436 -0.098,-4.766 -3.774,-8.421 -8.537,-8.949 -9.346,-1.035 -18.741,-1.941 -28.133,-2.165 -7.453,-0.177 -15.427,8.246 -15.965,16.428 -0.537,8.171 0.587,16.336 5.818,22.852 2.649,3.301 6.826,5.708 10.759,7.576 9.303,4.418 18.824,8.392 28.362,12.288 3.339,1.364 5.088,3.933 5.178,6.953 C 0.191,-20.844 0,-10.422 0,0"
             style="fill:#231f20;fill-opacity:1;fill-rule:nonzero;stroke:none"
             id="path1215" />
        </g>
        <g
           id="g1217"
           transform="translate(456.1802,709.9575)">
          <path
             d="m 0,0 c -1.344,5.547 -3.766,7.424 -8.631,7.041 -6.488,-0.511 -11.34,-5.752 -12.097,-12.244 -1.443,-12.356 10.64,-19.742 20.765,-20.808 3.16,-0.333 6.382,-0.267 9.483,-0.866 1.292,-0.25 2.34,-1.763 3.5,-2.701 -1.101,-0.865 -2.139,-2.378 -3.313,-2.491 -8.351,-0.806 -16.716,-1.343 -24.862,1.589 -7.014,2.524 -14.549,13.336 -15.011,21.746 -0.422,7.692 5.315,16.767 12.775,20.318 13.009,6.194 18.63,1.782 24.42,-9.516 1.911,-3.727 0.378,-8.821 -3.053,-11.78 -2.76,-2.38 -6.57,-2.773 -9.582,-0.99 -2.403,1.422 -3.975,3.378 -3.157,6.29 0.848,3.017 2.906,4.725 6.207,4.57 C -1.811,0.123 -1.067,0.067 0,0"
             style="fill:#231f20;fill-opacity:1;fill-rule:nonzero;stroke:none"
             id="path1219" />
        </g>
        <g
           id="g1221"
           transform="translate(506.0176,754.2786)">
          <path
             d="M 0,0 C -0.021,3.26 1.75,5.291 4.668,5.349 7.995,5.416 10.537,3.191 10.604,0.153 10.668,-2.708 7.652,-5.765 4.718,-5.815 1.953,-5.863 0.023,-3.484 0,0"
             style="fill:#231f20;fill-opacity:1;fill-rule:nonzero;stroke:none"
             id="path1223" />
        </g>
      </g>
    </g>
  </g>
</svg>
