<?xml version="1.0" encoding="UTF-8" standalone="no"?>
<!-- Created with Inkscape (http://www.inkscape.org/) -->

<svg
   width="37.290222mm"
   height="50.099545mm"
   viewBox="0 0 37.290222 50.099545"
   version="1.1"
   id="svg1295"
   inkscape:version="1.1 (c68e22c387, 2021-05-23)"
   sodipodi:docname="fe.svg"
   xmlns:inkscape="http://www.inkscape.org/namespaces/inkscape"
   xmlns:sodipodi="http://sodipodi.sourceforge.net/DTD/sodipodi-0.dtd"
   xmlns="http://www.w3.org/2000/svg"
   xmlns:svg="http://www.w3.org/2000/svg">
  <sodipodi:namedview
     id="namedview1297"
     pagecolor="#ffffff"
     bordercolor="#666666"
     borderopacity="1.0"
     inkscape:pageshadow="2"
     inkscape:pageopacity="0.0"
     inkscape:pagecheckerboard="0"
     inkscape:document-units="mm"
     showgrid="false"
     inkscape:zoom="0.77771465"
     inkscape:cx="70.077117"
     inkscape:cy="94.507671"
     inkscape:window-width="1284"
     inkscape:window-height="1081"
     inkscape:window-x="2251"
     inkscape:window-y="212"
     inkscape:window-maximized="0"
     inkscape:current-layer="layer1" />
  <defs
     id="defs1292">
    <clipPath
       clipPathUnits="userSpaceOnUse"
       id="clipPath1125">
      <path
         d="M 0,841.89 H 595.276 V 0 H 0 Z"
         id="path1123" />
    </clipPath>
  </defs>
  <g
     inkscape:label="Layer 1"
     inkscape:groupmode="layer"
     id="layer1"
     transform="translate(-86.308498,-123.45023)">
    <g
       id="g1119"
       transform="matrix(0.35277777,0,0,-0.35277777,2.3289261,412.86876)">
      <g
         id="g1121"
         clip-path="url(#clipPath1125)">
        <g
           id="g1127"
           transform="translate(268.3535,770.4689)">
          <path
             d="m 0,0 c -0.576,-1.276 -1.099,-2.492 -1.669,-3.687 -1.855,-3.893 -4.952,-5.221 -8.492,-3.661 -3.324,1.466 -4.368,4.461 -2.818,8.44 1.611,4.135 4.812,6.477 9.112,7.048 C 1.479,8.85 6.147,7.438 9.226,2.668 13.731,-4.311 13.05,-14.914 7.735,-22.029 2.281,-29.33 -6.88,-32.094 -15.741,-29.11 c -9.016,3.036 -14.942,11.106 -14.541,20.199 0.202,4.565 0.3,9.248 1.406,13.637 3.57,14.169 13.281,22.744 27.093,26.172 9.797,2.432 18.559,-0.312 24.485,-9.415 5.607,6.168 11.886,9.825 20.414,10.299 11.96,0.666 23.865,-9.358 25.088,-20.505 0.975,-8.894 0.002,-16.873 -5.545,-24.025 -4.305,-5.552 -12.254,-7.261 -18.052,-3.969 -6.624,3.762 -10.457,12.649 -8.269,18.855 1.261,3.575 4.06,5.127 7.406,4.958 1.88,-0.095 4.352,-1.383 5.361,-2.914 1.783,-2.705 0.765,-5.63 -1.542,-7.922 -1.477,-1.467 -3.576,-2.831 -1.466,-5.149 2.05,-2.253 5.032,-3.597 7.42,-1.466 2.905,2.591 5.346,5.903 7.296,9.298 2.523,4.392 0.654,16.428 -2.497,19.471 -4.639,4.482 -12.944,4.912 -19.621,2.248 C 28.977,16.784 25.646,9.957 26.442,-0.025 c 0.58,-7.265 0.032,-14.612 0.377,-21.905 0.259,-5.452 2.25,-10.242 8.878,-11.348 5.943,-0.993 9.438,-5.168 10.536,-11.066 0.685,-3.678 0.944,-7.433 1.605,-11.116 0.374,-2.086 0.902,-4.232 1.842,-6.113 1.811,-3.624 0.38,-6.683 -3.722,-7.089 -2.354,-0.233 -4.743,-0.337 -7.104,-0.232 -3.887,0.173 -5.067,2.588 -2.924,5.927 0.819,1.274 2.33,2.202 2.854,3.548 1.052,2.703 3.018,6.138 2.15,8.285 -2.145,5.301 -9.246,9.54 -12.379,7.968 -1.541,-0.773 -2.774,-3.688 -2.807,-5.656 -0.172,-10.505 0.245,-21.02 0.073,-31.525 -0.046,-2.826 0.714,-4.547 3.321,-4.619 5.411,-0.149 11.628,-1.485 16.061,0.653 6.314,3.044 12.754,7.536 14.145,15.717 0.349,2.052 0.455,4.251 1.328,6.072 0.585,1.222 2.234,2.35 3.586,2.614 0.622,0.121 2.074,-1.799 2.463,-3.012 2.528,-7.864 1.837,-15.905 1.063,-23.947 -0.237,-2.462 -1.305,-3.91 -3.864,-4.003 -11.853,-0.433 -23.705,-0.967 -35.562,-1.204 -3.575,-0.071 -7.279,0.307 -10.694,1.279 -1.343,0.382 -2.897,2.941 -2.919,4.53 -0.125,8.755 0.19,17.517 0.364,26.276 0.049,2.502 0.155,5.003 0.194,7.505 0.053,3.396 -1.085,4.966 -5.022,4.462 -2.073,-0.264 -5.308,0.633 -6.37,2.15 -1.806,2.578 0.779,4.582 2.948,5.92 8.956,5.527 12.862,13.387 11.938,23.886 -0.438,4.97 -0.539,10.044 -0.067,15.002 0.751,7.875 -2.611,14.108 -7.247,19.798 -4.447,5.458 -13.795,6.315 -20.199,1.342 -10.393,-8.068 -15.229,-19.001 -13.966,-32.191 0.498,-5.204 6.205,-10.073 11.528,-10.641 6.214,-0.663 12.586,2.901 14.609,8.171 C 6.005,-7.952 5.019,-3.321 0,0"
             style="fill:#231f20;fill-opacity:1;fill-rule:nonzero;stroke:none"
             id="path1129" />
        </g>
        <g
           id="g1131"
           transform="translate(290.0334,820.3984)">
          <path
             d="m 0,0 c 3.319,-0.042 5.712,-2.272 5.677,-5.292 -0.044,-3.775 -3.037,-7.204 -6.163,-7.062 -3.071,0.141 -5.016,2.69 -4.917,6.446 C -5.302,-2.077 -3.364,0.042 0,0"
             style="fill:#231f20;fill-opacity:1;fill-rule:nonzero;stroke:none"
             id="path1133" />
        </g>
        <g
           id="g1135"
           transform="translate(343.7569,806.4286)">
          <path
             d="m 0,0 c -0.405,-4.232 -1.554,-6.639 -4.735,-6.859 -2.87,-0.199 -4.75,1.446 -5.031,4.435 -0.283,3.006 2.122,5.925 4.941,5.361 C -2.912,2.554 -1.272,0.817 0,0"
             style="fill:#231f20;fill-opacity:1;fill-rule:nonzero;stroke:none"
             id="path1137" />
        </g>
        <g
           id="g1139"
           transform="translate(244.6803,800.1923)">
          <path
             d="M 0,0 C -1.116,1.613 -3.21,3.312 -3.077,4.816 -2.938,6.383 -0.652,7.763 0.695,9.225 2.132,7.81 4.456,6.551 4.742,4.934 4.995,3.504 2.98,1.675 1.966,0.023 1.311,0.015 0.655,0.008 0,0"
             style="fill:#231f20;fill-opacity:1;fill-rule:nonzero;stroke:none"
             id="path1141" />
        </g>
      </g>
    </g>
  </g>
</svg>
