<?xml version="1.0" encoding="UTF-8" standalone="no"?>
<!-- Created with Inkscape (http://www.inkscape.org/) -->

<svg
   width="31.79726mm"
   height="49.046925mm"
   viewBox="0 0 31.79726 49.046925"
   version="1.1"
   id="svg1532"
   inkscape:version="1.1 (c68e22c387, 2021-05-23)"
   sodipodi:docname="ferd.svg"
   xmlns:inkscape="http://www.inkscape.org/namespaces/inkscape"
   xmlns:sodipodi="http://sodipodi.sourceforge.net/DTD/sodipodi-0.dtd"
   xmlns="http://www.w3.org/2000/svg"
   xmlns:svg="http://www.w3.org/2000/svg">
  <sodipodi:namedview
     id="namedview1534"
     pagecolor="#505050"
     bordercolor="#eeeeee"
     borderopacity="1"
     inkscape:pageshadow="0"
     inkscape:pageopacity="0"
     inkscape:pagecheckerboard="0"
     inkscape:document-units="mm"
     showgrid="false"
     inkscape:zoom="0.77771465"
     inkscape:cx="59.790567"
     inkscape:cy="93.221852"
     inkscape:window-width="1284"
     inkscape:window-height="1081"
     inkscape:window-x="1752"
     inkscape:window-y="166"
     inkscape:window-maximized="0"
     inkscape:current-layer="layer1" />
  <defs
     id="defs1529" />
  <g
     inkscape:label="Layer 1"
     inkscape:groupmode="layer"
     id="layer1"
     transform="translate(-89.054978,-123.97654)">
    <g
       id="g1644">
      <g
         id="g1309"
         transform="matrix(0.35277777,0,0,-0.35277777,101.48466,162.34183)">
        <path
           d="m 0,0 c 0,1.128 0.213,2.307 -0.04,3.375 -0.755,3.195 -1.691,6.347 -2.557,9.516 -3.659,-1.219 -7.69,-1.83 -10.897,-3.788 -5.921,-3.615 -7.473,-9.817 -4.434,-14.459 1.762,-2.691 13.562,-4.649 16.555,-2.568 0.755,0.525 1.192,1.842 1.322,2.853 C 0.163,-3.405 0.007,-1.693 0,0 m 16.637,25.528 c 0.047,-0.235 0.093,-0.471 0.14,-0.706 5.513,1.094 11.095,1.929 16.512,3.377 3.361,0.899 6.266,2.985 6.039,7.157 -0.292,5.347 -9.185,13.21 -14.779,13.207 C 7.969,48.557 5.963,46.208 7.666,29.825 c 0.347,-3.338 1.625,-4.496 4.725,-4.311 1.411,0.084 2.83,0.014 4.246,0.014 m -18.733,83.224 c 5.624,-0.378 11.311,-0.365 16.855,-1.25 5.037,-0.804 5.531,-2.542 2.678,-6.95 -1.212,-1.874 -2.582,-3.88 -4.376,-5.099 C 8.248,92.185 7.029,87.557 7.07,82.212 7.106,77.408 6.953,72.599 7.087,67.799 7.328,59.223 9.564,57.072 18.312,56.375 c 6.757,-0.539 13.54,-0.961 20.245,-1.902 5.84,-0.82 10.626,-3.724 13.66,-9.036 C 56.948,37.15 55.403,29.562 47.739,23.842 39.244,17.501 29.404,15.419 19.072,14.778 10.715,14.258 7.525,10.601 7.8,2.265 8.057,-5.533 10.795,-8.233 18.695,-8.426 c 2.263,-0.055 4.547,0.176 6.787,-0.057 8.424,-0.874 15.089,1.134 18.277,9.977 0.447,1.239 2.462,1.914 3.751,2.85 0.734,-1.456 2.056,-2.897 2.096,-4.372 0.153,-5.635 0.28,-11.323 -0.33,-16.91 -0.515,-4.723 -2.261,-5.148 -6.979,-4.838 -9.27,0.61 -18.571,0.753 -27.861,1.026 -2.871,0.084 -4.997,-0.934 -5.14,-4.252 -0.036,-0.847 0.152,-1.858 -0.242,-2.499 -0.669,-1.088 -1.587,-2.2 -2.679,-2.757 -0.386,-0.197 -2.104,1.059 -2.334,1.894 -1.922,6.974 -7.113,8.085 -13.244,7.696 -0.563,-0.036 -1.131,0.007 -1.697,-0.005 -16.741,-0.351 -15.071,1.154 -20.126,16.792 -1.666,5.151 -0.071,10.491 4.284,14.711 5.343,5.177 10.808,10.078 18.216,11.906 5.311,1.31 7.557,4.393 7.156,9.777 -0.23,3.093 -0.105,6.215 -0.083,9.323 0.021,3.18 -1.949,4.558 -4.689,5.032 -5.391,0.931 -10.509,-2.623 -12.079,-7.983 -0.58,-1.979 -1.713,-3.796 -2.593,-5.687 -1.53,1.872 -3.276,3.612 -4.514,5.66 -0.843,1.393 -1.198,3.191 -1.387,4.852 -0.867,7.637 2.672,12.329 10.115,13.521 1.67,0.267 3.387,0.234 5.068,0.448 6.512,0.83 8.386,2.691 8.517,9.167 0.143,7.062 0.25,14.148 -0.205,21.187 -0.221,3.413 -0.234,7.857 -5.11,8.599 -4.388,0.669 -6.599,-2.593 -8.513,-5.797 -3.174,-5.312 -2.684,-7.323 2.608,-11.269 2.423,-1.807 6.535,-3.322 4.566,-6.796 -0.942,-1.66 -5.377,-1.735 -8.252,-1.829 -6.078,-0.198 -10.384,3.958 -15.011,7.048 -1.208,0.807 -2.109,2.861 -2.191,4.394 -0.164,3.04 -0.28,6.326 0.675,9.142 4.382,12.927 9.988,16.745 23.845,16.917 2.828,0.036 5.657,0.006 8.486,0.006 0.007,0.101 0.014,0.202 0.021,0.304"
           style="fill:#231f20;fill-opacity:1;fill-rule:nonzero;stroke:none"
           id="path1311" />
      </g>
      <g
         id="g1313"
         transform="matrix(0.35277777,0,0,-0.35277777,115.89627,128.20529)">
        <path
           d="m 0,0 c 0.017,-5.071 -3.877,-8.671 -9.315,-8.611 -3.564,0.039 -7.143,3.838 -7.354,7.804 -0.236,4.443 4.361,8.91 9.262,9.001 C -2.723,8.28 -0.018,5.288 0,0"
           style="fill:#231f20;fill-opacity:1;fill-rule:nonzero;stroke:none"
           id="path1315" />
      </g>
      <g
         id="g1317"
         transform="matrix(0.35277777,0,0,-0.35277777,112.80794,161.57288)">
        <path
           d="m 0,0 c -0.115,-4.151 -3.5,-7.473 -7.517,-7.375 -4.343,0.106 -7.576,3.391 -7.32,7.437 0.312,4.92 4.933,10.132 8.672,9.78 C -3.007,9.546 0.126,4.545 0,0"
           style="fill:#231f20;fill-opacity:1;fill-rule:nonzero;stroke:none"
           id="path1319" />
      </g>
      <g
         id="g1321"
         transform="matrix(0.35277777,0,0,-0.35277777,114.31205,137.71364)">
        <path
           d="m 0,0 c -0.051,-4.098 -2.946,-6.896 -6.928,-6.697 -3.927,0.196 -7.047,3.967 -6.838,8.263 0.191,3.9 3.164,6.543 7.36,6.544 C -2.107,8.111 0.067,5.358 0,0"
           style="fill:#231f20;fill-opacity:1;fill-rule:nonzero;stroke:none"
           id="path1323" />
      </g>
    </g>
  </g>
</svg>
