<?xml version="1.0" encoding="UTF-8" standalone="no"?>
<!-- Created with Inkscape (http://www.inkscape.org/) -->

<svg
   width="26.577412mm"
   height="43.134781mm"
   viewBox="0 0 26.577412 43.134781"
   version="1.1"
   id="svg640"
   inkscape:version="1.1 (c68e22c387, 2021-05-23)"
   sodipodi:docname="fjel.svg"
   xmlns:inkscape="http://www.inkscape.org/namespaces/inkscape"
   xmlns:sodipodi="http://sodipodi.sourceforge.net/DTD/sodipodi-0.dtd"
   xmlns="http://www.w3.org/2000/svg"
   xmlns:svg="http://www.w3.org/2000/svg">
  <sodipodi:namedview
     id="namedview642"
     pagecolor="#505050"
     bordercolor="#eeeeee"
     borderopacity="1"
     inkscape:pageshadow="0"
     inkscape:pageopacity="0"
     inkscape:pagecheckerboard="0"
     inkscape:document-units="mm"
     showgrid="false"
     inkscape:zoom="0.77771465"
     inkscape:cx="50.789837"
     inkscape:cy="81.649485"
     inkscape:window-width="1284"
     inkscape:window-height="1081"
     inkscape:window-x="1872"
     inkscape:window-y="190"
     inkscape:window-maximized="0"
     inkscape:current-layer="layer1" />
  <defs
     id="defs637">
    <clipPath
       clipPathUnits="userSpaceOnUse"
       id="clipPath245">
      <path
         d="M 0,841.89 H 595.276 V 0 H 0 Z"
         id="path243" />
    </clipPath>
  </defs>
  <g
     inkscape:label="Layer 1"
     inkscape:groupmode="layer"
     id="layer1"
     transform="translate(-91.664903,-126.93261)">
    <g
       id="g239"
       transform="matrix(0.35277777,0,0,-0.35277777,11.365158,214.40586)">
      <g
         id="g241"
         clip-path="url(#clipPath245)">
        <g
           id="g247"
           transform="translate(286.174,168.0109)">
          <path
             d="m 0,0 c 0,4.524 0.264,9.068 -0.065,13.568 -0.445,6.105 -1.131,6.966 -7.246,8.316 -3.4,0.751 -3.841,2.567 -2.109,4.652 4.508,5.43 9.298,10.642 14.249,15.673 0.88,0.895 3.223,0.966 4.598,0.519 0.759,-0.246 1.585,-2.596 1.234,-3.597 C 5.355,23.992 8.73,8.265 7.431,-7.134 6.746,-15.259 7.041,-23.469 6.946,-31.641 c -0.086,-7.523 -0.537,-8.047 -8.223,-8.393 -6.788,-0.306 -13.582,-0.487 -20.369,-0.82 -7.058,-0.347 -14.109,-0.841 -21.167,-1.206 -2.822,-0.147 -5.696,-0.458 -8.471,-0.104 -6.047,0.772 -7.968,3.199 -7.052,9.19 1.372,8.979 3.6,17.615 9.122,25.251 7.624,10.54 14.792,21.412 22.017,32.233 1.173,1.757 1.631,3.991 2.42,6.004 -2.31,0.698 -4.581,1.645 -6.943,2.017 -1.919,0.302 -3.955,-0.006 -5.927,-0.181 -6.402,-0.568 -8.299,-2.435 -9.447,-8.653 -0.45,-2.441 -1.186,-4.872 -2.16,-7.151 -0.316,-0.741 -1.892,-1.468 -2.729,-1.314 -0.827,0.152 -2.057,1.418 -2.065,2.206 -0.079,7.622 -0.04,15.251 0.308,22.862 0.033,0.727 2.765,2.238 3.602,1.882 10.156,-4.324 20.71,-1.597 31.054,-1.812 2.393,-0.049 5.282,1.79 7.166,3.578 4.506,4.274 8.643,8.953 12.754,13.621 4.438,5.041 2.873,10.238 -3.69,12.078 -5.624,1.577 -10.678,0.391 -14.614,-4.194 -2.023,-2.358 -3.876,-4.864 -5.944,-7.179 -1.934,-2.166 -3.739,-2.073 -5.441,0.502 -1.546,2.342 -3.166,4.696 -5.11,6.7 -2.678,2.763 -5.495,2.23 -8.104,-0.405 -2.631,-2.658 -2.011,-4.957 0.6,-7.164 2.107,-1.781 5.609,-3.617 3.747,-6.573 -1.021,-1.621 -4.873,-1.481 -7.46,-2.084 -0.539,-0.125 -1.129,-0.031 -1.695,-0.032 -12.704,-0.027 -13.707,1.473 -9.136,13.656 4.156,11.073 12.654,15.322 23.603,10.756 4.699,-1.959 7.816,-1.305 11.535,1.513 10.662,8.081 23.676,4.642 31.678,-0.667 7.511,-4.984 8.668,-18.938 -0.707,-24.227 -15.89,-8.964 -26.142,-23.907 -36.085,-38.692 -5.351,-7.958 -9.993,-16.441 -14.341,-24.998 -1.979,-3.897 -2.815,-8.492 -3.524,-12.874 -0.538,-3.325 1.644,-5.348 5.052,-5.378 7.926,-0.071 15.894,-0.46 23.771,0.18 7.19,0.584 12.058,5.213 13.559,12.197 1.352,6.291 1.597,12.819 2.33,19.243 C 0.573,-0.049 0.287,-0.025 0,0"
             style="fill:#231f20;fill-opacity:1;fill-rule:nonzero;stroke:none"
             id="path249" />
        </g>
        <g
           id="g251"
           transform="translate(269.909,153.4335)">
          <path
             d="m 0,0 c -0.046,-5.38 -3.121,-8.532 -8.094,-8.297 -3.585,0.169 -6.523,3.848 -6.685,8.369 -0.156,4.349 4.15,8.347 8.778,8.149 C -1.712,8.037 0.048,5.626 0,0"
             style="fill:#231f20;fill-opacity:1;fill-rule:nonzero;stroke:none"
             id="path253" />
        </g>
      </g>
    </g>
  </g>
</svg>
