<?xml version="1.0" encoding="UTF-8" standalone="no"?>
<!-- Created with Inkscape (http://www.inkscape.org/) -->

<svg
   width="38.449234mm"
   height="50.12532mm"
   viewBox="0 0 38.449234 50.12532"
   version="1.1"
   id="svg1422"
   inkscape:version="1.1 (c68e22c387, 2021-05-23)"
   sodipodi:docname="flok.svg"
   xmlns:inkscape="http://www.inkscape.org/namespaces/inkscape"
   xmlns:sodipodi="http://sodipodi.sourceforge.net/DTD/sodipodi-0.dtd"
   xmlns="http://www.w3.org/2000/svg"
   xmlns:svg="http://www.w3.org/2000/svg">
  <sodipodi:namedview
     id="namedview1424"
     pagecolor="#505050"
     bordercolor="#eeeeee"
     borderopacity="1"
     inkscape:pageshadow="0"
     inkscape:pageopacity="0"
     inkscape:pagecheckerboard="0"
     inkscape:document-units="mm"
     showgrid="false"
     inkscape:zoom="0.77771465"
     inkscape:cx="130.51059"
     inkscape:cy="194.80153"
     inkscape:window-width="1284"
     inkscape:window-height="1081"
     inkscape:window-x="1952"
     inkscape:window-y="206"
     inkscape:window-maximized="0"
     inkscape:current-layer="layer1" />
  <defs
     id="defs1419">
    <clipPath
       clipPathUnits="userSpaceOnUse"
       id="clipPath1371">
      <path
         d="M 0,841.89 H 595.276 V 0 H 0 Z"
         id="path1369" />
    </clipPath>
  </defs>
  <g
     inkscape:label="Layer 1"
     inkscape:groupmode="layer"
     id="layer1"
     transform="translate(-70.589815,-97.071363)">
    <g
       id="g1365"
       transform="matrix(0.35277777,0,0,-0.35277777,55.486269,378.02118)">
      <g
         id="g1367"
         clip-path="url(#clipPath1371)">
        <g
           id="g1373"
           transform="translate(78.0603,788.5498)">
          <path
             d="m 0,0 c 5.727,3.446 11.382,3.178 17.022,1.871 2.754,-0.639 3.281,-2.902 2.063,-5.279 -0.75,-1.463 -2.276,-2.566 -2.884,-4.06 -1.277,-3.136 -2.962,-6.399 -3.068,-9.656 -0.204,-6.277 2.328,-8.587 7.687,-8.479 5.806,0.117 10.217,4.093 10.14,9.451 -0.033,2.332 -0.565,4.684 -1.092,6.976 -0.56,2.431 -1.217,4.866 -2.132,7.182 -1.383,3.501 0.22,4.602 3.386,4.625 3.069,0.022 6.158,0.168 9.205,-0.104 5.722,-0.51 6.72,-2.391 3.604,-7.206 -2.79,-4.311 -2.599,-8.381 0.101,-12.452 2.176,-3.28 5.291,-5.156 9.293,-4.085 3.983,1.066 5.008,4.648 4.487,7.989 -0.736,4.72 -2.088,9.42 -3.794,13.896 -1.992,5.229 -1.596,6.52 3.997,6.947 3.744,0.286 7.557,0.331 11.288,-0.032 4.442,-0.433 5.558,-2.737 3.316,-6.552 -4.719,-8.034 -5.273,-16.45 -3.166,-25.348 0.431,-1.823 -0.386,-3.983 -0.801,-5.952 -0.621,-2.943 -2.251,-5.945 -1.947,-8.761 0.971,-9.023 -6.337,-13.959 -13.224,-14.736 -10.772,-1.217 -21.61,-1.863 -32.42,-2.744 -7.904,-0.644 -15.809,-1.275 -23.044,-1.858 -2.696,-4.097 -5.236,-7.955 -7.881,-11.974 6.672,-9.658 6.315,-16.909 -1.297,-23.916 1.815,-7.526 3.804,-14.877 5.327,-22.322 1.88,-9.189 -4.334,-16.536 -13.744,-16.807 -2.492,-0.072 -4.979,-0.449 -7.457,-0.772 -4.287,-0.558 -7.653,1.617 -8.05,5.898 -0.755,8.159 1.426,12.334 10.555,9.686 1.693,-0.491 3.613,-0.613 5.369,-0.405 4.293,0.507 6.397,3.994 5.303,8.117 -0.813,3.062 -1.132,6.284 -2.218,9.235 -0.647,1.759 -2.091,3.916 -3.661,4.432 -1.249,0.41 -3.782,-0.989 -4.766,-2.309 -1.621,-2.176 -3.586,-3.827 -5.861,-2.657 -1.922,0.988 -3.459,3.295 -4.423,5.362 -0.695,1.49 -0.392,3.577 -0.134,5.339 0.415,2.833 2.104,4.008 5.087,3.332 2.138,-0.484 4.352,-0.84 6.538,-0.875 6.071,-0.096 9.586,4.976 7.595,10.753 -1.165,3.38 -3.685,4.412 -6.864,2.82 -1.241,-0.621 -2.434,-1.439 -3.75,-1.789 -3.59,-0.953 -5.644,0.427 -6.301,4.041 -0.224,1.23 -0.675,2.538 -0.452,3.703 0.372,1.942 0.674,4.557 1.994,5.469 1.249,0.862 3.797,0.042 5.724,-0.308 1.729,-0.315 3.417,-1.502 5.078,-1.417 4.067,0.207 7.708,3.731 7.417,6.634 -0.209,2.093 -5.738,4.584 -9.252,3.957 -2.187,-0.389 -4.305,-1.672 -6.447,-1.657 -2.13,0.016 -5.617,0.65 -6.086,1.909 -0.903,2.422 -0.782,5.77 0.252,8.161 0.65,1.506 3.668,2.505 5.737,2.739 1.77,0.2 3.771,-0.851 5.549,-1.625 12.854,-5.596 26.206,-5.558 39.822,-4.023 6.778,0.764 13.684,0.353 20.483,0.988 4.232,0.395 8.549,1.287 12.512,2.785 6.032,2.28 6.57,9.994 1.272,13.904 -0.781,0.576 -1.664,1.037 -2.374,1.687 -5.038,4.606 -9.501,5.217 -14.33,0.581 -6.389,-6.135 -12.924,-6.33 -20.18,-2.323 -3.25,1.795 -6.296,1.951 -9.332,-0.449 -3.826,-3.024 -7.662,-2.773 -11.51,0.072 -1.337,0.989 -2.751,1.953 -4.27,2.603 -4.514,1.93 -6.471,5.244 -6.578,10.114 -0.133,6.066 -1.577,11.775 -5.484,16.736 -2.01,2.553 -1.127,4.391 2.09,4.96 1.495,0.264 3.064,0.255 4.59,0.181 8.125,-0.394 9.577,-1.963 9.621,-10.121 0.019,-3.475 -0.008,-6.957 0.2,-10.422 0.295,-4.905 2.433,-7.232 6.323,-7.218 4.246,0.015 7.425,2.808 7.903,7.096 0.522,4.67 -1.025,8.715 -3.841,12.419 C 2.427,-4.217 1.347,-2.158 0,0"
             style="fill:#231f20;fill-opacity:1;fill-rule:nonzero;stroke:none"
             id="path1375" />
        </g>
        <g
           id="g1377"
           transform="translate(124.7132,688.0632)">
          <path
             d="m 0,0 c 0.539,6.709 1.309,14.482 1.753,22.275 0.566,9.941 7.684,15.464 16.878,14.92 2.112,-0.124 5.572,-2.009 5.846,-3.539 0.585,-3.269 -0.189,-6.931 -1.167,-10.207 -0.21,-0.702 -4.038,-1.218 -5.517,-0.474 -3.098,1.558 -5.624,1.04 -7.483,-1.254 -1.005,-1.24 -1.617,-4.189 -0.856,-5.155 1.456,-1.847 3.959,-2.945 6.159,-4.105 0.765,-0.403 2.172,0.304 2.85,-0.147 2.078,-1.382 5.036,-2.762 5.614,-4.736 C 24.783,5.167 23.948,1.878 22.7,-0.46 22.193,-1.411 18.542,-1.582 16.844,-0.87 9.106,2.375 8.521,2.2 7.147,-5.933 c -1.051,-6.224 1.76,-10.161 7.941,-11.122 6.078,-0.945 9.385,-6.052 7.259,-11.842 -0.464,-1.262 -2.605,-2.647 -4.015,-2.693 -4.139,-0.134 -8.297,0.415 -12.452,0.628 -6.491,0.334 -8.381,2.987 -6.843,9.707 1.069,4.668 -0.445,9.027 -3.819,11.48 -2.115,1.538 -3.668,1.259 -5.877,-0.277 -6.719,-4.672 -7.723,-7.789 -4.867,-15.025 0.818,-2.071 0.876,-4.99 0.002,-6.954 -0.478,-1.073 -4.304,-1.941 -5.44,-1.172 -2.043,1.382 -3.778,3.87 -4.594,6.251 -1.405,4.097 -1.579,8.632 -3.145,12.644 -0.674,1.725 -3.711,3.799 -5.359,3.561 -2.021,-0.293 -4.479,-2.512 -5.345,-4.503 -1.033,-2.375 -0.682,-5.388 -0.731,-8.129 -0.03,-1.648 0.444,-3.3 0.474,-4.955 0.053,-2.956 -1.479,-4.867 -4.454,-4.984 -3.02,-0.118 -4.992,1.529 -5.553,4.579 -0.123,0.671 -0.105,1.394 -0.009,2.074 0.788,5.58 1.492,11.177 2.452,16.729 1.006,5.814 7.538,9.695 14.218,6.784 7.116,-3.101 12.557,-1.95 18.995,1.406 C -10.419,0.128 -5.467,-0.576 0,0"
             style="fill:#231f20;fill-opacity:1;fill-rule:nonzero;stroke:none"
             id="path1379" />
        </g>
        <g
           id="g1381"
           transform="translate(102.9426,713.4482)">
          <path
             d="M 0,0 C 0.157,6.141 3.357,10.217 8.06,10.265 11.756,10.303 15.706,6.429 15.598,2.873 15.448,-2.064 10.6,-6.72 5.801,-6.539 1.929,-6.392 -0.105,-4.1 0,0"
             style="fill:#231f20;fill-opacity:1;fill-rule:nonzero;stroke:none"
             id="path1383" />
        </g>
        <g
           id="g1385"
           transform="translate(83.6035,716.7912)">
          <path
             d="M 0,0 C 0.241,3.093 1.427,5.366 4.968,5.427 8.21,5.483 10.852,2.783 10.684,-0.326 10.502,-3.718 7.627,-7.199 5.089,-7.101 2.386,-6.996 -0.078,-3.557 0,0"
             style="fill:#231f20;fill-opacity:1;fill-rule:nonzero;stroke:none"
             id="path1387" />
        </g>
        <g
           id="g1389"
           transform="translate(98.9617,703.3691)">
          <path
             d="m 0,0 c 2.953,-0.2 4.632,-1.599 4.573,-4.724 -0.076,-3.951 -2.545,-7.062 -5.689,-6.907 -3.419,0.169 -4.938,2.25 -4.925,5.487 C -6.028,-2.692 -3.29,0.02 0,0"
             style="fill:#231f20;fill-opacity:1;fill-rule:nonzero;stroke:none"
             id="path1391" />
        </g>
      </g>
    </g>
  </g>
</svg>
