<?xml version="1.0" encoding="UTF-8" standalone="no"?>
<!-- Created with Inkscape (http://www.inkscape.org/) -->

<svg
   width="35.82193mm"
   height="41.297482mm"
   viewBox="0 0 35.82193 41.297482"
   version="1.1"
   id="svg508"
   inkscape:version="1.1 (c68e22c387, 2021-05-23)"
   sodipodi:docname="fomorian i.svg"
   xmlns:inkscape="http://www.inkscape.org/namespaces/inkscape"
   xmlns:sodipodi="http://sodipodi.sourceforge.net/DTD/sodipodi-0.dtd"
   xmlns="http://www.w3.org/2000/svg"
   xmlns:svg="http://www.w3.org/2000/svg">
  <sodipodi:namedview
     id="namedview510"
     pagecolor="#505050"
     bordercolor="#eeeeee"
     borderopacity="1"
     inkscape:pageshadow="0"
     inkscape:pageopacity="0"
     inkscape:pagecheckerboard="0"
     inkscape:document-units="mm"
     showgrid="false"
     inkscape:zoom="0.77771465"
     inkscape:cx="67.505479"
     inkscape:cy="77.792029"
     inkscape:window-width="1284"
     inkscape:window-height="1081"
     inkscape:window-x="1718"
     inkscape:window-y="210"
     inkscape:window-maximized="0"
     inkscape:current-layer="layer1" />
  <defs
     id="defs505">
    <clipPath
       clipPathUnits="userSpaceOnUse"
       id="clipPath31">
      <path
         d="M 0,841.89 H 595.276 V 0 H 0 Z"
         id="path29" />
    </clipPath>
  </defs>
  <g
     inkscape:label="Layer 1"
     inkscape:groupmode="layer"
     id="layer1"
     transform="translate(-87.042644,-127.85126)">
    <g
       id="g25"
       transform="matrix(0.35277777,0,0,-0.35277777,61.096746,217.61417)">
      <g
         id="g27"
         clip-path="url(#clipPath31)">
        <g
           id="g33"
           transform="translate(172.5049,137.4719)">
          <path
             d="m 0,0 c -10.742,0 -21.113,-0.062 -31.482,0.025 -5.561,0.046 -5.975,1.57 -5.889,6.398 0.346,19.483 0.475,38.988 -0.151,58.459 -0.229,7.13 -2.513,14.254 -4.353,21.253 -1.272,4.837 -7.454,6.946 -11.486,4.426 -7.595,-4.746 -10.49,-11.063 -8.57,-19.905 1.706,-7.86 4.492,-14.975 11.685,-20.072 3.21,-2.275 5.524,-6.629 6.883,-10.512 3.888,-11.109 5.54,-22.243 -3.66,-32.055 -3.649,-3.893 -7.868,-6.465 -13.252,-7.093 -8.827,-1.03 -17.812,-2.661 -25.618,3.268 -13.16,9.996 -20.899,32.053 -0.757,46.082 4.705,3.277 10.131,4.382 15.441,1.268 7.589,-4.45 9.996,-12.89 6.365,-20.681 -0.479,-1.027 0.088,-2.493 -0.223,-3.652 -0.372,-1.385 -0.829,-3.374 -1.842,-3.848 -3.078,-1.438 -6.408,-2.05 -9.839,-0.643 -3.306,1.356 -3.993,4.554 -1.274,6.831 0.65,0.545 1.468,0.955 2.276,1.243 5.718,2.041 7.063,4.576 5.64,10.77 -0.997,4.34 -5.248,7.529 -9.792,6.915 -4.097,-0.554 -7.161,-2.969 -8.334,-6.928 -2.548,-8.6 -0.65,-16.902 4.331,-23.852 3.996,-5.576 9.347,-10.38 16.629,-12.095 7.297,-1.718 14.092,2.35 15.7,9.608 3.429,15.482 -0.828,28.816 -11.475,40.318 -6.065,6.552 -8.657,14.395 -8.502,23.127 0.155,8.674 4.893,15.035 12.636,17.613 8.26,2.751 15.76,0.573 21.632,-6.5 2.694,5.02 6.975,7.427 12.469,8.447 6.697,1.243 12.257,-0.808 17.463,-4.637 0.439,-0.323 0.797,-0.779 1.269,-1.031 C 3.695,87.349 3.041,78.447 2.059,69.53 1.74,66.636 0.842,63.802 0.174,60.948 -0.442,58.32 -3.45,56.356 -6.687,56.421 c -3.336,0.066 -6.141,1.977 -6.82,4.644 -0.762,2.991 0.42,5.218 3.672,6.807 0.78,0.381 1.618,0.664 2.452,0.916 5.8,1.755 7.444,4.616 4.637,10.156 -2.03,4.009 -5.148,7.518 -8.084,10.997 -0.828,0.981 -2.743,1.534 -4.13,1.484 -7.115,-0.254 -12.797,-3.395 -16.704,-9.325 -0.751,-1.141 -0.78,-2.92 -0.729,-4.391 0.605,-17.51 1.228,-35.019 1.993,-52.523 0.209,-4.763 0.824,-9.516 1.414,-14.254 0.378,-3.028 2.195,-4.595 5.387,-4.49 3.28,0.108 6.567,0.035 9.845,0.17 4.399,0.181 6.69,2.221 7.839,6.461 0.356,1.311 0.978,2.704 1.889,3.679 1.744,1.868 4.135,1.11 4.48,-1.444 C 1.135,10.271 1.649,5.198 0,0"
             style="fill:#231f20;fill-opacity:1;fill-rule:nonzero;stroke:none"
             id="path35" />
        </g>
        <g
           id="g37"
           transform="translate(129.3702,249.1674)">
          <path
             d="M 0,0 C 0.021,3.216 2.293,5.321 5.696,5.278 9.047,5.235 11.439,3.133 11.358,0.301 11.261,-3.103 8.069,-6.476 5.03,-6.388 2.001,-6.301 -0.025,-3.728 0,0"
             style="fill:#231f20;fill-opacity:1;fill-rule:nonzero;stroke:none"
             id="path39" />
        </g>
      </g>
    </g>
  </g>
</svg>
