<?xml version="1.0" encoding="UTF-8" standalone="no"?>
<!-- Created with Inkscape (http://www.inkscape.org/) -->

<svg
   width="28.704952mm"
   height="38.454826mm"
   viewBox="0 0 28.704952 38.454826"
   version="1.1"
   id="svg348"
   inkscape:version="1.1 (c68e22c387, 2021-05-23)"
   sodipodi:docname="fugleperson.svg"
   xmlns:inkscape="http://www.inkscape.org/namespaces/inkscape"
   xmlns:sodipodi="http://sodipodi.sourceforge.net/DTD/sodipodi-0.dtd"
   xmlns="http://www.w3.org/2000/svg"
   xmlns:svg="http://www.w3.org/2000/svg">
  <sodipodi:namedview
     id="namedview350"
     pagecolor="#505050"
     bordercolor="#eeeeee"
     borderopacity="1"
     inkscape:pageshadow="0"
     inkscape:pageopacity="0"
     inkscape:pagecheckerboard="0"
     inkscape:document-units="mm"
     showgrid="false"
     inkscape:zoom="0.77771465"
     inkscape:cx="54.647293"
     inkscape:cy="72.648754"
     inkscape:window-width="1284"
     inkscape:window-height="1081"
     inkscape:window-x="1666"
     inkscape:window-y="126"
     inkscape:window-maximized="0"
     inkscape:current-layer="layer1" />
  <defs
     id="defs345">
    <clipPath
       clipPathUnits="userSpaceOnUse"
       id="clipPath83">
      <path
         d="M 0,841.89 H 595.276 V 0 H 0 Z"
         id="path81" />
    </clipPath>
  </defs>
  <g
     inkscape:label="Layer 1"
     inkscape:groupmode="layer"
     id="layer1"
     transform="translate(-90.601132,-129.27259)">
    <g
       id="g77"
       transform="matrix(0.35277777,0,0,-0.35277777,8.8516224,405.74341)">
      <g
         id="g79"
         clip-path="url(#clipPath83)">
        <g
           id="g85"
           transform="translate(248.4708,682.7579)">
          <path
             d="m 0,0 c -0.781,-1.564 -1.266,-2.7 -1.889,-3.754 -2.557,-4.326 -8.399,-5.633 -12.53,-2.84 -2.841,1.921 -3.138,5.208 -0.535,7.706 1.675,1.608 3.553,3.009 5.376,4.456 1.991,1.579 2.436,3.215 1.217,5.692 -6.247,12.695 -3.846,24.822 2.973,36.445 2.213,3.773 5.018,7.195 7.477,10.829 1.304,1.927 2.556,3.907 3.64,5.964 3.858,7.325 2.841,10.548 -4.714,13.859 -6.307,2.764 -9.786,7.719 -11.655,14.037 -1.104,3.734 1.044,6.244 4.877,5.977 5.061,-0.353 7.637,-3.681 7.123,-8.796 -0.149,-1.491 0.105,-3.33 0.917,-4.485 0.413,-0.588 2.647,-0.391 3.749,0.121 1.82,0.844 3.012,2.545 2.55,4.7 -0.369,1.719 -1.157,3.347 -1.761,5.015 -1.042,2.875 -0.359,4.628 2.581,5.195 2.517,0.486 5.165,0.463 7.746,0.383 2.508,-0.077 3.372,-1.796 2.688,-4.004 -0.766,-2.471 -1.636,-4.984 -2.933,-7.201 -2.864,-4.893 -3.65,-9.735 -1.842,-15.3 C 15.883,71.447 15.683,68.18 14.89,65.558 13.311,60.336 11.373,55.146 8.902,50.292 5.474,43.555 2.976,36.69 3.391,29.057 c 0.344,-6.33 1.381,-12.563 4.97,-17.98 3.844,-5.799 9.434,-8.594 16.323,-8.74 5.477,-0.115 10.961,0.029 16.43,-0.212 1.811,-0.08 3.79,-0.684 5.296,-1.662 0.846,-0.55 1.432,-2.524 1.118,-3.541 C 47.253,-3.971 45.585,-4.941 44.491,-4.991 35.201,-5.42 25.903,-5.688 16.605,-5.917 10.461,-6.069 5.202,-3.468 0,0"
             style="fill:#231f20;fill-opacity:1;fill-rule:nonzero;stroke:none"
             id="path87" />
        </g>
        <g
           id="g89"
           transform="translate(285.409,759.7167)">
          <path
             d="m 0,0 c -0.479,-4.339 -1.258,-8.67 -1.368,-13.018 -0.179,-7.13 0.006,-14.273 0.173,-21.408 0.116,-4.945 2.79,-8.404 6.758,-9.127 4.04,-0.737 7.887,1.315 9.489,6.108 1.636,4.896 2.429,10.08 3.51,15.155 0.37,1.736 0.113,3.711 0.851,5.231 0.607,1.251 2.141,2.522 3.481,2.829 1.853,0.423 2.889,-1.193 3.283,-2.951 0.21,-0.932 0.327,-1.896 0.374,-2.851 0.38,-7.811 0.738,-15.623 1.09,-23.435 0.037,-0.821 0.103,-1.664 -0.031,-2.465 -0.496,-2.965 -3.079,-4.368 -5.385,-2.47 -2.557,2.104 -4.989,1.638 -7.713,1.085 -3.209,-0.652 -6.435,-1.425 -9.686,-1.632 -9.302,-0.593 -14.472,3.676 -14.911,12.927 -0.54,11.396 0.007,22.803 2.566,33.977 0.596,2.604 0.345,4.688 -0.703,7.073 -1.759,4.004 -3.249,8.144 -4.577,12.316 -1.305,4.1 -0.075,5.867 4.217,6.417 2.591,0.332 5.585,0.616 7.176,-1.765 1.508,-2.256 0.23,-4.882 -1.259,-6.876 -2.967,-3.973 -0.223,-7.165 3.605,-7.603 2.976,-0.34 4.389,0.913 4.351,3.94 -0.01,0.814 -0.318,1.622 -0.357,2.44 -0.212,4.414 4.446,8.405 8.795,7.566 2,-0.385 3.78,-3.204 2.92,-5.557 C 14.611,10.335 12.163,4.878 6.643,1.811 4.924,0.856 2.847,0.549 0.933,-0.054 0.622,-0.036 0.311,-0.018 0,0"
             style="fill:#231f20;fill-opacity:1;fill-rule:nonzero;stroke:none"
             id="path91" />
        </g>
        <g
           id="g93"
           transform="translate(288.1796,698.6484)">
          <path
             d="m 0,0 c 0.001,-3.318 -2.497,-6.173 -5.36,-6.125 -2.832,0.047 -5.473,2.95 -5.543,6.091 -0.064,2.884 2.172,5.134 5.19,5.223 C -2.552,5.281 -0.001,2.964 0,0"
             style="fill:#231f20;fill-opacity:1;fill-rule:nonzero;stroke:none"
             id="path95" />
        </g>
      </g>
    </g>
  </g>
</svg>
