<?xml version="1.0" encoding="UTF-8" standalone="no"?>
<!-- Created with Inkscape (http://www.inkscape.org/) -->

<svg
   width="50.974052mm"
   height="38.588741mm"
   viewBox="0 0 50.974053 38.58874"
   version="1.1"
   id="svg318"
   inkscape:version="1.1 (c68e22c387, 2021-05-23)"
   sodipodi:docname="geni.svg"
   xmlns:inkscape="http://www.inkscape.org/namespaces/inkscape"
   xmlns:sodipodi="http://sodipodi.sourceforge.net/DTD/sodipodi-0.dtd"
   xmlns="http://www.w3.org/2000/svg"
   xmlns:svg="http://www.w3.org/2000/svg">
  <sodipodi:namedview
     id="namedview320"
     pagecolor="#505050"
     bordercolor="#eeeeee"
     borderopacity="1"
     inkscape:pageshadow="0"
     inkscape:pageopacity="0"
     inkscape:pagecheckerboard="0"
     inkscape:document-units="mm"
     showgrid="false"
     inkscape:zoom="0.77771465"
     inkscape:cx="-460.96599"
     inkscape:cy="322.09757"
     inkscape:window-width="1284"
     inkscape:window-height="1081"
     inkscape:window-x="1747"
     inkscape:window-y="166"
     inkscape:window-maximized="0"
     inkscape:current-layer="layer1" />
  <defs
     id="defs315">
    <clipPath
       clipPathUnits="userSpaceOnUse"
       id="clipPath75">
      <path
         d="M 0,841.89 H 595.276 V 0 H 0 Z"
         id="path73" />
    </clipPath>
  </defs>
  <g
     inkscape:label="Layer 1"
     inkscape:groupmode="layer"
     id="layer1"
     transform="translate(-227.09941,45.386482)">
    <g
       id="g77"
       transform="matrix(0.35277777,0,0,-0.35277777,235.12417,-10.875613)">
      <path
         d="m 0,0 c 14.855,0 29.53,0 44.296,0 1.67,5.164 -1.408,8.75 -4.037,12.343 -6.649,9.084 -7.898,19.404 -7.452,30.208 0.398,9.614 3.611,18.372 8.931,26.16 2.534,3.709 6.648,6.354 10.079,9.445 1.546,1.394 3.384,2.52 4.71,4.087 2.227,2.627 1.587,4.533 -1.845,4.76 C 46.728,87.527 38.747,87.791 30.776,87.83 25.359,87.857 19.891,87.678 14.531,86.962 6.022,85.825 -0.073,78.174 -0.786,70.319 c -0.147,-1.625 0.221,-4.514 1.013,-4.768 2.045,-0.654 4.481,-0.325 6.719,-0.048 0.936,0.116 1.739,1.138 2.648,1.672 6.395,3.754 11.424,1.766 13.576,-5.347 2.652,-8.762 0.36,-11.688 -8.97,-11.542 -5.032,0.079 -10.085,-0.205 -15.093,0.162 -9.208,0.674 -16.56,4.312 -20.497,13.349 -2.279,5.232 -1.81,10.242 2.337,14.552 3.456,3.591 6.781,7.41 10.708,10.425 6.078,4.665 13.685,5.371 20.91,7.279 11.849,3.13 23.678,1.111 35.488,1.357 20.263,0.422 40.539,0.161 60.809,0.223 2.567,0.007 5.166,0.008 5.346,-3.351 0.178,-3.317 -1.816,-5.2 -5.008,-5.573 C 103.938,88.094 98.527,88.215 93.411,87.031 86.696,85.478 79.984,83.453 73.71,80.654 70.435,79.193 67.873,75.836 65.386,72.991 59.599,66.373 53.456,59.944 48.579,52.69 43.891,45.719 43.038,37.847 46.179,29.4 c 1.934,-5.2 4.447,-9.764 7.738,-14.085 4.369,-5.737 14.99,-8.366 21.984,-6.859 8.578,1.848 13.43,7.771 18.784,13.662 2.937,3.231 4.026,6.722 4.475,10.821 0.302,2.756 1.242,5.444 1.922,8.156 2.193,8.749 -5.748,18.872 -14.806,19.326 -9.734,0.487 -14.547,-4.459 -18.913,-11.947 -2.272,-3.897 -2.95,-7.481 -3.074,-11.669 -0.104,-3.546 1.79,-6.225 4.445,-7.049 2.531,-0.787 5.734,0.283 8.538,0.961 0.432,0.104 0.704,2.593 0.364,3.785 -0.681,2.383 -2.338,4.559 -2.692,6.952 -0.757,5.119 1.751,8.456 6.468,9.53 5.642,1.286 8.723,-0.372 11.013,-5.274 4.619,-9.891 -1.596,-19.835 -11.056,-21.883 -3.253,-0.705 -6.475,-2.425 -9.665,-2.317 -3.373,0.113 -6.955,1.361 -9.979,2.978 -7.252,3.876 -11.418,12.315 -10.049,19.691 1.41,7.597 4.605,14.797 10.433,20.19 8.003,7.405 24.246,9.186 34.309,4.512 2.901,-1.348 6.309,-1.578 9.296,-2.784 5.668,-2.288 8.943,-6.361 11.411,-12.285 3.299,-7.92 5.257,-15.738 4.433,-24.135 C 120.369,17.562 116.559,6.39 106.915,-1.72 103.844,-4.302 99.76,-6.392 95.842,-7.124 87.956,-8.597 79.883,-9.419 71.857,-9.731 50.395,-10.565 28.92,-11.068 7.446,-11.515 c -5.417,-0.113 -10.946,-0.071 -16.25,0.871 -7.77,1.382 -14.091,7.273 -13.142,16.227 0.651,6.139 7.522,14.031 13.964,14.461 8.535,0.571 17.115,0.647 25.674,0.602 4.658,-0.025 6.159,-2.283 5.973,-7.671 C 23.505,8.309 21.847,6.299 17.307,6.628 14.739,6.814 12.315,8.523 9.741,9.246 7.897,9.764 5.513,10.559 4.09,9.831 2.336,8.935 1.08,6.715 0.098,4.815 -0.448,3.758 0,2.19 0,0"
         style="fill:#231f20;fill-opacity:1;fill-rule:nonzero;stroke:none"
         id="path79" />
    </g>
  </g>
</svg>
