<?xml version="1.0" encoding="UTF-8" standalone="no"?>
<!-- Created with Inkscape (http://www.inkscape.org/) -->

<svg
   width="35.406422mm"
   height="37.581619mm"
   viewBox="0 0 35.406422 37.581619"
   version="1.1"
   id="svg552"
   inkscape:version="1.1 (c68e22c387, 2021-05-23)"
   sodipodi:docname="gift.svg"
   xmlns:inkscape="http://www.inkscape.org/namespaces/inkscape"
   xmlns:sodipodi="http://sodipodi.sourceforge.net/DTD/sodipodi-0.dtd"
   xmlns="http://www.w3.org/2000/svg"
   xmlns:svg="http://www.w3.org/2000/svg">
  <sodipodi:namedview
     id="namedview554"
     pagecolor="#505050"
     bordercolor="#eeeeee"
     borderopacity="1"
     inkscape:pageshadow="0"
     inkscape:pageopacity="0"
     inkscape:pagecheckerboard="0"
     inkscape:document-units="mm"
     showgrid="false"
     inkscape:zoom="0.77771465"
     inkscape:cx="67.505479"
     inkscape:cy="71.362935"
     inkscape:window-width="1284"
     inkscape:window-height="1081"
     inkscape:window-x="2058"
     inkscape:window-y="152"
     inkscape:window-maximized="0"
     inkscape:current-layer="layer1" />
  <defs
     id="defs549">
    <clipPath
       clipPathUnits="userSpaceOnUse"
       id="clipPath209">
      <path
         d="M 0,841.89 H 595.276 V 0 H 0 Z"
         id="path207" />
    </clipPath>
  </defs>
  <g
     inkscape:label="Layer 1"
     inkscape:groupmode="layer"
     id="layer1"
     transform="translate(-87.250398,-129.70919)">
    <g
       id="g203"
       transform="matrix(0.35277777,0,0,-0.35277777,-65.471982,414.16004)">
      <g
         id="g205"
         clip-path="url(#clipPath209)">
        <g
           id="g211"
           transform="translate(496.1516,712.9409)">
          <path
             d="m 0,0 c 3.562,-0.328 6.865,-0.633 10.168,-0.937 0.134,3.461 0.316,6.922 0.358,10.384 0.007,0.622 -0.473,1.323 -0.889,1.866 -4.06,5.301 -8.107,10.612 -12.252,15.848 -4.153,5.246 -8.413,10.409 -12.923,15.975 -11.399,-8.813 -22.367,-17.362 -28.383,-30.576 -2.065,-4.537 -1.251,-9.037 0.225,-13.443 0.377,-1.123 1.843,-2.661 2.821,-2.671 3.727,-0.035 7.584,0.005 11.152,0.933 2.875,0.747 3.866,3.303 1.486,5.863 -2.649,2.848 -2.66,5.274 0.498,7.714 3.273,2.53 5.264,0.056 7.103,-1.899 6.113,-6.496 2.723,-17.659 -6.494,-20.387 -3.616,-1.071 -7.763,-1.002 -11.576,-0.597 -3.707,0.395 -7.355,1.716 -10.925,2.935 -5.051,1.725 -7.576,5.643 -6.31,10.76 1.16,4.692 2.683,9.468 5.024,13.666 7.431,13.32 15.519,26.23 28.972,35.919 -6.391,9.205 -12.582,18.21 -18.886,27.136 -1.605,2.272 -3.476,4.383 -5.417,6.384 -0.746,0.768 -2.026,1.023 -3.063,1.512 -0.207,-1.208 -0.674,-2.441 -0.558,-3.617 0.163,-1.636 1.02,-3.212 1.123,-4.843 0.239,-3.766 -2.414,-6.561 -5.99,-6.625 -3.864,-0.07 -6.817,2.732 -6.345,6.653 0.394,3.279 1.219,6.597 2.448,9.662 1.545,3.853 4.93,5.596 9.025,5.75 7.766,0.293 15.488,-5.05 18.218,-12.361 0.726,-1.946 1.564,-3.924 2.742,-5.618 4.366,-6.28 8.895,-12.447 14.581,-20.35 0.836,1.576 1.33,3.31 2.435,4.468 8.927,9.358 17.835,18.74 27.022,27.843 6.147,6.091 14.043,5.78 19.174,-0.233 3.897,-4.566 3.058,-11.44 -1.671,-13.703 -4.263,-2.04 -7.159,-0.476 -7.658,4.2 -0.131,1.231 -0.02,2.487 -0.02,4.853 C 21.254,79.276 17.784,76.796 14.679,73.924 6.785,66.62 -0.873,59.06 -8.792,51.783 -10.934,49.814 -10.106,48.416 -8.739,46.86 -2.752,40.041 2.739,32.668 9.431,26.613 18.253,18.629 20.061,8.966 18.738,-1.866 17.985,-8.029 11.762,-13.3 5.523,-13.151 c -3.44,0.082 -6.971,0.772 -10.254,1.827 -3.911,1.258 -6.158,4.277 -6.307,8.514 -0.103,2.927 -0.134,5.861 -0.055,8.787 0.113,4.156 2.336,6.96 5.255,6.83 C -2.162,12.643 1.137,8.96 0.897,5.182 0.818,3.952 0.486,2.739 0,0"
             style="fill:#231f20;fill-opacity:1;fill-rule:nonzero;stroke:none"
             id="path213" />
        </g>
        <g
           id="g215"
           transform="translate(532.4435,768.7113)">
          <path
             d="m 0,0 c -0.096,-5.277 -2.622,-8.799 -5.264,-8.451 -3.037,0.4 -4.593,2.535 -4.7,5.471 -0.112,3.047 2.924,6.406 5.752,5.875 C -2.415,2.557 -0.912,0.666 0,0"
             style="fill:#231f20;fill-opacity:1;fill-rule:nonzero;stroke:none"
             id="path217" />
        </g>
        <g
           id="g219"
           transform="translate(434.5484,769.5081)">
          <path
             d="M 0,0 C 0.144,2.627 1.228,5.331 4.932,5.357 7.786,5.377 9.566,3.702 9.513,0.597 9.448,-3.166 7.016,-6.272 4.168,-6.203 1.503,-6.139 -0.077,-4.019 0,0"
             style="fill:#231f20;fill-opacity:1;fill-rule:nonzero;stroke:none"
             id="path221" />
        </g>
        <g
           id="g223"
           transform="translate(442.4632,743.3216)">
          <path
             d="m 0,0 c -0.313,-2.759 -1.103,-5.346 -4.611,-5.218 -3.412,0.125 -4.878,2.41 -4.937,5.591 -0.055,3.03 1.562,4.728 4.617,4.72 C -1.691,5.085 -0.15,3.223 0,0"
             style="fill:#231f20;fill-opacity:1;fill-rule:nonzero;stroke:none"
             id="path225" />
        </g>
        <g
           id="g227"
           transform="translate(533.2785,742.3087)">
          <path
             d="m 0,0 c -2.407,-1.677 -3.789,-3.441 -5.174,-3.443 -3.077,-0.005 -4.402,2.656 -4.085,5.239 0.202,1.658 2.032,3.118 3.132,4.667 C -4.352,4.591 -2.578,2.719 0,0"
             style="fill:#231f20;fill-opacity:1;fill-rule:nonzero;stroke:none"
             id="path229" />
        </g>
      </g>
    </g>
  </g>
</svg>
