<?xml version="1.0" encoding="UTF-8" standalone="no"?>
<!-- Created with Inkscape (http://www.inkscape.org/) -->

<svg
   width="37.855862mm"
   height="38.689564mm"
   viewBox="0 0 37.855862 38.689564"
   version="1.1"
   id="svg876"
   inkscape:version="1.1 (c68e22c387, 2021-05-23)"
   sodipodi:docname="hold.svg"
   xmlns:inkscape="http://www.inkscape.org/namespaces/inkscape"
   xmlns:sodipodi="http://sodipodi.sourceforge.net/DTD/sodipodi-0.dtd"
   xmlns="http://www.w3.org/2000/svg"
   xmlns:svg="http://www.w3.org/2000/svg">
  <sodipodi:namedview
     id="namedview878"
     pagecolor="#505050"
     bordercolor="#eeeeee"
     borderopacity="1"
     inkscape:pageshadow="0"
     inkscape:pageopacity="0"
     inkscape:pagecheckerboard="0"
     inkscape:document-units="mm"
     showgrid="false"
     inkscape:zoom="0.77771465"
     inkscape:cx="71.362935"
     inkscape:cy="72.648754"
     inkscape:window-width="1284"
     inkscape:window-height="1081"
     inkscape:window-x="1802"
     inkscape:window-y="202"
     inkscape:window-maximized="0"
     inkscape:current-layer="layer1" />
  <defs
     id="defs873">
    <clipPath
       clipPathUnits="userSpaceOnUse"
       id="clipPath151">
      <path
         d="M 0,841.89 H 595.276 V 0 H 0 Z"
         id="path149" />
    </clipPath>
  </defs>
  <g
     inkscape:label="Layer 1"
     inkscape:groupmode="layer"
     id="layer1"
     transform="translate(-86.025676,-129.15521)">
    <g
       id="g145"
       transform="matrix(0.35277777,0,0,-0.35277777,-65.405219,312.89788)">
      <g
         id="g147"
         clip-path="url(#clipPath151)">
        <g
           id="g153"
           transform="translate(454.8178,508.3677)">
          <path
             d="m 0,0 c 2.683,2.797 5.033,5.791 9.675,5.814 6.418,0.031 10.439,-2.984 12.62,-8.509 4.113,-10.42 2.932,-20.646 -2.019,-30.522 -4.249,-8.478 -9.011,-16.727 -12.798,-25.4 -4.041,-9.253 -0.444,-19.486 6.182,-25.448 5.937,-5.343 13.534,-5.229 20.996,-3.129 2.007,0.565 3.97,1.346 5.875,2.201 5.917,2.655 9.701,6.821 9.141,13.724 -0.382,4.716 -0.578,9.494 -1.535,14.106 -2.28,10.989 -5.593,21.8 -7.271,32.867 -1.233,8.127 -1.738,16.534 0.858,24.778 3.008,9.551 11.654,10.678 18.927,7.268 0.393,0.445 0.844,0.931 1.267,1.44 3.438,4.129 8.324,4.412 12.133,0.604 3.279,-3.278 4.843,-7.38 4.937,-11.923 0.286,-13.786 0.5,-27.574 0.617,-41.363 0.101,-11.935 -0.063,-23.874 0.112,-35.808 0.038,-2.575 0.797,-5.211 1.63,-7.683 1.113,-3.304 -0.13,-5.381 -3.597,-5.146 -2.66,0.18 -5.33,0.474 -7.944,0.978 -2.721,0.525 -2.516,2.688 -2.106,4.69 1.299,6.35 3.138,12.63 3.895,19.04 0.948,8.028 1.255,16.153 1.434,24.246 0.276,12.499 0.278,25.006 0.233,37.509 C 73.253,-3.16 72.85,-0.534 71.993,1.806 71.445,3.301 69.727,4.371 68.534,5.632 66.961,3.838 63.531,3.8 63.54,0.54 c 0.006,-2.079 -0.101,-4.238 0.411,-6.216 0.687,-2.65 -0.462,-3.715 -2.724,-4.155 -1.886,-0.367 -3.806,-0.556 -6.389,-0.919 0.447,2.798 0.851,5.021 1.144,7.259 0.221,1.686 0.756,3.524 0.306,5.047 -0.396,1.339 -1.79,2.706 -3.095,3.312 -0.582,0.27 -2.337,-1.079 -3.027,-2.063 -4.814,-6.871 -4.732,-14.501 -2.202,-21.947 4.428,-13.029 6.565,-26.487 8.553,-39.992 0.808,-5.491 1.123,-11.052 1.759,-16.57 1.021,-8.853 -1.346,-13.695 -9.399,-17.267 -12.478,-5.533 -25.231,-5.475 -37.947,-0.724 -1.371,0.513 -2.701,1.833 -3.474,3.122 -8.779,14.625 -8.271,30.09 -3.201,45.574 1.613,4.924 5.289,9.156 7.848,13.799 5.254,9.531 3.387,19.081 -0.432,28.455 -1.157,2.838 -3.557,2.689 -5.223,0.135 -1.632,-2.502 -1.329,-4.919 -0.287,-7.587 2.086,-5.343 -0.44,-9.211 -5.94,-9.46 -3.772,-0.17 -5.252,1.721 -4.585,5.43 0.405,2.245 0.622,4.592 0.417,6.848 -0.102,1.125 -1.181,2.816 -2.108,3.035 -1.005,0.236 -2.856,-0.633 -3.432,-1.571 -1.118,-1.822 -2.169,-4.005 -2.257,-6.081 -0.677,-15.848 -1.401,-31.703 -1.501,-47.561 -0.046,-7.353 1.267,-14.714 1.963,-22.072 0.033,-0.346 0.052,-0.694 0.085,-1.04 1.051,-10.802 -4.836,-10.47 -11.771,-9.007 -2.603,0.55 -3.187,2.466 -2.03,4.83 0.2,0.41 0.466,0.851 0.823,1.113 5.303,3.896 5.638,9.411 5.188,15.267 -0.939,12.233 -2.08,24.461 -2.568,36.714 -0.34,8.535 -0.024,17.13 0.623,25.651 0.21,2.764 1.938,5.751 3.77,7.988 C -13.16,4.771 -5.758,6.819 0,0"
             style="fill:#231f20;fill-opacity:1;fill-rule:nonzero;stroke:none"
             id="path155" />
        </g>
        <g
           id="g157"
           transform="translate(467.7003,438.8619)">
          <path
             d="M 0,0 C 0.097,4.14 2.834,7.092 6.542,7.043 9.447,7.004 10.767,5.436 10.648,2.645 10.432,-2.405 8.178,-5.295 4.622,-5.194 1.47,-5.105 -0.079,-3.364 0,0"
             style="fill:#231f20;fill-opacity:1;fill-rule:nonzero;stroke:none"
             id="path159" />
        </g>
        <g
           id="g161"
           transform="translate(490.8044,443.3095)">
          <path
             d="m 0,0 c 2.299,-0.13 4.151,-1 4.329,-3.76 0.22,-3.384 -2.304,-7.052 -4.781,-7.039 -2.116,0.011 -4.153,2.786 -4.314,5.875 C -4.91,-2.166 -2.961,-0.09 0,0"
             style="fill:#231f20;fill-opacity:1;fill-rule:nonzero;stroke:none"
             id="path163" />
        </g>
      </g>
    </g>
  </g>
</svg>
