<?xml version="1.0" encoding="UTF-8" standalone="no"?>
<!-- Created with Inkscape (http://www.inkscape.org/) -->

<svg
   width="46.163795mm"
   height="45.062481mm"
   viewBox="0 0 46.163795 45.062481"
   version="1.1"
   id="svg1055"
   inkscape:version="1.1 (c68e22c387, 2021-05-23)"
   sodipodi:docname="kong.svg"
   xmlns:inkscape="http://www.inkscape.org/namespaces/inkscape"
   xmlns:sodipodi="http://sodipodi.sourceforge.net/DTD/sodipodi-0.dtd"
   xmlns="http://www.w3.org/2000/svg"
   xmlns:svg="http://www.w3.org/2000/svg">
  <sodipodi:namedview
     id="namedview1057"
     pagecolor="#505050"
     bordercolor="#eeeeee"
     borderopacity="1"
     inkscape:pageshadow="0"
     inkscape:pageopacity="0"
     inkscape:pagecheckerboard="0"
     inkscape:document-units="mm"
     showgrid="false"
     inkscape:zoom="0.77771465"
     inkscape:cx="592.11949"
     inkscape:cy="405.67579"
     inkscape:window-width="1284"
     inkscape:window-height="1081"
     inkscape:window-x="1498"
     inkscape:window-y="242"
     inkscape:window-maximized="0"
     inkscape:current-layer="layer1" />
  <defs
     id="defs1052">
    <clipPath
       clipPathUnits="userSpaceOnUse"
       id="clipPath751">
      <path
         d="M 0,841.89 H 595.276 V 0 H 0 Z"
         id="path749" />
    </clipPath>
  </defs>
  <g
     inkscape:label="Layer 1"
     inkscape:groupmode="layer"
     id="layer1"
     transform="translate(91.123137,13.345675)">
    <g
       id="g745"
       transform="matrix(0.35277777,0,0,-0.35277777,-232.51954,269.03834)">
      <g
         id="g747"
         clip-path="url(#clipPath751)">
        <g
           id="g753"
           transform="translate(516.0702,733.8353)">
          <path
             d="m 0,0 c -0.713,9.846 -1.163,19.721 -2.227,29.529 -0.747,6.885 -2.071,7.827 -7.551,7.903 -6.311,0.086 -9.678,-1.883 -10.157,-7.722 -0.709,-8.634 -1.587,-17.443 2.592,-25.721 2.131,-4.221 1.235,-5.553 -3.375,-5.766 -1.686,-0.079 -3.393,0.105 -5.08,0.273 -3.006,0.3 -7.44,-0.405 -8.698,1.257 -2.429,3.211 2.778,4.692 3.723,7.372 2.801,7.943 2.969,16.114 -0.127,23.917 -1.632,4.114 -6.009,3.615 -9.716,3.116 -3.743,-0.503 -4.124,-3.409 -4.025,-6.368 0.275,-8.169 0.38,-16.357 1.101,-24.489 0.341,-3.858 -0.83,-5.272 -4.462,-5.168 -1.131,0.033 -2.28,-0.123 -3.393,0.02 -2.903,0.372 -6.94,-1.412 -8.133,2.387 -0.487,1.548 2.368,3.951 3.205,6.154 1.075,2.832 2.162,5.824 2.333,8.799 0.373,6.484 -0.135,13.022 0.302,19.498 0.317,4.69 0.499,10.063 6.359,11.781 6.153,1.803 12.266,2.242 17.543,-2.597 5.22,-4.786 5.011,-4.428 10.644,-0.465 3.06,2.152 6.992,3.858 10.673,4.189 C 1.78,48.821 5.804,44.71 6.35,34.3 7.428,13.725 8.604,-6.846 9.722,-27.419 c 0.263,-4.836 0.654,-9.482 4.656,-13.144 1.105,-1.01 1.476,-3.631 1.041,-5.197 -0.247,-0.89 -2.791,-1.54 -4.329,-1.602 -4.804,-0.195 -9.622,-0.055 -14.434,-0.051 -2.881,0.002 -5.401,0.806 -4.785,4.265 0.918,5.155 -2.157,5.752 -5.916,5.758 -7.077,0.013 -14.154,-0.076 -21.231,-0.087 -4.529,-0.007 -9.065,-0.105 -13.585,0.112 -7.136,0.342 -11.935,4.489 -12.374,10.394 -0.42,5.656 5.507,13.241 11.509,13.862 5.325,0.551 10.744,0.358 16.117,0.258 7.436,-0.139 14.622,0.319 21.26,4.373 3.156,1.927 4.352,1.023 4.668,-2.936 0.224,-2.809 0.246,-5.669 -0.007,-8.473 -0.452,-4.994 -2.255,-6.192 -6.618,-3.368 -4.709,3.048 -9.596,3.059 -14.667,2.76 -1.911,-0.113 -4.063,-0.566 -5.579,-1.62 -1.356,-0.941 -2.598,-2.882 -2.704,-4.461 -0.061,-0.912 2.102,-2.555 3.484,-2.854 2.446,-0.529 5.06,-0.336 7.605,-0.352 5.378,-0.033 10.762,-0.145 16.135,0.031 6.622,0.218 9.143,2.642 9.386,9.348 0.245,6.778 0.054,13.572 0.054,20.359 C -0.395,-0.029 -0.197,-0.015 0,0"
             style="fill:#231f20;fill-opacity:1;fill-rule:nonzero;stroke:none"
             id="path755" />
        </g>
        <g
           id="g757"
           transform="translate(431.1014,718.4365)">
          <path
             d="M 0,0 C -0.226,0.379 -1.073,1.797 -1.921,3.215 -3.479,1.803 -5.049,0.403 -6.58,-1.038 c -0.158,-0.149 -0.191,-0.578 -0.107,-0.816 1.391,-3.94 2.471,-8.041 4.35,-11.736 1.103,-2.17 5.958,-1.898 7.538,0.19 1.821,2.408 0.803,4.26 -1.87,5.167 C 0.014,-7.108 -0.889,-4.786 0,0 m 8.425,44.192 c -0.625,4.13 -0.9,8.354 -1.968,12.367 -1.251,4.697 -1.192,5.417 3.216,6.196 1.657,0.293 3.381,0.332 5.07,0.293 6.895,-0.16 7.371,-0.969 4.555,-7.165 C 15.393,47.291 13.361,38.272 13.337,28.829 13.305,16.677 13.32,4.524 13.318,-7.628 c 0,-4.673 0.401,-8.963 5.722,-11.144 1.297,-0.532 2.674,-3.298 2.361,-4.656 -0.329,-1.426 -2.576,-2.498 -4.124,-3.511 -0.64,-0.419 -1.642,-0.36 -2.484,-0.384 -8.961,-0.263 -16.176,5.196 -23.899,8.298 -6.177,2.481 -7.231,17.493 -3.655,25.018 2.687,5.656 2.633,6.648 -3.301,8.329 -9.117,2.583 -13.781,8.064 -14.185,17.55 -0.454,10.633 2.401,19.757 11.907,25.427 11.518,6.87 22.445,0.526 23.151,-12.906 0.35,-6.649 -0.712,-12.405 -7.244,-15.814 -4.002,-2.089 -10.827,0.941 -11.326,5.278 -0.133,1.15 0.67,3.005 1.616,3.555 1.866,1.087 4.09,1.785 6.245,2.097 2.592,0.376 5.33,0.171 5.319,3.862 -0.011,3.601 -2.825,6.323 -6.603,6.194 -4.903,-0.168 -8.816,-2.533 -11.06,-6.766 -4.832,-9.114 2.542,-21.345 12.874,-21.726 5.739,-0.211 9.709,2.489 11.529,7.985 0.62,1.87 1.248,3.806 1.394,5.747 0.232,3.088 0.062,6.206 0.062,9.311 0.269,0.025 0.539,0.051 0.808,0.076"
             style="fill:#231f20;fill-opacity:1;fill-rule:nonzero;stroke:none"
             id="path759" />
        </g>
        <g
           id="g761"
           transform="translate(490.6474,688.5265)">
          <path
             d="m 0,0 c 4.812,-0.132 6.504,-2.18 6.364,-7.701 -0.139,-5.438 -2.203,-8.093 -6.302,-8.103 -4.643,-0.012 -7.76,3.712 -7.607,9.092 C -7.411,-2.004 -5.005,0.137 0,0"
             style="fill:#231f20;fill-opacity:1;fill-rule:nonzero;stroke:none"
             id="path763" />
        </g>
        <g
           id="g765"
           transform="translate(424.4045,800.4548)">
          <path
             d="m 0,0 c 4.28,0.126 7.402,-2.858 7.501,-7.171 0.087,-3.748 -3.764,-7.497 -7.618,-7.416 -3.59,0.075 -7.343,3.325 -7.594,6.578 C -8.052,-3.589 -4.732,-0.14 0,0"
             style="fill:#231f20;fill-opacity:1;fill-rule:nonzero;stroke:none"
             id="path767" />
        </g>
      </g>
    </g>
  </g>
</svg>
