<?xml version="1.0" encoding="UTF-8" standalone="no"?>
<!-- Created with Inkscape (http://www.inkscape.org/) -->

<svg
   width="26.905922mm"
   height="43.39246mm"
   viewBox="0 0 26.905922 43.39246"
   version="1.1"
   id="svg748"
   inkscape:version="1.1 (c68e22c387, 2021-05-23)"
   sodipodi:docname="maug.svg"
   xmlns:inkscape="http://www.inkscape.org/namespaces/inkscape"
   xmlns:sodipodi="http://sodipodi.sourceforge.net/DTD/sodipodi-0.dtd"
   xmlns="http://www.w3.org/2000/svg"
   xmlns:svg="http://www.w3.org/2000/svg">
  <sodipodi:namedview
     id="namedview750"
     pagecolor="#ffffff"
     bordercolor="#666666"
     borderopacity="1.0"
     inkscape:pageshadow="2"
     inkscape:pageopacity="0.0"
     inkscape:pagecheckerboard="0"
     inkscape:document-units="mm"
     showgrid="false"
     fit-margin-top="0"
     fit-margin-left="0"
     fit-margin-right="0"
     fit-margin-bottom="0"
     inkscape:zoom="0.77771465"
     inkscape:cx="50.789837"
     inkscape:cy="81.649485"
     inkscape:window-width="1284"
     inkscape:window-height="1081"
     inkscape:window-x="1949"
     inkscape:window-y="122"
     inkscape:window-maximized="0"
     inkscape:current-layer="layer1" />
  <defs
     id="defs745">
    <clipPath
       clipPathUnits="userSpaceOnUse"
       id="clipPath51">
      <path
         d="M 0,841.89 H 595.276 V 0 H 0 Z"
         id="path49" />
    </clipPath>
    <clipPath
       clipPathUnits="userSpaceOnUse"
       id="clipPath111">
      <path
         d="M 0,841.89 H 595.276 V 0 H 0 Z"
         id="path109" />
    </clipPath>
  </defs>
  <g
     inkscape:label="Layer 1"
     inkscape:groupmode="layer"
     id="layer1"
     transform="translate(6.2051916,-126.76724)">
    <g
       id="g105"
       transform="matrix(0.35277777,0,0,-0.35277777,-160.3366,315.2392)">
      <g
         id="g107"
         clip-path="url(#clipPath111)">
        <g
           id="g113"
           transform="translate(461.3409,439.1194)">
          <path
             d="m 0,0 c 3.673,0.16 7.386,0.041 11.009,0.555 4.082,0.579 6.402,3.127 6.828,7.429 0.6,6.046 -0.774,11.36 -5.716,15.134 -2.89,2.207 -6.178,3.923 -9.389,5.673 -4.218,2.298 -8.61,4.281 -12.799,6.628 -13.829,7.748 -20.238,28.099 -7.479,45.073 C -4.09,98.393 17.622,97.273 31.443,90.839 39.798,86.95 42.366,78.772 43.35,70.485 45.096,55.788 37.688,45.458 23.884,40.643 13.705,37.093 -1.453,45.387 -3.408,58.304 c -1.105,7.295 7.691,17.694 15.015,17.916 5.597,0.17 8.5,-3.91 11.463,-7.708 2.349,-3.011 1.085,-5.972 -0.809,-8.534 -0.835,-1.13 -2.534,-1.622 -3.84,-2.404 -0.626,1.151 -1.907,2.396 -1.757,3.435 0.499,3.453 0.861,6.52 -4.045,6.159 C 8.4,66.857 6.055,64.019 6.44,59.644 c 0.143,-1.616 0.654,-3.378 1.538,-4.717 2.655,-4.023 9.095,-5.424 15.553,-3.659 5.337,1.459 7.665,3.809 7.848,9.633 C 31.51,65.05 31.144,69.467 29.81,73.357 26.776,82.21 16.345,86.575 7.618,83.247 -3.371,79.056 -11.13,66.22 -8.667,54.804 c 0.828,-3.837 3.502,-7.76 6.392,-10.547 3.814,-3.678 8.488,-6.593 13.12,-9.271 9.649,-5.58 16.404,-13.033 17.059,-24.638 0.312,-5.527 3.219,-7.962 8.362,-8.882 10.469,-1.871 14.056,-7.725 15.483,-17.502 1.074,-7.357 -8.044,-14.012 -14.913,-11.159 -3.973,1.651 -4.475,5.973 -1.186,9.816 1.518,1.775 5.227,2.336 3.899,5.725 -1.551,3.955 -4.86,6.669 -8.959,6.924 -4.739,0.295 -9.673,-0.084 -14.303,-1.135 -5.905,-1.34 -6.813,-6.19 -2.571,-10.566 1.26,-1.299 2.139,-2.968 3.193,-4.467 -2.688,-1.187 -5.28,-2.818 -8.093,-3.43 -2.602,-0.567 -5.226,0.625 -5.937,3.567 -0.592,2.446 -0.393,5.074 -0.863,7.561 -0.672,3.553 -4.607,5.531 -7.7,3.653 -0.895,-0.543 -1.294,-2.903 -0.991,-4.215 0.741,-3.203 2.026,-6.28 3.091,-9.407 -3.827,-0.438 -7.653,-1.217 -11.483,-1.232 -5.199,-0.02 -5.527,0.571 -4.377,5.332 1.061,4.394 2.527,8.703 3.356,13.136 0.829,4.429 3.153,6.324 7.587,6.075 2.824,-0.159 5.664,-0.03 8.496,-0.03 C -0.003,0.075 -0.001,0.037 0,0"
             style="fill:#231f20;fill-opacity:1;fill-rule:nonzero;stroke:none"
             id="path115" />
        </g>
        <g
           id="g117"
           transform="translate(473.5188,448.9877)">
          <path
             d="m 0,0 c -0.474,-4.479 -2.738,-6.774 -6.187,-6.272 -3.549,0.516 -6.005,3.585 -5.709,7.133 0.311,3.725 3.126,6.319 6.665,6.142 C -1.494,6.815 0.447,4.217 0,0"
             style="fill:#231f20;fill-opacity:1;fill-rule:nonzero;stroke:none"
             id="path119" />
        </g>
      </g>
    </g>
  </g>
</svg>
