<?xml version="1.0" encoding="UTF-8" standalone="no"?>
<!-- Created with Inkscape (http://www.inkscape.org/) -->

<svg
   width="37.819862mm"
   height="39.911964mm"
   viewBox="0 0 37.819862 39.911964"
   version="1.1"
   id="svg1048"
   inkscape:version="1.1 (c68e22c387, 2021-05-23)"
   sodipodi:docname="natt.svg"
   xmlns:inkscape="http://www.inkscape.org/namespaces/inkscape"
   xmlns:sodipodi="http://sodipodi.sourceforge.net/DTD/sodipodi-0.dtd"
   xmlns="http://www.w3.org/2000/svg"
   xmlns:svg="http://www.w3.org/2000/svg">
  <sodipodi:namedview
     id="namedview1050"
     pagecolor="#505050"
     bordercolor="#eeeeee"
     borderopacity="1"
     inkscape:pageshadow="0"
     inkscape:pageopacity="0"
     inkscape:pagecheckerboard="0"
     inkscape:document-units="mm"
     showgrid="false"
     inkscape:zoom="0.77771465"
     inkscape:cx="71.362935"
     inkscape:cy="75.220391"
     inkscape:window-width="1284"
     inkscape:window-height="1081"
     inkscape:window-x="1738"
     inkscape:window-y="262"
     inkscape:window-maximized="0"
     inkscape:current-layer="layer1" />
  <defs
     id="defs1045">
    <clipPath
       clipPathUnits="userSpaceOnUse"
       id="clipPath179">
      <path
         d="M 0,841.89 H 595.276 V 0 H 0 Z"
         id="path177" />
    </clipPath>
  </defs>
  <g
     inkscape:label="Layer 1"
     inkscape:groupmode="layer"
     id="layer1"
     transform="translate(-86.043677,-128.54402)">
    <g
       id="g173"
       transform="matrix(0.35277777,0,0,-0.35277777,-1.5159926,218.9962)">
      <g
         id="g175"
         clip-path="url(#clipPath179)">
        <g
           id="g181"
           transform="translate(304.9438,188.3273)">
          <path
             d="m 0,0 c 10.455,1.644 20.233,3.11 29.98,4.755 3.097,0.523 4.314,2.767 4.215,5.822 -0.15,4.682 -2.381,7.012 -7.546,7.774 -3.305,0.488 -6.614,0.959 -9.916,1.469 -2.524,0.389 -5.051,1.212 -7.559,1.146 C 6.155,20.887 3.155,20.071 0,19.55 Z m -10.735,42.131 c -4.299,-0.386 -7.951,-1.415 -11.34,-0.859 -5.442,0.894 -8.079,5.004 -8.943,10.322 -0.584,3.594 -0.436,7.455 -5.29,8.908 -2.092,0.627 -2.419,3.835 -0.378,4.716 2.76,1.192 6.202,1.775 9.147,1.316 2.871,-0.448 3.589,-3.351 3.415,-6.347 -0.16,-2.751 -0.149,-5.663 0.63,-8.252 0.379,-1.26 2.724,-2.808 4.109,-2.744 6.164,0.287 7.655,2.143 7.633,8.352 -0.005,1.254 -0.014,2.517 -0.167,3.759 -0.478,3.894 1.215,6.432 5.071,6.713 2.421,0.177 5.687,0.011 7.143,-1.431 1.108,-1.099 0.126,-4.472 -0.234,-6.787 -0.229,-1.477 -1.248,-2.828 -1.51,-4.307 -0.559,-3.162 0.423,-5.705 4.001,-6.078 3.59,-0.374 7.236,-0.559 10.827,-0.341 1.107,0.068 2.706,1.551 3.061,2.698 1.145,3.707 1.941,7.536 2.627,11.362 0.468,2.612 1.864,4.489 4.388,3.977 2.543,-0.516 5.126,-1.837 7.084,-3.51 0.495,-0.423 -1.233,-3.569 -2.105,-5.385 -0.575,-1.198 -1.881,-2.171 -2.117,-3.388 -2.258,-11.624 -11.534,-18.138 -23,-15.981 -1.231,0.231 -2.453,0.514 -4.126,0.868 0,-2.918 -0.056,-5.633 0.015,-8.345 0.077,-2.953 2.443,-2.161 4.067,-2.195 C 15.047,28.922 26.765,28.567 38.25,25.347 47.603,22.726 50.311,20.03 50.46,11.565 50.583,4.584 46.59,-0.943 38.545,-2.47 26.757,-4.708 14.778,-5.953 2.88,-7.614 2.191,-7.71 1.492,-7.734 0.209,-7.84 c -0.205,-3.946 -0.341,-7.921 -0.643,-11.883 -0.202,-2.659 -0.309,-5.469 -4.189,-5.535 -3.935,-0.067 -5.114,2.299 -5.194,5.601 -0.092,3.796 -0.022,7.596 -0.022,11.836 -2.181,-0.349 -3.402,-0.503 -4.605,-0.744 -8.199,-1.642 -16.367,-3.464 -24.608,-4.857 -2.415,-0.408 -3.885,-1.385 -3.766,-3.522 0.283,-5.055 0.69,-10.146 1.654,-15.105 0.545,-2.8 2.931,-4.255 6.104,-3.852 2.213,0.28 4.458,0.302 6.682,0.516 3.178,0.306 5.348,-0.969 5.605,-4.178 0.257,-3.205 -1.701,-5.608 -4.8,-5.497 -6.82,0.244 -13.656,0.866 -20.411,1.841 -5.532,0.798 -7.9,4.987 -8.464,10.095 -0.827,7.484 0.016,14.917 3.393,21.639 2.84,5.654 9.067,7.45 14.557,8.84 5.874,1.488 12.199,1.227 18.33,1.688 1.394,0.105 2.802,0.015 4.203,0.055 6.388,0.186 6.403,0.191 6.412,6.634 0.004,3.068 -0.164,6.14 -0.069,9.205 0.103,3.322 -1.504,5.133 -4.574,6.097 -6.533,2.052 -13.082,3.034 -18.684,-1.883 -2.366,-2.077 -3.719,-5.276 -5.642,-7.884 -0.953,-1.291 -2.156,-2.4 -3.246,-3.591 -1.001,1.453 -2.753,2.852 -2.865,4.37 -0.338,4.574 -0.28,9.213 0.077,13.791 0.388,4.962 3.069,6.483 7.784,5.092 1.854,-0.546 3.802,-1.039 5.716,-1.076 6.714,-0.13 13.433,-0.051 20.321,-0.051 z"
             style="fill:#231f20;fill-opacity:1;fill-rule:nonzero;stroke:none"
             id="path183" />
        </g>
        <g
           id="g185"
           transform="translate(315.777,165.9826)">
          <path
             d="M 0,0 C 1.234,3.801 2.655,5.858 5.83,6.034 8.55,6.185 11.336,3.085 11.257,0.231 11.172,-2.867 8.215,-6.335 5.863,-5.334 3.565,-4.356 1.927,-1.841 0,0"
             style="fill:#231f20;fill-opacity:1;fill-rule:nonzero;stroke:none"
             id="path187" />
        </g>
        <g
           id="g189"
           transform="translate(272.1879,164.2966)">
          <path
             d="M 0,0 C 0.007,3.524 2.03,5.777 5.264,5.485 7.894,5.248 10.18,4.256 10.293,1.046 10.401,-2.027 7.4,-5.315 4.342,-5.306 0.829,-5.296 0.014,-2.93 0,0"
             style="fill:#231f20;fill-opacity:1;fill-rule:nonzero;stroke:none"
             id="path191" />
        </g>
      </g>
    </g>
  </g>
</svg>
