<?xml version="1.0" encoding="UTF-8" standalone="no"?>
<!-- Created with Inkscape (http://www.inkscape.org/) -->

<svg
   width="29.496031mm"
   height="38.734295mm"
   viewBox="0 0 29.496031 38.734295"
   version="1.1"
   id="svg240"
   inkscape:version="1.1 (c68e22c387, 2021-05-23)"
   sodipodi:docname="nisse.svg"
   xmlns:inkscape="http://www.inkscape.org/namespaces/inkscape"
   xmlns:sodipodi="http://sodipodi.sourceforge.net/DTD/sodipodi-0.dtd"
   xmlns="http://www.w3.org/2000/svg"
   xmlns:svg="http://www.w3.org/2000/svg">
  <sodipodi:namedview
     id="namedview242"
     pagecolor="#505050"
     bordercolor="#eeeeee"
     borderopacity="1"
     inkscape:pageshadow="0"
     inkscape:pageopacity="0"
     inkscape:pagecheckerboard="0"
     inkscape:document-units="mm"
     showgrid="false"
     inkscape:zoom="0.77771465"
     inkscape:cx="55.933111"
     inkscape:cy="72.648754"
     inkscape:window-width="1284"
     inkscape:window-height="1081"
     inkscape:window-x="1630"
     inkscape:window-y="220"
     inkscape:window-maximized="0"
     inkscape:current-layer="layer1" />
  <defs
     id="defs237">
    <clipPath
       clipPathUnits="userSpaceOnUse"
       id="clipPath113">
      <path
         d="M 0,841.89 H 595.276 V 0 H 0 Z"
         id="path111" />
    </clipPath>
    <clipPath
       clipPathUnits="userSpaceOnUse"
       id="clipPath121">
      <path
         d="M 60.2262,784.522 H 143.837 V 674.724 H 60.2262 Z"
         id="path119" />
    </clipPath>
  </defs>
  <g
     inkscape:label="Layer 1"
     inkscape:groupmode="layer"
     id="layer1"
     transform="translate(-90.205593,-129.13285)">
    <g
       id="g107"
       transform="matrix(0.35277777,0,0,-0.35277777,68.959128,405.89477)">
      <g
         id="g109"
         clip-path="url(#clipPath113)">
        <g
           id="g115">
          <g
             id="g117" />
          <g
             id="g133">
            <g
               clip-path="url(#clipPath121)"
               id="g131">
              <g
                 transform="translate(143.8375,780.4907)"
                 id="g125">
                <path
                   d="m 0,0 c -4.658,-6.341 -5.146,-13.376 -3.671,-20.838 0.311,-1.574 -0.098,-3.338 -0.392,-4.976 -0.473,-2.632 -1.48,-5.212 -1.629,-7.85 -0.304,-5.341 -2.621,-9.425 -7.892,-10.036 -6.723,-0.781 -11.471,-4.472 -16.541,-8.242 -8.939,-6.648 -16.794,-14.207 -22.017,-24.162 -1.704,-3.248 -3.32,-6.662 -4.2,-10.194 -1.226,-4.923 0.77,-8.533 4.467,-9.565 4.654,-1.3 11.076,1.326 12.562,5.247 0.27,0.715 0.173,1.736 -0.121,2.468 -1.011,2.521 -2.115,5.012 -3.312,7.451 -1.593,3.247 -1.419,4.322 1.165,5.604 3.982,1.975 6.885,1.498 8.08,-1.526 0.545,-1.381 0.81,-2.966 0.801,-4.456 -0.037,-6.101 -0.178,-12.203 -0.385,-18.301 -0.117,-3.454 -1.066,-4.121 -4.499,-3.914 -1.922,0.115 -3.863,-0.127 -5.791,-0.074 -6.175,0.171 -12.381,0.085 -18.511,0.715 -4.782,0.49 -5.321,2.394 -4.066,7.007 1.048,3.849 1.459,7.905 1.832,11.899 0.875,9.375 5.627,16.82 11.513,23.689 3.308,3.861 3.53,7.861 0.265,11.719 -0.703,0.83 -1.478,1.599 -2.207,2.408 -4.527,5.028 -10.449,5.162 -15.436,0.434 -3.009,-2.852 -5.384,-5.947 -5.261,-10.386 0.052,-1.884 0.529,-3.204 2.477,-4.086 2.734,-1.238 2.887,-2.995 0.749,-5.015 -0.629,-0.595 -1.356,-1.093 -2.07,-1.588 -3.741,-2.591 -4.803,-1.97 -7.181,2.052 -3.906,6.609 -2.606,12.447 1.561,18.215 4.436,6.141 10.331,9.136 17.953,8.501 5.848,-0.488 9.622,-4.136 12.929,-8.503 5.486,-7.245 6.247,-7.292 12.633,-0.998 4.453,4.389 9.998,6.83 15.812,8.784 2.109,0.709 4.828,0.889 5.174,3.745 0.38,3.137 -0.29,5.89 -3.284,7.936 -7.326,5.007 -7.745,5.131 -14.512,-0.393 -2.774,-2.264 -5.848,-2.811 -9.18,-1.864 -1.658,0.472 -3.254,1.225 -4.807,1.994 -2.361,1.171 -4.584,1.242 -6.71,-0.461 -3.23,-2.587 -6.063,-1.613 -9.565,0.069 -5.947,2.857 -8.364,7.048 -8.598,13.525 -0.11,3.032 -1.969,6.123 -3.481,8.948 -1.564,2.923 -1.177,4.101 2.193,4.471 0.432,0.047 0.868,0.066 1.303,0.075 7.592,0.158 9.039,-1.28 8.978,-8.78 -0.021,-2.505 -10e-4,-5.017 0.166,-7.515 0.243,-3.64 1.865,-5.434 4.744,-5.499 3.315,-0.076 5.894,2.06 6.315,5.382 0.463,3.65 -0.689,6.85 -2.865,9.77 -1.09,1.462 -1.995,3.063 -3.12,4.813 4.473,2.808 8.968,2.594 13.446,1.45 2.167,-0.554 2.371,-2.417 1.37,-4.211 -0.683,-1.224 -1.674,-2.275 -2.521,-3.408 -2.424,-3.239 -2.776,-6.881 -1.501,-10.546 0.43,-1.234 1.822,-2.59 3.067,-3 5.608,-1.848 11.09,2.767 10.18,8.585 -0.535,3.421 -1.527,6.788 -2.538,10.111 -0.622,2.046 0.044,3.008 1.983,3.034 3.144,0.043 6.313,0.088 9.43,-0.248 2.696,-0.29 3.208,-1.591 2.062,-4.136 -0.31,-0.691 -0.759,-1.319 -1.138,-1.979 -2.294,-4.002 -0.822,-9.343 3.199,-11.611 3.632,-2.049 7.147,-0.507 7.915,3.589 0.799,4.262 -0.46,8.179 -2.278,11.98 -2.563,5.363 -1.991,6.411 4.052,6.495 C -7.205,3.855 -3.232,4.919 0,1.962 Z"
                   style="fill:#231f20;fill-opacity:1;fill-rule:nonzero;stroke:none"
                   id="path123" />
              </g>
              <g
                 transform="translate(115.5689,687.8775)"
                 id="g129">
                <path
                   d="m 0,0 c -0.382,4.641 1.934,8.441 3.601,12.45 0.503,1.21 0.701,2.659 0.63,3.977 -0.342,6.295 -0.978,12.53 2.418,18.408 2.915,5.046 7.639,6.361 12.447,5.924 3.602,-0.327 6.087,-7.783 3.525,-10.468 -0.724,-0.758 -2.309,-0.881 -3.512,-0.926 -0.788,-0.03 -1.583,0.653 -2.403,0.934 -3.557,1.22 -5.657,-0.104 -6.116,-3.823 -0.751,-6.075 1.893,-8.387 7.891,-6.555 2.465,0.753 3.717,-0.264 4.117,-2.231 0.348,-1.712 0.253,-3.703 -0.29,-5.358 C 21.702,10.485 20.435,9.666 18.335,11.31 15.297,13.69 12.768,13.344 10.459,10.242 8.992,8.273 7.942,5.932 7.021,3.63 6.036,1.166 7.188,-0.871 9.141,-2.373 c 1.976,-1.521 4.169,-1.874 6.344,-0.365 1.889,1.31 3.767,1.801 5.622,0.085 1.418,-1.312 1.791,-6.084 0.688,-8.1 -1.13,-2.066 -2.71,-2.791 -5.163,-2.204 -1.965,0.47 -4.094,0.4 -6.143,0.337 -6.292,-0.194 -8.143,1.066 -9.708,7.15 C 0.325,-3.697 0.25,-1.826 0,0"
                   style="fill:#231f20;fill-opacity:1;fill-rule:nonzero;stroke:none"
                   id="path127" />
              </g>
            </g>
          </g>
        </g>
      </g>
    </g>
  </g>
</svg>
