<?xml version="1.0" encoding="UTF-8" standalone="no"?>
<!-- Created with Inkscape (http://www.inkscape.org/) -->

<svg
   width="37.380302mm"
   height="49.064945mm"
   viewBox="0 0 37.380302 49.064945"
   version="1.1"
   id="svg228"
   inkscape:version="1.1 (c68e22c387, 2021-05-23)"
   sodipodi:docname="skabl.svg"
   xmlns:inkscape="http://www.inkscape.org/namespaces/inkscape"
   xmlns:sodipodi="http://sodipodi.sourceforge.net/DTD/sodipodi-0.dtd"
   xmlns="http://www.w3.org/2000/svg"
   xmlns:svg="http://www.w3.org/2000/svg">
  <sodipodi:namedview
     id="namedview230"
     pagecolor="#505050"
     bordercolor="#eeeeee"
     borderopacity="1"
     inkscape:pageshadow="0"
     inkscape:pageopacity="0"
     inkscape:pagecheckerboard="0"
     inkscape:document-units="mm"
     showgrid="false"
     inkscape:zoom="0.77771465"
     inkscape:cx="70.077117"
     inkscape:cy="93.221852"
     inkscape:window-width="1284"
     inkscape:window-height="1081"
     inkscape:window-x="1658"
     inkscape:window-y="264"
     inkscape:window-maximized="0"
     inkscape:current-layer="layer1" />
  <defs
     id="defs225">
    <clipPath
       clipPathUnits="userSpaceOnUse"
       id="clipPath135">
      <path
         d="M 0,841.89 H 595.276 V 0 H 0 Z"
         id="path133" />
    </clipPath>
  </defs>
  <g
     inkscape:label="Layer 1"
     inkscape:groupmode="layer"
     id="layer1"
     transform="translate(-86.263458,-123.96753)">
    <g
       id="g129"
       transform="matrix(0.35277777,0,0,-0.35277777,69.990642,410.99211)">
      <g
         id="g131"
         clip-path="url(#clipPath135)">
        <g
           id="g137"
           transform="translate(104.5261,736.7585)">
          <path
             d="m 0,0 c -4.18,0.442 -7.458,0.789 -11.047,1.168 -0.078,-1.462 -0.167,-2.527 -0.187,-3.594 -0.302,-15.867 -0.551,-31.736 -0.915,-47.602 -0.129,-5.604 -2.357,-8.423 -8.03,-8.856 -9.345,-0.713 -18.738,-1.038 -28.111,-1.033 -5.321,0.003 -9.132,4.214 -9.263,9.466 -0.069,2.764 0.155,5.602 0.741,8.3 0.807,3.709 3.897,4.94 7.279,5.201 3.488,0.268 3.797,-2.504 4.372,-5.006 2.218,-9.651 5.163,-11.982 15.252,-11.642 1.114,0.037 2.978,1.69 3.124,2.776 1.074,8 1.991,16.032 2.581,24.081 0.59,8.057 0.656,16.151 1.143,24.217 0.14,2.316 -0.92,2.882 -2.829,3.146 -6.369,0.881 -12.738,1.768 -19.089,2.763 -6.555,1.026 -11.631,5.76 -12.717,12.284 -0.613,3.686 -0.823,7.507 -0.637,11.239 0.278,5.592 4.373,8.508 10.234,7.782 5.072,-0.628 7.294,-4.052 6.377,-9.759 -0.33,-2.058 -0.82,-4.132 -0.802,-6.195 0.031,-3.492 2.202,-5.963 5.343,-6.693 1.783,-0.414 4.228,0.531 5.932,1.578 2.74,1.683 2.523,4.388 1.262,7.047 -0.119,0.251 -0.231,0.517 -0.282,0.787 -0.711,3.775 -2.381,7.714 1.09,10.996 2.284,2.16 9.433,2.218 12.714,-0.415 1.5,-1.204 2.152,-3.953 2.36,-6.081 0.141,-1.458 -0.992,-3.144 -1.826,-4.573 C -19.61,15.076 -17.006,10.493 -9.565,10.373 4.027,10.155 17.619,9.968 31.211,9.762 32.192,9.747 33.178,9.737 34.151,9.626 36.885,9.314 40.124,9.627 40.724,5.861 41.125,3.35 37.728,0.544 33.882,0.327 27.74,-0.02 21.582,-0.097 15.431,-0.312 13.92,-0.365 12.413,-0.508 10.808,-0.616 9.433,-11.728 9.027,-22.465 12.377,-33.053 c 2.303,-7.282 13.864,-10.166 20.091,-4.736 2.038,1.778 3.169,4.549 5.046,6.56 1.242,1.331 3.222,3.097 4.603,2.891 1.559,-0.234 3.871,-2.349 4.028,-3.838 0.819,-7.726 1.15,-15.511 1.413,-23.283 0.053,-1.558 -0.501,-3.563 -1.539,-4.617 -1.198,-1.216 -3.335,-2.327 -4.889,-2.128 -1.259,0.162 -2.551,2.187 -3.278,3.656 -0.576,1.162 -0.185,2.759 -0.456,4.117 -0.64,3.208 -2.373,5.3 -5.964,5.288 -5.748,-0.02 -11.497,-0.068 -17.244,-0.002 -3.469,0.04 -4.996,-1.022 -4.516,-4.935 0.616,-5.027 -4.832,-8.96 -9.532,-6.973 -1.382,0.585 -2.718,2.559 -3.015,4.098 -0.435,2.256 -0.54,4.947 0.303,7.011 4.135,10.124 2.677,20.61 2.582,31.026 C -0.046,-12.677 0,-6.435 0,0"
             style="fill:#231f20;fill-opacity:1;fill-rule:nonzero;stroke:none"
             id="path139" />
        </g>
        <g
           id="g141"
           transform="translate(139.4041,785.308)">
          <path
             d="m 0,0 c -0.049,-12.669 -6.74,-20.794 -17.216,-26.406 -1.608,-0.862 -3.811,-1.05 -5.674,-0.874 -1.408,0.132 -2.713,1.343 -4.064,2.073 0.978,1.175 1.732,2.98 2.972,3.417 5.763,2.032 9.448,6.04 12.676,11.026 3.94,6.088 3.877,22.488 -2.02,27.152 -4.762,3.766 -9.731,3.686 -15.065,2.18 -3.99,-1.126 -5.251,-4.355 -5.83,-7.932 -0.518,-3.197 0.36,-5.533 4.217,-5.658 2.629,-0.086 5.266,-1.104 4.659,-4.025 -0.465,-2.243 -2.207,-5.351 -4.086,-5.978 -7.773,-2.59 -16.203,1.328 -15.561,11.011 0.432,6.529 2.254,12.042 6.958,16.917 C -26.812,34.536 -6.52,25.647 -2.537,12.628 -1.287,8.542 -0.824,4.216 0,0"
             style="fill:#231f20;fill-opacity:1;fill-rule:nonzero;stroke:none"
             id="path143" />
        </g>
      </g>
    </g>
  </g>
</svg>
