<?xml version="1.0" encoding="UTF-8" standalone="no"?>
<!-- Created with Inkscape (http://www.inkscape.org/) -->

<svg
   width="39.922253mm"
   height="44.760124mm"
   viewBox="0 0 39.922253 44.760124"
   version="1.1"
   id="svg258"
   inkscape:version="1.1 (c68e22c387, 2021-05-23)"
   sodipodi:docname="skon.svg"
   xmlns:inkscape="http://www.inkscape.org/namespaces/inkscape"
   xmlns:sodipodi="http://sodipodi.sourceforge.net/DTD/sodipodi-0.dtd"
   xmlns="http://www.w3.org/2000/svg"
   xmlns:svg="http://www.w3.org/2000/svg">
  <sodipodi:namedview
     id="namedview260"
     pagecolor="#505050"
     bordercolor="#eeeeee"
     borderopacity="1"
     inkscape:pageshadow="0"
     inkscape:pageopacity="0"
     inkscape:pagecheckerboard="0"
     inkscape:document-units="mm"
     showgrid="false"
     inkscape:zoom="0.77771465"
     inkscape:cx="75.220391"
     inkscape:cy="84.221122"
     inkscape:window-width="1284"
     inkscape:window-height="1081"
     inkscape:window-x="1756"
     inkscape:window-y="236"
     inkscape:window-maximized="0"
     inkscape:current-layer="layer1" />
  <defs
     id="defs255">
    <clipPath
       clipPathUnits="userSpaceOnUse"
       id="clipPath117">
      <path
         d="M 0,841.89 H 595.276 V 0 H 0 Z"
         id="path115" />
    </clipPath>
  </defs>
  <g
     inkscape:label="Layer 1"
     inkscape:groupmode="layer"
     id="layer1"
     transform="translate(-84.992481,-126.11994)">
    <g
       id="g111"
       transform="matrix(0.35277777,0,0,-0.35277777,13.11132,307.39895)">
      <g
         id="g113"
         clip-path="url(#clipPath117)">
        <g
           id="g119"
           transform="translate(269.0946,503.6237)">
          <path
             d="m 0,0 c 10.587,10.517 22.41,8.664 34.464,3.985 4.332,-1.681 7.071,-5.176 8.613,-9.364 3.426,-9.304 5.606,-18.829 4.43,-28.886 -1.001,-8.564 -5.343,-14.929 -12.44,-19.57 -3.26,-2.131 -6.039,-4.309 -5.965,-8.843 0.046,-2.798 -1.477,-5.047 -4.804,-5.241 -3.146,-0.184 -5.874,1.558 -6.581,4.4 -0.752,3.028 0.099,5.439 3.084,6.828 10.885,5.064 14.914,14.574 16.685,25.535 1.177,7.287 0.012,14.304 -2.274,21.258 C 32.121,-0.496 24.594,3.907 15.172,1.574 9.176,0.089 6.01,-4.297 5.217,-10.47 c -1.051,-8.187 1.844,-15.255 5.107,-22.353 0.568,-1.236 1.48,-2.682 1.24,-3.824 -0.288,-1.37 -1.523,-3.465 -2.556,-3.593 -4.062,-0.507 -8.226,-0.648 -12.311,-0.358 -2.473,0.175 -2.646,2.624 -1.723,4.299 4.977,9.026 1.697,17.702 -1.366,26.132 -1.347,3.705 -4.247,7.053 -7.079,9.944 -1.786,1.823 -4.728,3.455 -7.194,3.519 -8.422,0.219 -18.644,-2.504 -23.192,-11.188 -3.256,-6.218 -2.706,-18.997 1.627,-24.295 1.054,-1.289 2.831,-1.972 3.991,-3.2 10.915,-11.557 22.571,-22.576 30.158,-36.76 2.08,-3.889 2.564,-8.647 3.622,-13.045 0.475,-1.973 0.752,-4.035 0.788,-6.063 0.221,-12.381 -9.978,-23.341 -23.05,-24.754 -3.536,-0.383 -7.106,-0.635 -10.659,-0.632 -9.214,0.009 -16.344,4.044 -21.331,11.691 -1.682,2.579 -3.075,5.373 -4.351,8.181 -7.034,15.47 3.51,30.478 14.365,34.82 5.843,2.337 12.974,1.811 16.564,-4.674 0.55,-0.993 1.271,-1.921 2.046,-2.757 4.051,-4.365 3.678,-8.975 1.151,-13.937 -0.688,-1.351 -0.317,-3.199 -0.745,-4.732 -0.406,-1.456 -0.865,-3.553 -1.924,-4.05 -3.231,-1.516 -6.728,-2.163 -10.334,-0.691 -3.482,1.422 -4.212,4.761 -1.38,7.178 0.598,0.512 1.323,0.931 2.057,1.222 6.478,2.575 7.419,4.128 6.393,10.709 -0.694,4.453 -4.465,7.826 -8.994,8.047 -4.571,0.223 -8.85,-3.193 -10.418,-7.95 -1.587,-4.813 -0.616,-9.471 0.39,-14.158 2.625,-12.224 10.85,-19.336 22.205,-22.988 7.256,-2.333 14.706,2.495 16.13,10 3.729,19.658 -2.292,36.337 -16.331,50.25 -6.641,6.582 -15.048,11.372 -20.23,19.431 -1.693,2.633 -3.684,5.462 -4.159,8.421 -2.144,13.335 4.913,24.325 17.865,28.22 5.485,1.65 11.068,3.119 16.708,4.087 C -12.228,11.307 -4.593,9.753 0,0"
             style="fill:#231f20;fill-opacity:1;fill-rule:nonzero;stroke:none"
             id="path121" />
        </g>
        <g
           id="g123"
           transform="translate(239.6569,480.9171)">
          <path
             d="M 0,0 C 0.204,3.398 2.433,5.318 5.901,5.085 9.58,4.838 11.476,2.995 11.266,-0.132 11.08,-2.902 7.498,-5.62 4.313,-5.408 1.436,-5.216 -0.191,-3.176 0,0"
             style="fill:#231f20;fill-opacity:1;fill-rule:nonzero;stroke:none"
             id="path125" />
        </g>
        <g
           id="g127"
           transform="translate(290.5215,426.8831)">
          <path
             d="m 0,0 c 2.653,-0.027 4.457,-2.103 4.403,-5.067 -0.07,-3.833 -2.402,-6.658 -5.507,-6.671 -3.054,-0.013 -4.634,1.616 -4.559,4.701 C -5.57,-3.232 -2.945,0.03 0,0"
             style="fill:#231f20;fill-opacity:1;fill-rule:nonzero;stroke:none"
             id="path129" />
        </g>
      </g>
    </g>
  </g>
</svg>
