<?xml version="1.0" encoding="UTF-8" standalone="no"?>
<!-- Created with Inkscape (http://www.inkscape.org/) -->

<svg
   width="109.01022"
   height="158.10483"
   viewBox="0 0 28.842285 41.831903"
   version="1.1"
   id="svg346"
   inkscape:version="1.1 (c68e22c387, 2021-05-23)"
   sodipodi:docname="skye.svg"
   xmlns:inkscape="http://www.inkscape.org/namespaces/inkscape"
   xmlns:sodipodi="http://sodipodi.sourceforge.net/DTD/sodipodi-0.dtd"
   xmlns="http://www.w3.org/2000/svg"
   xmlns:svg="http://www.w3.org/2000/svg">
  <sodipodi:namedview
     id="namedview348"
     pagecolor="#ffffff"
     bordercolor="#666666"
     borderopacity="1.0"
     inkscape:pageshadow="2"
     inkscape:pageopacity="0.0"
     inkscape:pagecheckerboard="0"
     inkscape:document-units="mm"
     showgrid="false"
     units="px"
     fit-margin-top="0"
     fit-margin-left="0"
     fit-margin-right="0"
     fit-margin-bottom="0"
     inkscape:zoom="0.77771465"
     inkscape:cx="-129.22477"
     inkscape:cy="463.53762"
     inkscape:window-width="1284"
     inkscape:window-height="1081"
     inkscape:window-x="1841"
     inkscape:window-y="162"
     inkscape:window-maximized="0"
     inkscape:current-layer="layer1" />
  <defs
     id="defs343">
    <clipPath
       clipPathUnits="userSpaceOnUse"
       id="clipPath135">
      <path
         d="M 0,841.89 H 595.276 V 0 H 0 Z"
         id="path133" />
    </clipPath>
  </defs>
  <g
     inkscape:label="Layer 1"
     inkscape:groupmode="layer"
     id="layer1"
     transform="translate(-41.372672,-25.692298)">
    <g
       id="g129"
       transform="matrix(0.35277777,0,0,-0.35277777,-41.977837,308.39393)">
      <g
         id="g131"
         clip-path="url(#clipPath135)">
        <g
           id="g137"
           transform="translate(265.7955,773.5911)">
          <path
             d="m 0,0 c -3.396,0 -6.801,-0.159 -10.185,0.042 -3.771,0.224 -6.234,2.021 -6.966,6.087 -0.847,4.712 -2.098,9.354 -3.22,14.015 -0.725,3.013 0.701,4.212 3.501,4.27 2.83,0.059 5.683,0.283 8.484,0.007 2.054,-0.203 4.039,-1.097 6.055,-1.683 -0.637,-1.809 -1.193,-3.654 -1.948,-5.412 -0.32,-0.744 -1.194,-1.237 -1.58,-1.969 -0.728,-1.381 -1.284,-2.852 -1.912,-4.286 2.03,-0.6 4.031,-1.539 6.097,-1.715 2.605,-0.221 3.164,1.817 3.181,3.993 0.002,0.283 0.014,0.566 0.039,0.848 0.923,10.507 1.895,11.379 12.258,10.196 1.444,-0.165 3.509,-1.039 3.958,-2.131 0.495,-1.203 -0.239,-3.209 -1.004,-4.541 -0.654,-1.138 -2.169,-1.751 -3.199,-2.709 -3.089,-2.873 -3.101,-4.908 -0.134,-7.674 5.487,-5.114 20.203,-3.846 24.979,2.159 2.003,2.517 2.649,4.963 -0.267,7.349 -2.584,2.115 -5.973,4.005 -3.704,8.23 1.373,2.558 6.645,3.428 10.938,2.022 C 50.748,25.336 53.1,21.559 51.943,16.084 51.302,13.054 50.408,10.057 49.374,7.136 47.626,2.2 44.365,-0.609 38.809,-1.222 28.77,-2.329 27.717,-3.856 27.787,-14.232 c 0.023,-3.38 0.395,-6.808 -0.043,-10.128 -0.49,-3.705 -3.455,-5.174 -5.969,-2.711 -5.199,5.096 -11.149,6.431 -17.882,5.101 -6.854,-1.353 -11.601,-6.206 -15.162,-11.566 -6.243,-9.397 -10.356,-19.619 -5.303,-31.089 7.156,-16.241 27.11,-19.024 38.224,-5.513 5.325,6.472 4.59,13.765 2.989,20.96 -0.827,3.72 -4.157,6.326 -8.15,6.36 -1.881,0.016 -3.778,-1.848 -5.668,-2.859 0.92,-1.106 1.772,-2.276 2.771,-3.305 2.652,-2.734 2.47,-6.741 -1.082,-8.293 -2.285,-0.999 -5.964,-1.354 -7.814,-0.15 -2.221,1.445 -4.317,4.805 -4.425,7.421 -0.259,6.246 2.527,11.631 8.218,14.769 5.246,2.892 10.975,3.222 16.175,0.127 6.652,-3.959 10.898,-9.65 10.778,-17.937 -0.121,-8.355 -2.138,-16.303 -5.697,-23.695 -5.014,-10.413 -18.96,-16.25 -30.242,-13.312 -1.366,0.356 -2.745,0.679 -4.087,1.115 -15.502,5.039 -24.417,17.825 -24.909,34.291 -0.363,12.111 1.996,22.931 10.554,32.007 3.02,3.203 6.245,5.554 10.675,6.335 6.395,1.127 12.738,2.547 19.108,3.815 5.329,1.062 6.382,2.186 6.168,6.255 -0.233,4.426 -3.151,5.701 -6.852,5.886 C 6.782,-0.179 3.388,-0.312 0,-0.312 0,-0.208 0,-0.104 0,0"
             style="fill:#231f20;fill-opacity:1;fill-rule:nonzero;stroke:none"
             id="path139" />
        </g>
      </g>
    </g>
  </g>
</svg>
