<?xml version="1.0" encoding="UTF-8" standalone="no"?>
<!-- Created with Inkscape (http://www.inkscape.org/) -->

<svg
   width="28.602692mm"
   height="44.575626mm"
   viewBox="0 0 28.602692 44.575626"
   version="1.1"
   id="svg450"
   inkscape:version="1.1 (c68e22c387, 2021-05-23)"
   sodipodi:docname="stig.svg"
   xmlns:inkscape="http://www.inkscape.org/namespaces/inkscape"
   xmlns:sodipodi="http://sodipodi.sourceforge.net/DTD/sodipodi-0.dtd"
   xmlns="http://www.w3.org/2000/svg"
   xmlns:svg="http://www.w3.org/2000/svg">
  <sodipodi:namedview
     id="namedview452"
     pagecolor="#505050"
     bordercolor="#eeeeee"
     borderopacity="1"
     inkscape:pageshadow="0"
     inkscape:pageopacity="0"
     inkscape:pagecheckerboard="0"
     inkscape:document-units="mm"
     showgrid="false"
     inkscape:zoom="0.77771465"
     inkscape:cx="54.647293"
     inkscape:cy="84.221122"
     inkscape:window-width="1284"
     inkscape:window-height="1081"
     inkscape:window-x="1940"
     inkscape:window-y="206"
     inkscape:window-maximized="0"
     inkscape:current-layer="layer1" />
  <defs
     id="defs447">
    <clipPath
       clipPathUnits="userSpaceOnUse"
       id="clipPath53">
      <path
         d="M 0,841.89 H 595.276 V 0 H 0 Z"
         id="path51" />
    </clipPath>
  </defs>
  <g
     inkscape:label="Layer 1"
     inkscape:groupmode="layer"
     id="layer1"
     transform="translate(-90.652263,-126.21219)">
    <g
       id="g47"
       transform="matrix(0.35277777,0,0,-0.35277777,74.379716,295.60459)">
      <g
         id="g49"
         clip-path="url(#clipPath53)">
        <g
           id="g55"
           transform="translate(120.3393,385.3769)">
          <path
             d="m 0,0 c 0.113,-14.757 -6.647,-23.774 -20.683,-28.288 -9.059,-2.914 -18.149,-4.872 -27.408,-1.508 -3.872,1.407 -7.688,3.399 -10.972,5.866 -3.122,2.345 -5.626,5.563 -8.207,8.564 -5.881,6.839 -8.583,14.651 -5.907,23.554 3.248,10.804 5.862,21.945 12.453,31.379 7.086,10.142 16.485,17.813 27.318,23.692 6.215,3.373 12.612,6.409 18.878,9.69 2.581,1.352 4.885,3.096 4.446,6.524 -0.475,3.709 -3.405,5.108 -6.407,5.98 -7.315,2.124 -13.209,-3.051 -12.331,-10.616 0.743,-6.409 0.251,-7.241 -4.547,-7.685 -8.6,-0.796 -10.207,0.192 -10.64,6.596 -0.077,1.127 0.038,2.266 -0.03,3.394 -0.156,2.579 -0.153,5.549 -3.888,5.203 -3.774,-0.349 -2.949,-3.529 -2.959,-5.933 -0.007,-1.677 0.419,-3.355 0.634,-5.035 0.306,-2.398 -0.761,-3.958 -3.148,-4.063 -3.381,-0.15 -6.816,-0.237 -10.14,0.249 -0.955,0.139 -2.581,2.772 -2.245,3.53 2.382,5.379 4.482,11.124 8.05,15.675 4.36,5.563 11.473,5.854 17.409,1.494 2.518,-1.849 3.923,-1.974 6.515,-0.171 3.203,2.227 6.926,3.82 10.597,5.244 C -12.723,97.406 -3.315,92.7 0.314,82.184 1.27,79.412 3.459,77.055 5.133,74.542 8.24,69.877 7.212,66.645 1.705,65.121 -3.192,63.766 -8.245,62.984 -13.193,61.8 -21.385,59.84 -28.394,55.924 -34.013,49.482 -37.914,45.01 -42.261,40.931 -46.303,36.579 -54.414,27.846 -58.28,17.544 -57.267,5.6 c 1.666,-19.643 21.357,-29.585 37.983,-19.087 2.289,1.445 4.719,3.624 5.689,6.025 3.451,8.55 3.404,17.187 -2.101,25.01 -3.698,5.253 -8.057,6.09 -15.082,3.712 -5.962,-2.018 -11.208,-7.797 -10.944,-12.723 0.089,-1.676 1.654,-3.275 2.545,-4.909 1.568,0.948 3.145,1.881 4.691,2.863 0.197,0.125 0.237,0.501 0.343,0.763 0.773,1.896 0.522,5.098 3.836,4.227 3.694,-0.971 6.055,-6.221 4.594,-9.572 -2.124,-4.872 -6.212,-7.306 -11.255,-7.876 -5.121,-0.579 -11.216,3.536 -13.553,8.617 -3.723,8.093 -1.326,17.812 6.505,23.337 7.715,5.443 16.476,7.462 25.799,4.843 C -7.391,27.79 -2.04,20.844 -0.036,5.935 0.226,3.99 0,1.98 0,0"
             style="fill:#231f20;fill-opacity:1;fill-rule:nonzero;stroke:none"
             id="path57" />
        </g>
        <g
           id="g59"
           transform="translate(97.2219,427.6268)">
          <path
             d="m 0,0 c 0.089,-4.196 -2.037,-6.712 -5.777,-6.523 -3.272,0.165 -5.095,1.859 -5.017,5.365 0.09,4.07 3.048,7.45 6.508,7.235 C -1.476,5.903 -0.083,3.928 0,0"
             style="fill:#231f20;fill-opacity:1;fill-rule:nonzero;stroke:none"
             id="path61" />
        </g>
      </g>
    </g>
  </g>
</svg>
