<?xml version="1.0" encoding="UTF-8" standalone="no"?>
<!-- Created with Inkscape (http://www.inkscape.org/) -->

<svg
   width="34.447212mm"
   height="40.361465mm"
   viewBox="0 0 34.447212 40.361465"
   version="1.1"
   id="svg1138"
   inkscape:version="1.1 (c68e22c387, 2021-05-23)"
   sodipodi:docname="tid.svg"
   xmlns:inkscape="http://www.inkscape.org/namespaces/inkscape"
   xmlns:sodipodi="http://sodipodi.sourceforge.net/DTD/sodipodi-0.dtd"
   xmlns="http://www.w3.org/2000/svg"
   xmlns:svg="http://www.w3.org/2000/svg">
  <sodipodi:namedview
     id="namedview1140"
     pagecolor="#505050"
     bordercolor="#eeeeee"
     borderopacity="1"
     inkscape:pageshadow="0"
     inkscape:pageopacity="0"
     inkscape:pagecheckerboard="0"
     inkscape:document-units="mm"
     showgrid="false"
     inkscape:zoom="0.77771465"
     inkscape:cx="64.933842"
     inkscape:cy="76.50621"
     inkscape:window-width="1284"
     inkscape:window-height="1081"
     inkscape:window-x="1722"
     inkscape:window-y="256"
     inkscape:window-maximized="0"
     inkscape:current-layer="layer1" />
  <defs
     id="defs1135">
    <clipPath
       clipPathUnits="userSpaceOnUse"
       id="clipPath275">
      <path
         d="M 0,841.89 H 595.276 V 0 H 0 Z"
         id="path273" />
    </clipPath>
  </defs>
  <g
     inkscape:label="Layer 1"
     inkscape:groupmode="layer"
     id="layer1"
     transform="translate(-87.730002,-128.31927)">
    <g
       id="g269"
       transform="matrix(0.35277777,0,0,-0.35277777,-63.799601,218.96547)">
      <g
         id="g271"
         clip-path="url(#clipPath275)">
        <g
           id="g277"
           transform="translate(475.2516,184.5205)">
          <path
             d="m 0,0 c -7.753,-0.316 -15.46,-0.519 -23.15,-0.985 -4.39,-0.266 -4.566,-0.611 -4.975,-4.868 -0.191,-1.994 -1.187,-3.566 -3.134,-3.258 -1.029,0.162 -2.473,1.865 -2.581,2.983 -0.548,5.652 -0.8,11.338 -0.966,17.017 -0.045,1.521 0.124,3.441 2.367,3.575 2.025,0.121 2.742,-1.348 3.177,-3.009 0.109,-0.414 0.157,-0.844 0.254,-1.262 1.032,-4.445 1.11,-4.499 5.801,-4.214 7.264,0.441 14.529,0.876 21.792,1.328 0.405,0.025 0.803,0.175 1.784,0.399 0,11.43 0.037,22.875 -0.07,34.317 -0.009,0.926 -0.842,2.021 -1.589,2.72 -1.161,1.085 -2.577,1.898 -4.156,3.018 -4.738,-6.575 -10.687,-6.754 -17.532,-2.344 -2.408,-5.234 -6.942,-5.088 -11.545,-4.496 -4.31,0.555 -7.222,3.412 -8.056,7.637 -0.953,4.824 -1.857,9.657 -2.843,14.474 -0.427,2.086 -0.666,4.095 1.26,5.583 1.323,1.021 6.407,0.896 7.764,-0.13 1.402,-1.061 1.309,-2.387 1.033,-4.023 -0.743,-4.406 -1.449,-8.847 -1.689,-13.3 -0.205,-3.818 4.409,-6.45 7.804,-4.587 0.873,0.479 1.687,1.8 1.796,2.813 0.467,4.339 0.667,8.707 0.945,13.066 0.027,0.423 -0.08,0.854 -0.116,1.282 -0.149,1.74 -0.416,3.904 1.548,4.449 1.812,0.503 4.014,0.323 5.853,-0.215 1.611,-0.472 1.726,-2.191 1.29,-3.836 -0.958,-3.608 -1.839,-7.236 -2.678,-10.873 -0.131,-0.568 0.004,-1.273 0.226,-1.831 0.855,-2.152 3.531,-3.683 6.019,-3.482 2.498,0.201 3.851,1.786 4.397,4.044 0.992,4.106 1.509,8.233 -0.082,12.349 -0.303,0.784 -0.447,1.659 -0.508,2.503 -0.139,1.929 0.215,3.66 2.263,4.523 1.872,0.79 5.22,0.368 6.419,-0.835 1.481,-1.483 1.032,-3.173 0.401,-4.803 -1.569,-4.056 -1.796,-8.151 -0.45,-12.289 1.194,-3.673 4.627,-4.853 6.829,-2.313 0.646,0.745 1.005,1.89 1.141,2.9 0.37,2.745 0.674,5.513 0.74,8.279 0.023,0.97 -0.713,1.962 -1.119,2.938 -0.651,1.562 -0.981,3.097 0.353,4.494 1.136,1.189 5.189,1.955 6.709,1.224 1.679,-0.807 2.17,-2.301 2.06,-4.024 -0.143,-2.249 -0.592,-4.504 -0.485,-6.736 0.1,-2.095 0.488,-4.264 1.231,-6.216 0.829,-2.175 2.392,-3.847 5.132,-3.543 2.299,0.255 4.398,1.848 4.723,4.588 0.438,3.68 0.49,7.452 0.25,11.155 -0.204,3.136 0.294,4.922 2.69,5.827 1.729,0.654 3.456,0.666 4.695,-0.907 1.258,-1.598 1.996,-3.569 0.623,-5.335 -3.515,-4.523 -2.463,-8.799 0.344,-13.064 1.371,-2.083 3.75,-2.634 5.86,-1.471 3.524,1.944 5.953,7.175 4.903,11.057 -0.346,1.278 -1.248,2.451 -2.065,3.545 -1.352,1.811 -1.293,3.037 0.617,4.211 1.872,1.151 3.972,1.932 6.104,0.917 2.101,-1.001 2.579,-3.105 2.513,-5.209 C 51.757,60.45 50.692,55.247 48.137,50.622 43.848,42.86 35.74,42.303 29.118,49.167 26.563,46.693 23.737,44.696 19.931,44.764 16.134,44.832 13.566,46.972 11.427,49.828 9.95,48.422 8.538,47.192 7.28,45.821 6.759,45.254 6.276,44.383 6.275,43.65 6.264,31.886 4.844,20.089 7.038,8.375 7.076,8.172 7.187,7.982 7.469,7.263 10.407,7.193 13.57,7.093 16.733,7.045 26.162,6.904 35.59,6.788 45.018,6.641 45.654,6.631 46.298,6.495 46.917,6.335 48.662,5.884 49.888,4.889 49.583,2.929 49.271,0.925 47.744,0.479 45.966,0.591 43.507,0.747 41.047,1.071 38.59,1.054 28.977,0.987 19.364,0.819 9.752,0.667 9.123,0.657 8.496,0.47 7.66,0.331 c 0,-3.008 -0.128,-5.969 0.029,-8.915 0.241,-4.494 0.633,-8.982 1.048,-13.464 0.386,-4.163 0.802,-8.327 1.408,-12.461 0.131,-0.888 1.036,-1.752 1.757,-2.446 2.052,-1.973 1.698,-3.889 -0.974,-4.795 -0.304,-0.103 -0.623,-0.235 -0.934,-0.231 -5.217,0.066 -10.436,0.086 -15.647,0.308 -0.738,0.032 -1.922,0.995 -2.025,1.663 -0.133,0.865 0.364,2.137 1.033,2.746 1.083,0.987 2.674,1.41 3.777,2.382 1.127,0.993 2.718,2.344 2.743,3.567 C 0.093,-20.935 0,-10.547 0,0"
             style="fill:#231f20;fill-opacity:1;fill-rule:nonzero;stroke:none"
             id="path279" />
        </g>
        <g
           id="g281"
           transform="translate(496.2912,211.5106)">
          <path
             d="m 0,0 c 0.847,1.496 1.36,3.488 2.635,4.35 1.284,0.868 3.467,1.136 5,0.719 C 9.624,4.529 9.838,2.397 9.579,0.5 9.451,-0.436 9.192,-1.39 8.796,-2.245 7.765,-4.468 5.607,-5.656 3.685,-5.186 1.605,-4.678 0.505,-2.985 0,0"
             style="fill:#231f20;fill-opacity:1;fill-rule:nonzero;stroke:none"
             id="path283" />
        </g>
        <g
           id="g285"
           transform="translate(494.944,166.1785)">
          <path
             d="M 0,0 C 0.019,3.054 1.45,4.914 3.831,4.978 6.265,5.044 8.003,3.125 8.038,0.334 8.076,-2.714 6.429,-4.765 3.941,-4.768 1.419,-4.772 -0.019,-3.032 0,0"
             style="fill:#231f20;fill-opacity:1;fill-rule:nonzero;stroke:none"
             id="path287" />
        </g>
        <g
           id="g289"
           transform="translate(460.9616,163.1675)">
          <path
             d="m 0,0 c 0.041,-3.416 -2.36,-5.713 -5.092,-4.872 -1.944,0.598 -3.339,3.915 -2.749,6.535 0.481,2.131 2.145,3.409 4.136,3.177 C -1.486,4.581 -0.032,2.681 0,0"
             style="fill:#231f20;fill-opacity:1;fill-rule:nonzero;stroke:none"
             id="path291" />
        </g>
        <g
           id="g293"
           transform="translate(461.0042,212.7237)">
          <path
             d="m 0,0 c -0.032,-2.488 -1.861,-4.494 -4.074,-4.466 -2.141,0.027 -3.935,1.979 -3.901,4.244 0.036,2.332 1.993,4.401 4.19,4.43 C -1.51,4.238 0.033,2.523 0,0"
             style="fill:#231f20;fill-opacity:1;fill-rule:nonzero;stroke:none"
             id="path295" />
        </g>
      </g>
    </g>
  </g>
</svg>
