<?xml version="1.0" encoding="UTF-8" standalone="no"?>
<!-- Created with Inkscape (http://www.inkscape.org/) -->

<svg
   width="125.05124"
   height="148.84857"
   viewBox="0 0 33.08647 39.382852"
   version="1.1"
   id="svg346"
   inkscape:version="1.1 (c68e22c387, 2021-05-23)"
   sodipodi:docname="uld.svg"
   xmlns:inkscape="http://www.inkscape.org/namespaces/inkscape"
   xmlns:sodipodi="http://sodipodi.sourceforge.net/DTD/sodipodi-0.dtd"
   xmlns="http://www.w3.org/2000/svg"
   xmlns:svg="http://www.w3.org/2000/svg">
  <sodipodi:namedview
     id="namedview348"
     pagecolor="#ffffff"
     bordercolor="#666666"
     borderopacity="1.0"
     inkscape:pageshadow="2"
     inkscape:pageopacity="0.0"
     inkscape:pagecheckerboard="0"
     inkscape:document-units="mm"
     showgrid="false"
     units="px"
     fit-margin-top="0"
     fit-margin-left="0"
     fit-margin-right="0"
     fit-margin-bottom="0"
     inkscape:zoom="0.77771465"
     inkscape:cx="58.504749"
     inkscape:cy="88.078578"
     inkscape:window-width="1284"
     inkscape:window-height="1081"
     inkscape:window-x="1841"
     inkscape:window-y="162"
     inkscape:window-maximized="0"
     inkscape:current-layer="layer1" />
  <defs
     id="defs343">
    <clipPath
       clipPathUnits="userSpaceOnUse"
       id="clipPath135">
      <path
         d="M 0,841.89 H 595.276 V 0 H 0 Z"
         id="path133" />
    </clipPath>
    <clipPath
       clipPathUnits="userSpaceOnUse"
       id="clipPath155">
      <path
         d="M 0,841.89 H 595.276 V 0 H 0 Z"
         id="path153" />
    </clipPath>
  </defs>
  <g
     inkscape:label="Layer 1"
     inkscape:groupmode="layer"
     id="layer1"
     transform="translate(9.36129,-128.6452)">
    <g
       id="g149"
       transform="matrix(0.35277777,0,0,-0.35277777,-161.73123,408.11723)">
      <g
         id="g151"
         clip-path="url(#clipPath155)">
        <g
           id="g157"
           transform="translate(496.5123,680.6469)">
          <path
             d="m 0,0 c -7.542,0 -15.086,-0.081 -22.627,0.026 -5.927,0.084 -7.864,2.036 -7.19,7.897 0.342,2.97 -0.02,4.999 -2.052,7.406 -10.582,12.536 -8.048,36.208 4.714,46.341 1.379,1.095 2.931,2 4.183,3.218 1.142,1.111 1.984,2.528 2.959,3.81 -1.621,0.421 -3.221,0.987 -4.868,1.224 -1.978,0.285 -4.113,-0.063 -5.957,0.541 -1.174,0.385 -2.743,2.039 -2.698,3.06 0.063,1.432 1.15,3.306 2.375,4.069 1.358,0.846 3.362,0.871 5.087,0.879 12.585,0.056 25.172,0.082 37.756,-0.04 2.808,-0.027 6.543,0.814 6.956,-3.682 0.269,-2.935 -1.694,-4.077 -7.263,-4.299 -18.252,-0.728 -30.203,-11.288 -39.066,-25.816 -5.675,-9.302 -0.444,-24.341 9.274,-29.414 4.319,-2.254 8.731,-2.014 13.144,-0.345 9.899,3.742 18.056,20.031 11.079,31.859 -3.225,5.468 -9.61,6.587 -13.905,2.248 -2.032,-2.054 -2.834,-4.17 -0.215,-6.412 0.95,-0.813 2.275,-1.55 2.636,-2.594 0.418,-1.208 0.331,-2.917 -0.264,-4.015 -0.323,-0.595 -2.45,-0.883 -3.265,-0.426 -3.784,2.125 -7.485,4.777 -8.081,9.371 -0.599,4.627 2.065,8.238 5.724,10.778 6.684,4.641 14.086,5.541 21.503,2.289 7.765,-3.404 10.507,-10.711 11.438,-18.311 1.051,-8.575 -0.835,-16.988 -4.453,-24.866 -1.215,-2.644 -0.684,-3.668 2.111,-3.931 2.227,-0.21 4.536,-0.308 6.627,-1.001 C 28.364,8.97 29.443,6.68 29.142,3.867 28.82,0.854 26.496,0.456 24.158,0.437 16.106,0.372 8.052,0.412 -0.001,0.412 0,0.275 0,0.137 0,0"
             style="fill:#231f20;fill-opacity:1;fill-rule:nonzero;stroke:none"
             id="path159" />
        </g>
        <g
           id="g161"
           transform="translate(431.9148,710.9771)">
          <path
             d="m 0,0 c 1.738,6.77 3.207,13.623 5.271,20.293 4.352,14.069 12.227,26.416 19.674,38.958 1.151,1.939 2.366,3.892 3.112,5.993 0.338,0.951 -0.034,2.717 -0.752,3.323 -0.747,0.631 -2.433,0.695 -3.478,0.336 -4.46,-1.531 -4.398,-5.631 -4.935,-9.333 -0.301,-2.083 -0.314,-5.898 -0.871,-5.976 -3.367,-0.47 -6.886,-0.307 -10.277,0.179 -0.76,0.109 -1.808,2.395 -1.714,3.6 0.592,7.503 9.615,17.821 17.352,20.186 5.415,1.656 10.667,-1.004 12.452,-6.428 0.706,-2.145 0.904,-4.475 1.755,-6.549 0.738,-1.801 1.798,-3.65 3.198,-4.966 2.829,-2.659 6.477,-2.518 8.779,-0.066 2.048,2.181 2.135,6.558 0.124,9.041 -0.466,0.576 -1.088,1.042 -1.693,1.486 -1.982,1.455 -5.17,2.879 -3.677,5.564 0.76,1.366 4.365,1.259 6.716,1.596 1.478,0.211 3.019,-0.06 4.525,0.01 2.893,0.135 4.038,-1.261 4.102,-4.066 0.057,-2.501 0.355,-5.006 0.7,-7.488 0.581,-4.182 2.51,-6.214 6.015,-6.557 3.403,-0.332 7.819,1.97 8.832,4.603 1.181,3.072 0.286,7.874 -2.25,9.539 -2.387,1.566 -5.454,3.102 -4.097,6.092 0.617,1.358 4.359,1.73 6.706,1.8 C 87.226,81.516 87.842,80.609 84.48,69.324 84.049,67.88 83.596,66.442 83.147,65.002 80,54.904 72.363,50.328 62.158,53.604 56.249,55.5 51.192,55.545 45.59,52.955 43.42,51.951 40.109,52.227 37.75,53.093 34.246,54.379 31.956,53.483 29.796,50.93 28.988,49.974 27.909,49.176 27.335,48.102 20.717,35.705 13.259,23.64 11.984,9.123 11.55,4.185 10.143,-0.506 11.465,-5.732 c 1.948,-7.706 4.579,-13.807 13.799,-14.328 2.487,-0.141 5.033,-1.325 4.911,-4.652 -0.11,-3.033 -2.536,-5.285 -6.053,-5.563 -1.489,-0.117 -3.249,-0.338 -4.464,0.296 -3.509,1.829 -7.753,3.349 -9.99,6.293 C 4.506,-16.893 0.035,-9.449 0,0"
             style="fill:#231f20;fill-opacity:1;fill-rule:nonzero;stroke:none"
             id="path163" />
        </g>
        <g
           id="g165"
           transform="translate(489.1658,706.3575)">
          <path
             d="m 0,0 c 0.046,-3.288 -2.874,-6.007 -6.276,-5.797 -3.126,0.192 -4.181,2.305 -4.34,5.008 -0.19,3.215 2.906,6.555 5.834,6.471 C -2.29,5.61 -0.041,2.937 0,0"
             style="fill:#231f20;fill-opacity:1;fill-rule:nonzero;stroke:none"
             id="path167" />
        </g>
      </g>
    </g>
  </g>
</svg>
