<?xml version="1.0" encoding="UTF-8" standalone="no"?>
<!-- Created with Inkscape (http://www.inkscape.org/) -->

<svg
   width="30.32629mm"
   height="40.193394mm"
   viewBox="0 0 30.32629 40.193394"
   version="1.1"
   id="svg494"
   inkscape:version="1.1 (c68e22c387, 2021-05-23)"
   sodipodi:docname="uven.svg"
   xmlns:inkscape="http://www.inkscape.org/namespaces/inkscape"
   xmlns:sodipodi="http://sodipodi.sourceforge.net/DTD/sodipodi-0.dtd"
   xmlns="http://www.w3.org/2000/svg"
   xmlns:svg="http://www.w3.org/2000/svg">
  <sodipodi:namedview
     id="namedview496"
     pagecolor="#505050"
     bordercolor="#eeeeee"
     borderopacity="1"
     inkscape:pageshadow="0"
     inkscape:pageopacity="0"
     inkscape:pagecheckerboard="0"
     inkscape:document-units="mm"
     showgrid="false"
     inkscape:zoom="0.77771465"
     inkscape:cx="167.79933"
     inkscape:cy="435.24961"
     inkscape:window-width="3440"
     inkscape:window-height="1377"
     inkscape:window-x="-8"
     inkscape:window-y="-8"
     inkscape:window-maximized="1"
     inkscape:current-layer="layer1" />
  <defs
     id="defs491">
    <clipPath
       clipPathUnits="userSpaceOnUse"
       id="clipPath121">
      <path
         d="M 0,841.89 H 595.276 V 0 H 0 Z"
         id="path119" />
    </clipPath>
  </defs>
  <g
     inkscape:label="Layer 1"
     inkscape:groupmode="layer"
     id="layer1"
     transform="translate(-60.702834,-33.315678)">
    <g
       id="g115"
       transform="matrix(0.35277777,0,0,-0.35277777,-23.515092,318.6843)">
      <g
         id="g117"
         clip-path="url(#clipPath121)">
        <g
           id="g123"
           transform="translate(270.072,733.8514)">
          <path
             d="m 0,0 c 4.762,0.501 9.533,0.926 14.283,1.516 15.598,1.939 24.265,12.562 25.65,28.947 0.214,2.527 -0.083,5.095 0.087,7.629 0.668,9.995 -3.045,17.753 -11.942,22.531 -10.035,5.389 -20.153,5.352 -29.636,-1.279 -6.608,-4.622 -11.819,-10.377 -13.194,-18.911 -1.077,-6.689 0.631,-12.363 5.369,-16.91 6.711,-6.44 19.826,-4.039 23.081,4.138 0.65,1.634 0.109,3.743 0.117,5.633 -1.743,-0.17 -3.486,-0.334 -5.228,-0.513 -1.741,-0.178 -3.479,-0.37 -5.218,-0.556 0.05,2.349 -0.804,5.343 0.325,6.924 2.974,4.164 7.832,4.115 12.394,3.309 4.051,-0.716 6.132,-3.471 6.87,-7.583 C 24.983,23.592 17.347,14.029 4.389,12.254 1.062,11.798 -2.434,11.829 -5.765,12.281 c -11.646,1.578 -16.849,7.128 -18.866,20.375 -2.053,13.483 5.143,31.979 20.432,38.513 16.32,6.975 31.549,4.046 46.116,-4.468 6.738,-3.937 9.803,-11.006 11.355,-18.273 2.66,-12.454 1.395,-24.91 -3.892,-36.4 C 44.024,0.387 34.348,-5.844 21.211,-6.345 17.89,-6.471 14.275,-6.73 11.366,-8.121 5.922,-10.723 0.787,-11.711 -4.878,-9.093 -5.881,-8.63 -7.43,-9.346 -8.726,-9.517 c 0.183,-1.295 -0.087,-2.967 0.626,-3.822 3.637,-4.364 7.18,-8.629 8.369,-14.491 0.479,-2.361 2.63,-3.359 5.378,-2.65 4.242,1.096 7.146,3.911 7.046,7.337 -0.016,0.552 -0.225,1.097 -0.335,1.647 -1.56,7.831 0.153,9.755 7.592,8.534 4.738,-0.777 5.975,-3.367 3.677,-7.697 -2.598,-4.898 -1.423,-8.175 3.827,-8.869 2.898,-0.383 6.237,0.174 8.946,1.323 3.777,1.601 4.338,3.917 1.852,7.326 -1.676,2.297 -3.284,4.909 -1.06,6.577 1.921,1.44 5.416,1.59 7.974,1.088 1.652,-0.324 3.981,-2.771 4.102,-4.407 0.803,-10.857 -1.037,-16.697 -10.872,-18.565 -6.935,-1.317 -13.09,-2.765 -19.271,1.808 -2.662,1.97 -5.212,0.527 -7.723,-1.228 -7.391,-5.165 -15.459,-2.991 -19.484,5.046 -1.252,2.497 -2.072,5.375 -3.873,7.376 -1.201,1.334 -3.968,2.256 -5.713,1.879 -2.738,-0.591 -3.756,-3.244 -3.284,-6.073 0.179,-1.078 0.762,-2.097 1.21,-3.122 2.737,-6.26 1.861,-7.828 -4.729,-8.33 -1.124,-0.086 -2.262,0.007 -3.394,0.007 -2.995,10e-4 -4.273,1.281 -2.972,4.22 1.142,2.582 2.502,5.067 3.667,7.64 2.445,5.396 5.116,10.713 7.167,16.258 C -16.062,-0.049 -14.418,1.24 -3.44,0.648 -2.314,0.588 -1.181,0.64 -0.051,0.64 -0.034,0.427 -0.017,0.213 0,0"
             style="fill:#231f20;fill-opacity:1;fill-rule:nonzero;stroke:none"
             id="path125" />
        </g>
        <g
           id="g127"
           transform="translate(288.2383,786.927)">
          <path
             d="m 0,0 c 0.152,-3.491 -1.796,-5.1 -5.017,-5.38 -3.45,-0.3 -5.66,1.964 -5.68,5.628 -0.016,3.019 1.399,4.644 4.489,4.82 C -2.395,5.285 -0.136,3.483 0,0"
             style="fill:#231f20;fill-opacity:1;fill-rule:nonzero;stroke:none"
             id="path129" />
        </g>
      </g>
    </g>
  </g>
</svg>
