<?xml version="1.0" encoding="UTF-8" standalone="no"?>
<!-- Created with Inkscape (http://www.inkscape.org/) -->

<svg
   width="39.434662mm"
   height="39.697338mm"
   viewBox="0 0 39.434662 39.697338"
   version="1.1"
   id="svg880"
   inkscape:version="1.1 (c68e22c387, 2021-05-23)"
   sodipodi:docname="venn.svg"
   xmlns:inkscape="http://www.inkscape.org/namespaces/inkscape"
   xmlns:sodipodi="http://sodipodi.sourceforge.net/DTD/sodipodi-0.dtd"
   xmlns="http://www.w3.org/2000/svg"
   xmlns:svg="http://www.w3.org/2000/svg">
  <sodipodi:namedview
     id="namedview882"
     pagecolor="#505050"
     bordercolor="#eeeeee"
     borderopacity="1"
     inkscape:pageshadow="0"
     inkscape:pageopacity="0"
     inkscape:pagecheckerboard="0"
     inkscape:document-units="mm"
     showgrid="false"
     inkscape:zoom="0.77771465"
     inkscape:cx="73.934573"
     inkscape:cy="75.220391"
     inkscape:window-width="1284"
     inkscape:window-height="1081"
     inkscape:window-x="1652"
     inkscape:window-y="212"
     inkscape:window-maximized="0"
     inkscape:current-layer="layer1" />
  <defs
     id="defs877">
    <clipPath
       clipPathUnits="userSpaceOnUse"
       id="clipPath785">
      <path
         d="M 0,841.89 H 595.276 V 0 H 0 Z"
         id="path783" />
    </clipPath>
  </defs>
  <g
     inkscape:label="Layer 1"
     inkscape:groupmode="layer"
     id="layer1"
     transform="translate(-85.236278,-128.65133)">
    <g
       id="g779"
       transform="matrix(0.35277777,0,0,-0.35277777,68.161147,408.59178)">
      <g
         id="g781"
         clip-path="url(#clipPath785)">
        <g
           id="g787"
           transform="translate(78.6472,681.0916)">
          <path
             d="m 0,0 c -5.098,0 -10.196,0.001 -15.294,0 -2.417,-0.001 -4.629,0.385 -5.005,3.342 -0.408,3.214 1.579,4.557 4.326,5.23 2.898,0.71 7.251,0.538 8.366,2.349 1.925,3.13 2.439,7.486 2.494,11.343 0.23,16.123 0.098,32.251 0.017,48.377 -0.011,2.238 -0.372,4.493 -0.763,6.706 -0.47,2.661 -1.72,5.367 -4.659,5.182 -2.593,-0.163 -5.663,-1.136 -7.518,-2.841 -3.684,-3.387 -2.261,-7.309 2.749,-8.133 2.948,-0.484 5.968,-0.476 5.581,-4.562 -0.356,-3.76 -3.137,-5.149 -6.467,-5.567 -5.416,-0.68 -11.408,3.254 -13.227,8.555 -2.709,7.893 1.312,17.01 8.941,20.524 7.766,3.578 15.507,4.817 23.763,1.295 1.968,-0.84 5.12,-0.609 7.036,0.417 8.511,4.557 16.536,3.811 23.815,-2.012 4.628,-3.703 8.239,-3.383 12.672,0.105 9.475,7.455 18.822,5.878 28.001,-0.958 7.612,-5.668 9.105,-21.001 2.63,-28.075 -2.082,-2.275 -4.098,-4.649 -5.84,-7.185 -1.803,-2.626 -3.837,-4.157 -7.087,-2.946 -2.934,1.092 -6.571,5.978 -5.313,7.807 1.455,2.114 4.05,3.466 6.229,5.039 0.323,0.232 1.083,-0.142 1.641,-0.233 3.717,-0.603 5.083,1.728 5.767,4.739 0.653,2.87 -3.857,12.302 -6.702,14.76 -3.944,3.408 -8.247,3.25 -12.719,1.559 -6.118,-2.313 -8.222,-6.169 -6.893,-12.679 0.332,-1.628 0.976,-3.245 1.76,-4.716 1.136,-2.13 3.893,-3.947 1.535,-6.677 -2.266,-2.622 -4.687,-0.934 -6.81,0.419 -2.734,1.743 -4.683,-0.115 -7.046,-0.909 -1.556,-0.523 -3.568,0.309 -5.375,0.534 0.291,1.739 0.469,3.508 0.925,5.202 0.205,0.76 1.077,1.313 1.455,2.057 2.281,4.483 1.975,11.121 -0.57,13.601 -3.948,3.847 -10.843,5.188 -15.648,3.044 C 9.637,81.51 5.955,72.33 9.471,65.843 c 0.673,-1.242 2.573,-1.916 4.019,-2.624 3.417,-1.672 2.933,-3.789 0.701,-5.963 -1.199,-1.167 -2.6,-2.262 -4.11,-2.954 C 3.199,51.149 2.531,44.845 2.422,38.633 2.308,32.163 3.083,25.681 3.363,19.2 3.719,10.924 5.253,9.277 13.339,8.735 15.302,8.604 17.438,8.765 19.157,8.017 20.455,7.453 22.198,5.45 21.989,4.454 21.662,2.891 20.099,1.186 18.605,0.385 17.25,-0.341 15.29,-0.01 13.595,-0.025 9.064,-0.064 4.532,-0.038 0,-0.038 Z"
             style="fill:#231f20;fill-opacity:1;fill-rule:nonzero;stroke:none"
             id="path789" />
        </g>
        <g
           id="g791"
           transform="translate(109.6869,702.1055)">
          <path
             d="m 0,0 c -4.748,0.37 -9.521,0.553 -14.238,1.163 -4.898,0.634 -7.261,5.698 -4.103,9.389 4.76,5.567 9.8,10.989 15.312,15.795 5.173,4.51 15.518,4.069 21.295,0.002 1.142,-0.804 2.228,-2.011 3.494,-2.262 7.504,-1.491 10.287,-7.363 12.637,-13.483 4.255,-11.084 -1.259,-22.325 -12.558,-26.282 -3.163,-1.108 -6.303,-2.375 -9.268,-3.925 -2.674,-1.397 -5.044,-1.109 -6.954,0.855 -1.019,1.048 -1.672,2.904 -1.609,4.357 0.031,0.715 2.007,1.773 3.205,1.938 6.173,0.851 10.834,3.857 12.18,9.981 1.59,7.234 2.209,14.683 -3.609,20.765 -6.411,6.703 -18.428,4.443 -21.835,-4.274 -0.526,-1.346 0.248,-4.02 1.367,-4.985 1.524,-1.314 3.958,-1.575 6.001,-2.287 0.326,0.958 0.61,1.932 0.985,2.871 0.651,1.631 1.039,4.273 2.119,4.606 1.476,0.455 4.226,-0.33 5.1,-1.541 C 10.613,11.17 11.1,8.443 10.526,6.666 9.17,2.471 4.03,-0.626 0,0"
             style="fill:#231f20;fill-opacity:1;fill-rule:nonzero;stroke:none"
             id="path793" />
        </g>
        <g
           id="g795"
           transform="translate(126.5289,786.0434)">
          <path
             d="m 0,0 c -0.617,-4.769 -4.152,-7.907 -8.49,-7.537 -4.57,0.39 -7.291,3.718 -6.529,7.986 0.784,4.396 5.512,7.672 10.009,6.936 C -1.276,6.774 0.532,4.109 0,0"
             style="fill:#231f20;fill-opacity:1;fill-rule:nonzero;stroke:none"
             id="path797" />
        </g>
      </g>
    </g>
  </g>
</svg>
