<?xml version="1.0" encoding="UTF-8" standalone="no"?>
<!-- Created with Inkscape (http://www.inkscape.org/) -->

<svg
   width="30.685314mm"
   height="39.749592mm"
   viewBox="0 0 30.685314 39.749592"
   version="1.1"
   id="svg430"
   inkscape:version="1.1 (c68e22c387, 2021-05-23)"
   sodipodi:docname="vind.svg"
   xmlns:inkscape="http://www.inkscape.org/namespaces/inkscape"
   xmlns:sodipodi="http://sodipodi.sourceforge.net/DTD/sodipodi-0.dtd"
   xmlns="http://www.w3.org/2000/svg"
   xmlns:svg="http://www.w3.org/2000/svg">
  <sodipodi:namedview
     id="namedview432"
     pagecolor="#505050"
     bordercolor="#eeeeee"
     borderopacity="1"
     inkscape:pageshadow="0"
     inkscape:pageopacity="0"
     inkscape:pagecheckerboard="0"
     inkscape:document-units="mm"
     showgrid="false"
     inkscape:zoom="0.77771465"
     inkscape:cx="58.504749"
     inkscape:cy="75.220391"
     inkscape:window-width="1284"
     inkscape:window-height="1081"
     inkscape:window-x="1682"
     inkscape:window-y="174"
     inkscape:window-maximized="0"
     inkscape:current-layer="layer1" />
  <defs
     id="defs427">
    <clipPath
       clipPathUnits="userSpaceOnUse"
       id="clipPath269">
      <path
         d="M 0,841.89 H 595.276 V 0 H 0 Z"
         id="path267" />
    </clipPath>
  </defs>
  <g
     inkscape:label="Layer 1"
     inkscape:groupmode="layer"
     id="layer1"
     transform="translate(-89.610951,-128.62521)">
    <g
       id="g263"
       transform="matrix(0.35277777,0,0,-0.35277777,9.8979867,301.51641)">
      <g
         id="g265"
         clip-path="url(#clipPath269)">
        <g
           id="g271"
           transform="translate(273.5639,377.4093)">
          <path
             d="m 0,0 c -8.072,0.484 -19.251,3.651 -28.106,10.708 -13.783,10.985 -17.971,24.543 -11.016,41.477 1.96,4.772 1.278,6.847 -2.581,9.68 -5.658,4.154 -6.944,8.661 -5.146,13.929 2.758,8.082 11.883,10.01 17.595,3.696 1.863,-2.059 3.017,-4.732 0.778,-6.738 -1.217,-1.09 -3.918,-0.675 -5.943,-0.635 -0.676,0.014 -1.264,1.178 -2.021,1.433 -0.605,0.203 -1.848,0.03 -2.02,-0.341 -0.304,-0.653 -0.29,-1.756 0.084,-2.374 2.358,-3.902 7.694,-5.403 11.937,-3.49 4.693,2.116 6.911,7.1 5.171,11.961 -1.838,5.135 -5.669,8.481 -10.593,10.368 -5.792,2.22 -8.954,6.553 -11.194,12.004 -1.156,2.816 -2.015,5.678 0.701,7.675 1.265,0.929 3.816,0.984 5.409,0.405 2.895,-1.052 5.754,-2.692 5.925,-6.429 0.037,-0.805 -0.523,-1.625 -0.555,-2.447 -0.081,-2.118 -1.122,-4.895 2.457,-5.137 2.732,-0.185 5.667,2.748 5.298,5.462 -0.256,1.891 -1.261,3.708 -2.085,5.486 -1.273,2.748 -0.144,4.396 2.415,5.166 1.601,0.481 3.343,0.605 5.03,0.666 6.067,0.22 7.323,-1.156 5.372,-6.781 -1.654,-4.768 -5.48,-9.268 -5.58,-13.945 -0.088,-4.126 4.061,-8.188 5.58,-12.543 1.559,-4.472 3.253,-8.086 8.209,-9.887 5.06,-1.839 8.001,-6.18 9.546,-11.271 1.573,-5.181 -1.789,-10.715 -8.318,-14.053 -4.441,-2.27 -8.076,-1.591 -11.374,2.125 -2.963,3.339 -3.234,8.419 -0.359,11.614 0.822,0.913 2.724,1.956 3.467,1.591 1.238,-0.608 2.015,-2.259 2.822,-3.572 0.224,-0.364 -0.095,-1.092 -0.226,-1.639 -0.49,-2.039 -0.846,-4.492 2.038,-4.261 1.285,0.103 3.084,2.398 3.444,3.972 1.589,6.952 -3.346,10.926 -10.438,9.441 -9.368,-1.962 -14.341,-7.925 -15.563,-16.752 -1.561,-11.273 1.124,-21.401 11.125,-28.308 3.246,-2.241 6.802,-4.036 10.22,-6.028 7.245,-4.223 14.159,-2.958 20.646,1.586 14.461,10.129 20.4,24.219 10.558,41.04 -3.689,6.304 -8.047,12.351 -12.888,17.819 -8.455,9.552 -13.85,20.556 -17.66,32.537 -0.936,2.942 -1.59,5.578 2.178,6.913 3.576,1.268 9.731,0.257 9.99,-2.029 0.248,-2.18 -0.675,-4.954 -2.032,-6.752 -2.444,-3.238 -1.246,-5.399 1.472,-6.926 1.482,-0.833 3.865,-1.051 5.402,-0.442 0.964,0.382 1.847,3.022 1.492,4.295 -1.219,4.382 0.39,7.35 4.14,9.027 1.819,0.813 4.91,1.319 6.091,0.347 1.291,-1.063 2.017,-4.439 1.289,-6.03 C 19.641,98.064 17.131,92.281 11.045,89.35 5.203,86.537 4.974,84.778 10.214,80.807 14.038,77.909 18.164,75.398 22.219,72.814 36.724,63.569 42.454,48.955 37.785,30.849 36.523,25.955 34.698,21.148 32.611,16.536 27.517,5.275 18.04,0.033 0,0"
             style="fill:#231f20;fill-opacity:1;fill-rule:nonzero;stroke:none"
             id="path273" />
        </g>
        <g
           id="g275"
           transform="translate(272.54,413.4344)">
          <path
             d="m 0,0 c 3.482,0.009 6.054,-2.691 6.188,-6.496 0.138,-3.926 -3.11,-7.048 -7.549,-7.258 -3.851,-0.182 -5.899,2.023 -5.89,6.34 C -7.243,-3.023 -4.297,-0.011 0,0"
             style="fill:#231f20;fill-opacity:1;fill-rule:nonzero;stroke:none"
             id="path277" />
        </g>
      </g>
    </g>
  </g>
</svg>
