<?xml version="1.0" encoding="UTF-8" standalone="no"?>
<!-- Created with Inkscape (http://www.inkscape.org/) -->

<svg
   width="21.643196mm"
   height="34.537895mm"
   viewBox="0 0 21.643196 34.537895"
   version="1.1"
   id="svg524"
   inkscape:version="1.1 (c68e22c387, 2021-05-23)"
   sodipodi:docname="wyrm.svg"
   xmlns:inkscape="http://www.inkscape.org/namespaces/inkscape"
   xmlns:sodipodi="http://sodipodi.sourceforge.net/DTD/sodipodi-0.dtd"
   xmlns="http://www.w3.org/2000/svg"
   xmlns:svg="http://www.w3.org/2000/svg">
  <sodipodi:namedview
     id="namedview526"
     pagecolor="#505050"
     bordercolor="#eeeeee"
     borderopacity="1"
     inkscape:pageshadow="0"
     inkscape:pageopacity="0"
     inkscape:pagecheckerboard="0"
     inkscape:document-units="mm"
     showgrid="false"
     inkscape:zoom="0.77771465"
     inkscape:cx="40.503288"
     inkscape:cy="64.933842"
     inkscape:window-width="1284"
     inkscape:window-height="1081"
     inkscape:window-x="1931"
     inkscape:window-y="98"
     inkscape:window-maximized="0"
     inkscape:current-layer="layer1" />
  <defs
     id="defs521" />
  <g
     inkscape:label="Layer 1"
     inkscape:groupmode="layer"
     id="layer1"
     transform="translate(-94.132009,-131.23105)">
    <g
       id="g85"
       transform="matrix(0.35277777,0,0,-0.35277777,104.4522,165.74339)">
      <path
         d="m 0,0 c -4.248,0 -8.506,0.19 -12.74,-0.043 -6.873,-0.379 -11.456,2.918 -14.075,8.838 -2.987,6.752 -3.913,13.689 1.194,20.008 1.583,1.959 3.411,4.042 5.595,5.134 6.12,3.06 6.43,7.963 5.159,13.624 -0.248,1.104 -0.724,2.197 -0.742,3.3 -0.023,1.325 0.332,2.656 0.524,3.984 1.539,-0.248 3.8,0.059 4.493,-0.839 2.974,-3.858 6.908,-4.137 11.287,-4.524 9.01,-0.797 14.11,-7.921 12.482,-16.679 -0.787,-4.235 -3.25,-7.126 -7.33,-8.575 -2.78,-0.987 -5.004,-0.206 -6.579,2.278 -1.389,2.191 -1.396,4.18 0.792,5.986 1.053,0.87 2.356,1.921 2.632,3.103 0.253,1.082 -0.452,2.689 -1.257,3.609 -0.526,0.601 -2.174,0.825 -2.989,0.467 -3.321,-1.461 -5.642,-3.825 -5.305,-7.819 0.355,-4.199 0.883,-8.386 1.145,-12.59 0.062,-0.991 -0.65,-2.898 -0.979,-2.892 -1.239,0.022 -3.028,0.288 -3.593,1.139 -1.537,2.311 -2.477,5.01 -3.862,7.436 -0.199,0.349 -2.067,0.354 -2.284,-0.007 -2.783,-4.646 0.234,-12.146 5.507,-12.628 6.456,-0.59 13.129,-0.989 19.475,0.011 6.25,0.985 10.419,6.1 12.044,11.973 3.919,14.164 -3.007,25.474 -14.025,28.782 -3.515,1.056 -7.162,2.028 -10.305,3.816 -1.555,0.885 -2.696,3.498 -2.825,5.41 -0.055,0.826 2.878,1.959 4.552,2.742 0.71,0.332 1.675,0.1 2.522,0.158 8.497,0.587 13.263,8.251 10.037,16.133 -1.745,4.266 -5.407,6.025 -11.267,5.413 -5.236,-0.547 -8.83,-3.377 -9.72,-7.916 -0.433,-2.207 -0.218,-4.566 -0.835,-6.702 -0.301,-1.041 -1.832,-2.387 -2.813,-2.393 -1.054,-0.007 -3.009,1.369 -3.035,2.191 -0.221,7.013 -0.202,14.043 0.115,21.051 0.029,0.647 3.411,2.061 3.901,1.624 4.27,-3.804 7.844,-0.929 11.615,0.735 1.806,0.797 3.643,1.615 5.55,2.074 4.849,1.168 9.273,-0.077 12.053,-4.155 6.248,-9.165 10.974,-18.753 4.103,-29.822 -1.108,-1.785 -1.537,-3.15 0.63,-4.958 C 30.9,50.093 34.503,36.486 30.487,24.226 28.911,19.417 27.706,14.481 26.477,9.566 24.829,2.976 22.152,0.534 15.282,0.246 10.197,0.032 5.094,0.204 0,0.204 0,0.136 0,0.068 0,0"
         style="fill:#231f20;fill-opacity:1;fill-rule:nonzero;stroke:none"
         id="path87" />
    </g>
  </g>
</svg>
