<?xml version="1.0" encoding="UTF-8" standalone="no"?>
<!-- Created with Inkscape (http://www.inkscape.org/) -->

<svg
   width="34.941799mm"
   height="45.180645mm"
   viewBox="0 0 34.941799 45.180645"
   version="1.1"
   id="svg380"
   inkscape:version="1.1 (c68e22c387, 2021-05-23)"
   sodipodi:docname="blod.svg"
   xmlns:inkscape="http://www.inkscape.org/namespaces/inkscape"
   xmlns:sodipodi="http://sodipodi.sourceforge.net/DTD/sodipodi-0.dtd"
   xmlns="http://www.w3.org/2000/svg"
   xmlns:svg="http://www.w3.org/2000/svg">
  <sodipodi:namedview
     id="namedview382"
     pagecolor="#505050"
     bordercolor="#eeeeee"
     borderopacity="1"
     inkscape:pageshadow="0"
     inkscape:pageopacity="0"
     inkscape:pagecheckerboard="0"
     inkscape:document-units="mm"
     showgrid="false"
     inkscape:zoom="0.77771465"
     inkscape:cx="66.219661"
     inkscape:cy="85.50694"
     inkscape:window-width="1284"
     inkscape:window-height="1081"
     inkscape:window-x="1635"
     inkscape:window-y="152"
     inkscape:window-maximized="0"
     inkscape:current-layer="layer1" />
  <defs
     id="defs377">
    <clipPath
       clipPathUnits="userSpaceOnUse"
       id="clipPath23">
      <path
         d="M 0,841.89 H 595.276 V 0 H 0 Z"
         id="path21" />
    </clipPath>
  </defs>
  <g
     inkscape:label="Layer 1"
     inkscape:groupmode="layer"
     id="layer1"
     transform="translate(-87.482707,-125.90968)">
    <g
       id="g17"
       transform="matrix(0.35277777,0,0,-0.35277777,68.720174,413.78231)">
      <g
         id="g19"
         clip-path="url(#clipPath23)">
        <g
           id="g25"
           transform="translate(105.8731,687.9816)">
          <path
             d="m 0,0 c -7.364,0 -14.728,-0.092 -22.09,0.019 -14.361,0.217 -20.86,5.841 -21.956,20.261 -0.662,8.698 -0.027,17.509 0.286,26.26 0.151,4.225 0.959,8.423 1.374,12.642 1.291,13.151 7.57,19.068 21.002,19.37 8.209,0.184 16.439,-0.259 24.633,0.139 4.698,0.227 9.416,1.288 13.987,2.496 4.436,1.172 6.46,1.049 7.003,-3.012 0.848,-6.334 0.694,-12.84 0.437,-19.252 -0.055,-1.368 -2.369,-2.646 -3.642,-3.965 -1.212,1.328 -3.056,2.463 -3.531,4.016 -2.686,8.775 -2.574,8.86 -11.252,8.924 -7.363,0.054 -14.739,0.238 -22.086,-0.108 -11.114,-0.523 -17.008,-5.682 -19.848,-16.345 -0.831,-3.119 -0.43,-5.17 3.142,-5.198 9.343,-0.074 18.689,-0.052 28.032,0.085 3.939,0.057 5.74,2.949 7.514,6.026 0.855,1.483 2.665,2.416 4.043,3.599 C 7.9,54.3 9.456,52.653 9.48,50.984 9.581,43.976 9.485,36.94 8.921,29.957 8.649,26.586 6.474,25.978 4.775,28.968 c -5.155,9.076 -13.346,9.288 -22.094,8.79 -3.671,-0.21 -7.381,0.132 -11.038,-0.186 -6.478,-0.563 -7.877,-2.526 -6.814,-8.793 2.309,-13.605 9.359,-19.95 23.168,-19.562 10.7,0.301 21.423,1.268 32.037,2.686 7.761,1.036 9.801,3.586 10.39,10.983 1.233,15.497 2.506,31.003 3.155,46.53 0.232,5.535 -1.118,11.174 -2.094,16.704 -0.474,2.685 -2.226,4.379 -5.443,4.175 -1.923,-0.122 -4.211,-0.074 -5.784,0.841 -6.162,3.587 -11.107,1.986 -15.84,-2.657 -5.66,-5.552 -12.153,-4.086 -18.096,-0.946 -3.729,1.97 -6.331,2.405 -9.775,-0.376 -3.662,-2.956 -7.772,-2.937 -11.675,0.214 -1.506,1.216 -3.266,2.2 -5.048,2.976 -3.851,1.675 -5.638,4.778 -5.751,8.668 -0.194,6.641 -1.149,12.816 -5.719,18.168 -2.14,2.505 -0.855,4.697 2.678,5.133 2.212,0.274 4.551,0.19 6.748,-0.205 6.185,-1.111 6.931,-2.105 7.029,-8.321 0.067,-4.242 -0.173,-8.511 0.222,-12.721 0.464,-4.957 2.969,-7.23 6.826,-6.974 4.389,0.291 7.345,3.11 7.728,7.454 0.479,5.424 -1.479,9.891 -5.147,13.859 -1.197,1.295 -1.65,3.276 -2.443,4.944 1.729,0.735 3.406,1.896 5.197,2.109 3.074,0.366 6.243,0.396 9.328,0.106 5.474,-0.514 6.834,-3.691 3.158,-7.951 -2.683,-3.11 -4.816,-6.048 -4.818,-10.409 -0.004,-6.761 1.593,-9.649 6.316,-10.139 6.095,-0.632 11.917,3.381 11.932,9.252 0.01,4.364 -1.319,8.852 -2.711,13.067 -1.943,5.882 -1.994,6.197 4.087,6.361 3.109,0.084 6.251,0.131 9.332,-0.21 4.077,-0.453 4.956,-2.084 3.307,-5.633 -0.709,-1.526 -1.969,-2.816 -2.569,-4.371 -1.946,-5.036 1.574,-12.216 6.661,-13.897 4.327,-1.429 8.1,0.594 8.856,5.113 0.968,5.784 -0.509,11.163 -3.206,16.331 -3.158,6.049 -2.465,7.324 4.107,7.776 3.383,0.232 6.805,0.233 10.19,0.03 4.672,-0.279 6.612,-2.697 4.078,-6.613 C 38.526,110.896 41.024,100.235 42.387,89.277 43.289,82.025 42.835,74.59 42.789,67.238 42.703,53.378 42.515,39.518 42.27,25.66 42.21,22.282 41.902,18.893 41.47,15.54 40.149,5.288 36.007,1.169 25.474,0.633 17.003,0.201 8.493,0.546 0,0.546 0,0.364 0,0.182 0,0"
             style="fill:#231f20;fill-opacity:1;fill-rule:nonzero;stroke:none"
             id="path27" />
        </g>
        <g
           id="g29"
           transform="translate(97.7884,745.6331)">
          <path
             d="m 0,0 c 0.093,-5.581 -2.006,-8.082 -6.984,-8.323 -4.614,-0.223 -7.519,2.52 -7.366,6.956 0.15,4.359 3.719,8.032 7.948,8.183 C -2.192,6.966 -0.079,4.716 0,0"
             style="fill:#231f20;fill-opacity:1;fill-rule:nonzero;stroke:none"
             id="path31" />
        </g>
        <g
           id="g33"
           transform="translate(87.7395,717.047)">
          <path
             d="m 0,0 c 1.042,-1.499 3.225,-3.408 3.755,-5.7 0.747,-3.224 -1.627,-5.075 -4.819,-5.5 -3.26,-0.434 -5.661,1.526 -5.711,4.546 C -6.825,-3.685 -3.994,-0.249 0,0"
             style="fill:#231f20;fill-opacity:1;fill-rule:nonzero;stroke:none"
             id="path35" />
        </g>
        <g
           id="g37"
           transform="translate(105.9672,712.0234)">
          <path
             d="m 0,0 c -0.296,-4.468 -1.312,-6.778 -4.953,-6.987 -3.53,-0.202 -5.881,1.421 -6.02,4.34 -0.153,3.224 3.282,7.825 5.821,6.995 C -2.939,3.625 -1.297,1.161 0,0"
             style="fill:#231f20;fill-opacity:1;fill-rule:nonzero;stroke:none"
             id="path39" />
        </g>
      </g>
    </g>
  </g>
</svg>
