<?xml version="1.0" encoding="UTF-8" standalone="no"?>
<!-- Created with Inkscape (http://www.inkscape.org/) -->

<svg
   width="32.856125mm"
   height="43.210571mm"
   viewBox="0 0 32.856125 43.210571"
   version="1.1"
   id="svg962"
   inkscape:version="1.1 (c68e22c387, 2021-05-23)"
   sodipodi:docname="diav.svg"
   xmlns:inkscape="http://www.inkscape.org/namespaces/inkscape"
   xmlns:sodipodi="http://sodipodi.sourceforge.net/DTD/sodipodi-0.dtd"
   xmlns="http://www.w3.org/2000/svg"
   xmlns:svg="http://www.w3.org/2000/svg">
  <sodipodi:namedview
     id="namedview964"
     pagecolor="#505050"
     bordercolor="#eeeeee"
     borderopacity="1"
     inkscape:pageshadow="0"
     inkscape:pageopacity="0"
     inkscape:pagecheckerboard="0"
     inkscape:document-units="mm"
     showgrid="false"
     inkscape:zoom="0.77771465"
     inkscape:cx="-525.25692"
     inkscape:cy="307.95357"
     inkscape:window-width="1284"
     inkscape:window-height="1081"
     inkscape:window-x="1340"
     inkscape:window-y="274"
     inkscape:window-maximized="0"
     inkscape:current-layer="layer1" />
  <defs
     id="defs959">
    <clipPath
       clipPathUnits="userSpaceOnUse"
       id="clipPath245">
      <path
         d="M 0,841.89 H 595.276 V 0 H 0 Z"
         id="path243" />
    </clipPath>
  </defs>
  <g
     inkscape:label="Layer 1"
     inkscape:groupmode="layer"
     id="layer1"
     transform="translate(-344.19049,-203.271)">
    <g
       id="g239"
       transform="matrix(0.35277777,0,0,-0.35277777,322.70374,293.27184)">
      <g
         id="g241"
         clip-path="url(#clipPath245)">
        <g
           id="g247"
           transform="translate(120.5442,141.1162)">
          <path
             d="m 0,0 c -10.171,-10.901 -20.274,-11.975 -31.899,3.943 -2.578,-1.414 -4.147,-3.084 -3.939,-6.479 0.331,-5.391 -1.814,-6.876 -6.881,-5.419 -0.782,0.224 -1.625,0.49 -2.408,0.413 -2.797,-0.275 -4.461,0.86 -5.398,3.511 -0.99,2.8 -0.18,4.826 2.029,6.617 4.11,3.334 8.259,6.637 12.158,10.206 1.065,0.975 1.794,2.838 1.831,4.315 0.195,7.797 -0.054,15.605 0.185,23.4 0.264,8.619 0.9,17.225 1.346,25.839 0.077,1.489 0.011,2.985 0.011,4.936 -3.394,-0.319 -6.311,-0.456 -9.183,-0.889 -7.129,-1.076 -11.225,0.764 -13.332,7.557 -1.576,5.084 -1.931,10.565 -2.602,15.898 -0.621,4.939 -0.763,9.94 -1.454,14.867 -0.449,3.207 0.564,4.829 3.786,5.068 1.116,0.083 2.232,0.177 3.35,0.214 4.025,0.133 5.425,-1.548 4.329,-5.393 -2.137,-7.493 -3.061,-15.021 -0.788,-22.642 2.113,-7.087 3.475,-7.938 10.893,-7.15 1.795,0.191 3.591,0.373 6.144,0.638 0,6.605 0.051,13.125 -0.065,19.642 -0.014,0.81 -0.773,1.738 -1.417,2.386 -3.246,3.262 -1.297,6.868 -0.414,10.148 0.583,2.164 10.77,2.769 12.021,0.753 0.629,-1.014 0.669,-3.544 0.004,-4.006 -3.228,-2.246 -3.695,-5.637 -3.857,-8.86 -0.259,-5.134 0.086,-10.306 0.381,-15.451 0.048,-0.836 1.119,-2.268 1.785,-2.308 4.164,-0.255 8.358,-0.359 12.516,-0.1 0.881,0.056 2.303,1.781 2.374,2.812 0.534,7.714 2.296,15.554 -1.865,22.944 -0.513,0.912 -0.428,2.533 0.025,3.538 1.246,2.766 7.441,3.857 10.66,2.071 3.027,-1.679 3.896,-5.444 1.959,-8.755 -1.06,-1.814 -2.224,-3.568 -3.488,-5.584 6.028,0 11.173,0.089 16.314,-0.019 8.999,-0.188 16.832,-7.348 17.955,-16.274 0.796,-6.318 -3.962,-10.202 -10.083,-8.111 -2.289,0.782 -3.559,2.208 -3.175,5.071 1.187,8.857 -2.312,12.585 -11.196,12.201 -2.927,-0.126 -5.843,-0.514 -9.136,-0.817 -0.284,-2.478 -0.51,-4.925 -0.853,-7.357 -0.981,-6.946 -4.15,-9.806 -11.104,-10.021 -3.082,-0.095 -6.184,-0.305 -9.247,-0.073 -2.897,0.22 -4.234,-1.021 -4.361,-3.662 -0.503,-10.428 -0.944,-20.859 -1.363,-31.29 -0.116,-2.899 -0.183,-5.808 -0.084,-8.707 0.157,-4.57 -1.005,-9.993 1.055,-13.51 3.386,-5.78 7.471,-11.937 14.556,-14.264 3.796,-1.246 7.719,4.052 6.693,8.739 -0.266,1.218 -1.33,2.52 -1.068,3.539 0.42,1.632 1.459,4.175 2.559,4.352 2.605,0.42 5.902,0.442 7.933,-0.878 C 5.463,16.773 5.459,13.141 5.123,10.903 4.371,5.884 5.879,2.07 9.714,0.95 c 5.136,-1.5 9.875,0.805 11.25,5.866 0.601,2.212 0.642,4.707 0.337,6.994 -0.348,2.611 0.315,4.939 2.659,5.395 2.852,0.554 6.096,0.409 8.82,-0.488 0.806,-0.266 0.881,-4.18 0.487,-6.272 C 32.634,9.082 31.777,5.609 30.18,2.624 28.765,-0.019 26.631,-2.901 24.064,-4.162 20.526,-5.9 16.319,-6.453 12.33,-7.079 6.666,-7.968 2.578,-5.385 0,0"
             style="fill:#231f20;fill-opacity:1;fill-rule:nonzero;stroke:none"
             id="path249" />
        </g>
        <g
           id="g251"
           transform="translate(118.385,170.4769)">
          <path
             d="m 0,0 c -3.203,-0.065 -5.765,2.716 -5.868,6.369 -0.123,4.321 2.965,7.618 7.174,7.576 C 4.529,13.913 6.731,12.474 7.012,9.098 7.364,4.863 3.576,0.072 0,0"
             style="fill:#231f20;fill-opacity:1;fill-rule:nonzero;stroke:none"
             id="path253" />
        </g>
        <g
           id="g255"
           transform="translate(153.1333,175.5615)">
          <path
             d="m 0,0 c -2.453,-2.012 -3.807,-4.035 -5.338,-4.179 -2.77,-0.26 -4.585,1.683 -4.64,4.653 -0.048,2.641 1.444,4.612 3.99,4.038 C -4.136,4.094 -2.647,2.084 0,0"
             style="fill:#231f20;fill-opacity:1;fill-rule:nonzero;stroke:none"
             id="path257" />
        </g>
      </g>
    </g>
  </g>
</svg>
