<?xml version="1.0" encoding="UTF-8" standalone="no"?>
<!-- Created with Inkscape (http://www.inkscape.org/) -->

<svg
   width="35.977489mm"
   height="56.060295mm"
   viewBox="0 0 35.977489 56.060295"
   version="1.1"
   id="svg1662"
   inkscape:version="1.1 (c68e22c387, 2021-05-23)"
   sodipodi:docname="drom.svg"
   xmlns:inkscape="http://www.inkscape.org/namespaces/inkscape"
   xmlns:sodipodi="http://sodipodi.sourceforge.net/DTD/sodipodi-0.dtd"
   xmlns="http://www.w3.org/2000/svg"
   xmlns:svg="http://www.w3.org/2000/svg">
  <sodipodi:namedview
     id="namedview1664"
     pagecolor="#505050"
     bordercolor="#eeeeee"
     borderopacity="1"
     inkscape:pageshadow="0"
     inkscape:pageopacity="0"
     inkscape:pagecheckerboard="0"
     inkscape:document-units="mm"
     showgrid="false"
     inkscape:zoom="0.77771465"
     inkscape:cx="67.505479"
     inkscape:cy="106.08004"
     inkscape:window-width="1284"
     inkscape:window-height="1081"
     inkscape:window-x="1808"
     inkscape:window-y="152"
     inkscape:window-maximized="0"
     inkscape:current-layer="layer1" />
  <defs
     id="defs1659">
    <clipPath
       clipPathUnits="userSpaceOnUse"
       id="clipPath1347">
      <path
         d="M 0,841.89 H 595.276 V 0 H 0 Z"
         id="path1345" />
    </clipPath>
  </defs>
  <g
     inkscape:label="Layer 1"
     inkscape:groupmode="layer"
     id="layer1"
     transform="translate(-86.964864,-120.46986)">
    <g
       id="g1341"
       transform="matrix(0.35277777,0,0,-0.35277777,-61.327171,405.85515)">
      <g
         id="g1343"
         clip-path="url(#clipPath1347)">
        <g
           id="g1349"
           transform="translate(495.1022,775.6175)">
          <path
             d="m 0,0 c 0.692,-14.168 1.366,-27.965 2.017,-41.286 3.634,-0.607 8.235,-0.797 12.419,-2.21 6.081,-2.055 8.605,-8.893 6.685,-16.046 -1.453,-5.409 -6.178,-8.64 -11.825,-8.088 -3.527,0.345 -6.147,2.46 -6.854,5.556 -0.541,2.369 0.391,5.237 1.26,7.673 0.306,0.86 2.457,1.619 3.599,1.43 0.718,-0.119 1.266,-2.044 1.637,-3.237 0.414,-1.333 0.541,-2.753 0.783,-4.075 4.126,-0.425 6.429,2.653 5.076,6.622 -1.101,3.23 -3.741,4.488 -6.851,5.102 -2.852,0.564 -5.077,-0.148 -6.745,-2.702 -2.47,-3.782 -6.054,-5.866 -10.487,-6.937 -2.329,-0.563 -4.323,-2.392 -6.633,-3.161 -7.912,-2.635 -15.759,-5.711 -23.887,-7.404 -12.889,-2.686 -12.352,-4.009 -14.437,-16.482 -1.83,-10.948 4.801,-17.757 11.648,-24.533 0.832,-0.824 1.816,-1.509 2.571,-2.393 3.31,-3.872 3.144,-8.625 -0.336,-11.447 -3.595,-2.916 -9.129,-2.601 -11.872,1.276 -1.563,2.209 -2.227,5.17 -2.839,7.895 -0.805,3.582 -1.21,7.238 -6.093,9.655 -0.12,-3.316 -0.748,-6.217 -0.225,-8.894 1.543,-7.899 -1.997,-11.59 -9.803,-9.968 -2.497,0.519 -3.185,1.748 -2.989,4.078 1.157,13.739 2.521,27.508 6.706,40.665 1.447,4.55 5.016,8.895 8.679,12.146 3.336,2.96 7.986,4.642 12.286,6.295 6.688,2.572 13.81,4.125 20.282,7.11 4.119,1.9 7.183,5.941 11.091,8.447 12.588,8.074 11.152,35.027 0.589,44.244 -4.639,4.048 -10.149,5.142 -15.89,5.647 -4.813,0.422 -9.684,0.201 -14.489,0.674 -6.76,0.665 -9.54,3.963 -10.058,10.736 -0.161,2.112 -0.813,4.256 -1.617,6.233 -1.067,2.624 -1.691,5.042 1.009,6.976 2.057,1.475 8.716,0.951 9.502,-0.929 0.491,-1.176 0.202,-3.061 -0.444,-4.246 -1.522,-2.792 -0.941,-5.452 1.108,-7.083 2.051,-1.631 4.985,-3.102 7.48,-3.024 4.149,0.13 6.027,4.373 4.307,8.503 -0.996,2.39 -2.216,5.185 0.476,6.611 1.982,1.049 4.945,0.93 7.29,0.452 2.648,-0.538 3.935,-2.782 3.824,-5.64 -0.224,-5.791 1.007,-8.208 6.535,-9.743 7.424,-2.06 15.039,-3.476 22.829,-1.753 4.167,0.922 5.749,3.295 4.45,7.329 -0.67,2.08 -1.96,3.954 -2.851,5.973 -1.543,3.497 -0.42,5.802 3.27,6.8 5.03,1.361 9.45,-0.107 12.893,-3.676 1.356,-1.406 2.303,-3.989 2.143,-5.93 C 26.212,11.005 18.85,3.34 6.66,1.272 4.234,0.86 1.824,0.351 0,0"
             style="fill:#231f20;fill-opacity:1;fill-rule:nonzero;stroke:none"
             id="path1351" />
        </g>
        <g
           id="g1353"
           transform="translate(457.8581,740.674)">
          <path
             d="m 0,0 c -3.403,0.883 -7.504,1.731 -11.432,3.081 -1.447,0.498 -2.801,1.99 -3.641,3.366 -1.656,2.71 0.079,5.455 3.266,5.179 2.452,-0.213 4.838,-1.109 7.289,-1.425 2.026,-0.261 4.205,-0.527 6.138,-0.06 3.205,0.773 3.884,3.516 1.572,5.863 -2.277,2.311 -4.457,5.223 -7.293,6.381 -6.431,2.627 -12.785,0.535 -18.053,-3.261 -5.023,-3.619 -8.161,-9.233 -5.63,-15.36 1.961,-4.744 5.477,-9.075 9.087,-12.844 2.556,-2.669 6.375,-1.876 9.983,-0.679 5.257,1.744 10.696,2.99 16.124,4.141 1.037,0.22 3.057,-0.726 3.399,-1.605 0.371,-0.958 -0.293,-3.071 -1.179,-3.637 -7.144,-4.565 -14.989,-7.487 -23.529,-7.381 -8.818,0.109 -15.254,4.705 -19.768,12.123 -5.744,9.442 -4.932,25.462 1.733,33.641 5.495,6.743 12.521,8.067 21.02,6.447 10.09,-1.923 16.266,-8.236 21.823,-15.762 2.5,-3.387 3.713,-6.992 0.809,-11.106 C 8.937,3.16 5.803,0.211 0,0"
             style="fill:#231f20;fill-opacity:1;fill-rule:nonzero;stroke:none"
             id="path1355" />
        </g>
      </g>
    </g>
  </g>
</svg>
