<?xml version="1.0" encoding="UTF-8" standalone="no"?>
<!-- Created with Inkscape (http://www.inkscape.org/) -->

<svg
   width="38.415867mm"
   height="47.64291mm"
   viewBox="0 0 38.415867 47.64291"
   version="1.1"
   id="svg1565"
   inkscape:version="1.1 (c68e22c387, 2021-05-23)"
   sodipodi:docname="dverg.svg"
   xmlns:inkscape="http://www.inkscape.org/namespaces/inkscape"
   xmlns:sodipodi="http://sodipodi.sourceforge.net/DTD/sodipodi-0.dtd"
   xmlns="http://www.w3.org/2000/svg"
   xmlns:svg="http://www.w3.org/2000/svg">
  <sodipodi:namedview
     id="namedview1567"
     pagecolor="#ffffff"
     bordercolor="#666666"
     borderopacity="1.0"
     inkscape:pageshadow="2"
     inkscape:pageopacity="0.0"
     inkscape:pagecheckerboard="0"
     inkscape:document-units="mm"
     showgrid="false"
     inkscape:zoom="0.77771465"
     inkscape:cx="72.648754"
     inkscape:cy="90.650215"
     inkscape:window-width="1284"
     inkscape:window-height="1081"
     inkscape:window-x="1977"
     inkscape:window-y="128"
     inkscape:window-maximized="0"
     inkscape:current-layer="layer1" />
  <defs
     id="defs1562">
    <clipPath
       clipPathUnits="userSpaceOnUse"
       id="clipPath1021">
      <path
         d="M 0,841.89 H 595.276 V 0 H 0 Z"
         id="path1019" />
    </clipPath>
  </defs>
  <g
     inkscape:label="Layer 1"
     inkscape:groupmode="layer"
     id="layer1"
     transform="translate(-85.745675,-124.67854)">
    <g
       id="g1015"
       transform="matrix(0.35277777,0,0,-0.35277777,5.0060583,319.71492)">
      <g
         id="g1017"
         clip-path="url(#clipPath1021)">
        <g
           id="g1023"
           transform="translate(240.8881,474.1472)">
          <path
             d="m 0,0 c 0.843,-5.645 -0.932,-9.372 -5.681,-11.331 -3.71,-1.531 -6.035,-0.045 -6.261,3.996 -0.115,2.053 -0.121,4.14 0.108,6.18 0.585,5.215 3.503,8.984 8.654,9.847 C 1.223,9.43 6.014,9.987 10.273,9.026 20.849,6.64 31.751,14.044 30.347,25.817 29.824,30.196 29.954,34.652 29.453,39.034 28.282,49.293 20.266,56.495 11.19,55.673 5.776,55.182 0.645,50.442 0.015,45.349 c -0.57,-4.602 2.356,-8.065 6.452,-7.066 3.257,0.795 5.529,-0.083 7.269,-2.592 1.982,-2.859 2.297,-6.094 0.834,-9.248 -3.113,-6.709 -11.133,-7.64 -15.727,-1.821 -4.469,5.661 -7.872,11.824 -7.162,19.389 1.332,14.202 9.836,19.214 23.917,19.81 4.255,0.18 7.957,-1.797 11.387,-4.224 1.436,-1.017 2.849,-2.173 4.452,-2.825 2.614,-1.065 5.148,-1.105 6.961,1.738 1.341,2.101 2.942,4.034 4.317,6.115 6.002,9.087 13.918,14.634 25.289,14.044 3.082,-0.16 6.179,-0.01 9.266,-0.091 4.485,-0.118 8.53,-1.735 11.353,-5.119 4.481,-5.372 7.728,-11.468 8.098,-18.701 0.105,-2.058 -0.086,-4.135 0.073,-6.187 0.658,-8.501 -2.696,-15.085 -9.093,-20.517 -2.828,-2.401 -5.789,-3.889 -9.45,-4.231 -2.032,-0.19 -4.026,-0.759 -6.051,-1.066 -6.445,-0.977 -10.359,3.375 -8.295,9.5 0.975,2.892 2.34,5.787 4.154,8.21 1.048,1.398 3.315,2.501 5.087,2.582 2.43,0.113 3.017,-2.14 3.436,-4.354 0.235,-1.243 1.215,-2.752 2.283,-3.276 0.624,-0.307 2.262,0.902 3.135,1.748 5.792,5.616 7.805,16.939 4.406,24.204 C 84.161,66.168 75,70.981 69.286,70.472 59.128,69.566 52.275,63.609 47.501,55.303 41.053,44.086 40.75,31.792 43.023,19.388 c 0.519,-2.832 1.766,-5.67 3.292,-8.121 0.878,-1.41 2.91,-2.723 4.558,-2.914 5.506,-0.638 11.086,-1.129 16.615,-0.955 5.038,0.159 7.421,-0.416 9.751,-4.908 1.33,-2.566 2.449,-5.426 2.792,-8.259 0.24,-1.976 -0.617,-4.356 -1.67,-6.152 -1.42,-2.422 -4.931,-3.17 -7.492,-2.165 -2.751,1.08 -2.874,3.333 -2.717,5.85 0.324,5.211 -0.22,5.966 -4.195,6.584 -3.204,0.498 -3.754,-0.161 -3.504,-3.501 0.215,-2.878 0.398,-5.805 0.114,-8.662 -0.271,-2.725 -2.325,-3.911 -4.988,-4.031 -4.286,-0.194 -6.057,2.608 -4.424,6.638 0.966,2.382 2.005,4.929 2.082,7.431 0.117,3.824 -3.091,6.492 -6.896,6.501 -3.338,0.008 -4.421,-1.003 -4.45,-4.394 -0.074,-8.835 -0.204,-17.672 -0.104,-26.505 0.104,-9.126 -2.694,-17.401 -7.356,-25.013 -0.888,-1.449 -3.681,-2.377 -5.62,-2.421 -9.703,-0.219 -19.415,-0.074 -29.124,-0.037 -8.603,0.032 -8.745,0.022 -10.07,8.875 -0.602,4.02 -0.865,8.17 -0.561,12.207 0.12,1.596 2.095,4.194 3.411,4.315 2.597,0.24 3.733,-2.104 4.159,-4.738 0.464,-2.873 1.278,-5.705 2.131,-8.496 1.008,-3.296 3.507,-4.595 6.802,-4.408 5.127,0.291 10.261,0.548 15.371,1.045 5.09,0.496 8.714,3.307 9.523,8.38 1.085,6.808 1.735,13.71 2.116,20.597 0.274,4.964 -0.017,9.982 -0.389,14.95 -0.29,3.873 -2.093,4.646 -7.104,3.599 -2.653,-0.555 -3.588,-2.676 -2.557,-5.801 2.411,-7.314 2.4,-7.285 -4.554,-9.922 -2.709,-1.027 -5.377,-1.989 -7.662,0.713 -1.719,2.031 -1.67,6.533 0.259,9.119 1.035,1.388 1.883,2.488 0.994,4.314 C 10.535,1.199 8.765,0.996 7.024,0.853 4.86,0.676 2.709,0.338 0,0"
             style="fill:#231f20;fill-opacity:1;fill-rule:nonzero;stroke:none"
             id="path1025" />
        </g>
        <g
           id="g1027"
           transform="translate(333.2377,444.1615)">
          <path
             d="m 0,0 c -0.402,-6.465 -0.722,-12.938 -1.274,-19.39 -0.116,-1.367 -0.918,-2.763 -1.688,-3.963 -1.149,-1.792 -2.672,-3.285 -5.097,-2.579 -2.468,0.718 -2.955,2.773 -2.717,4.935 0.395,3.572 -1.465,4.196 -4.473,4.097 -4.989,-0.163 -9.988,-0.13 -14.98,-0.051 -2.347,0.037 -3.689,-0.705 -3.501,-3.264 0.032,-0.439 -0.004,-0.884 -0.03,-1.326 -0.145,-2.434 -1.048,-4.38 -3.694,-4.765 -2.877,-0.42 -6.847,2.031 -7.159,4.572 -0.549,4.471 0.042,8.911 2.378,12.79 2.653,4.404 3.763,4.468 9.148,3.593 4.193,-0.681 8.468,-0.983 12.718,-1.15 5.05,-0.199 7.581,1.672 9.203,6.48 0.562,1.665 0.842,3.429 1.189,5.161 0.447,2.236 1.581,3.909 3.945,4.147 2.699,0.272 4.583,-1.283 5.453,-3.641 0.645,-1.748 0.62,-3.744 0.894,-5.629 z"
             style="fill:#231f20;fill-opacity:1;fill-rule:nonzero;stroke:none"
             id="path1029" />
        </g>
      </g>
    </g>
  </g>
</svg>
