<?xml version="1.0" encoding="UTF-8" standalone="no"?>
<!-- Created with Inkscape (http://www.inkscape.org/) -->

<svg
   width="36.450047mm"
   height="41.367599mm"
   viewBox="0 0 36.450047 41.367599"
   version="1.1"
   id="svg582"
   inkscape:version="1.1 (c68e22c387, 2021-05-23)"
   sodipodi:docname="fomorian ii.svg"
   xmlns:inkscape="http://www.inkscape.org/namespaces/inkscape"
   xmlns:sodipodi="http://sodipodi.sourceforge.net/DTD/sodipodi-0.dtd"
   xmlns="http://www.w3.org/2000/svg"
   xmlns:svg="http://www.w3.org/2000/svg">
  <sodipodi:namedview
     id="namedview584"
     pagecolor="#505050"
     bordercolor="#eeeeee"
     borderopacity="1"
     inkscape:pageshadow="0"
     inkscape:pageopacity="0"
     inkscape:pagecheckerboard="0"
     inkscape:document-units="mm"
     showgrid="false"
     inkscape:zoom="0.77771465"
     inkscape:cx="68.791298"
     inkscape:cy="77.792029"
     inkscape:window-width="1284"
     inkscape:window-height="1081"
     inkscape:window-x="1680"
     inkscape:window-y="212"
     inkscape:window-maximized="0"
     inkscape:current-layer="layer1" />
  <defs
     id="defs579">
    <clipPath
       clipPathUnits="userSpaceOnUse"
       id="clipPath55">
      <path
         d="M 0,841.89 H 595.276 V 0 H 0 Z"
         id="path53" />
    </clipPath>
  </defs>
  <g
     inkscape:label="Layer 1"
     inkscape:groupmode="layer"
     id="layer1"
     transform="translate(-86.728584,-127.8162)">
    <g
       id="g49"
       transform="matrix(0.35277777,0,0,-0.35277777,4.0096311,216.23904)">
      <g
         id="g51"
         clip-path="url(#clipPath55)">
        <g
           id="g57"
           transform="translate(337.8019,144.554)">
          <path
             d="m 0,0 c -3.71,-8.944 -17.39,-13.432 -26.162,-8.26 -3.169,1.868 -5.54,1.559 -8.435,-0.267 -7.491,-4.726 -14.097,-2.704 -17.987,5.262 -0.895,1.832 -1.439,4.202 -2.91,5.29 -1.68,1.243 -4.445,2.206 -6.321,1.709 -2.675,-0.708 -2.22,-3.603 -1.705,-5.928 0.081,-0.366 0.406,-0.685 0.457,-1.049 0.317,-2.267 1.223,-6.361 0.772,-6.518 -2.889,-1.008 -6.073,-1.299 -9.175,-1.408 -0.422,-0.015 -1.583,2.514 -1.265,3.496 0.859,2.646 2.118,5.228 3.601,7.595 4.636,7.397 6.497,15.425 6.338,24.093 -0.353,19.183 -0.539,38.368 -0.856,57.552 -0.027,1.64 -0.436,3.295 -0.825,4.906 -1.692,7.019 -5.494,10.734 -13.142,11.234 -5.329,0.348 -9.15,-3.318 -11.782,-7.655 -3.498,-5.765 -3.626,-12.094 -2.235,-18.57 1.807,-8.415 5.805,-15.838 10.448,-22.909 6.085,-9.268 8.587,-19.641 9.521,-30.409 0.636,-7.345 -1.748,-14.181 -5.873,-20.266 -1.019,-1.503 -2.73,-2.634 -4.314,-3.632 -2.021,-1.274 -4.276,-2.171 -6.359,-3.355 -3.486,-1.981 -6.368,-0.785 -7.127,3.166 -0.409,2.132 -0.677,4.308 -0.781,6.475 -0.149,3.098 1.6,4.362 4.681,3.572 9.208,-2.359 11.349,-0.416 12.573,9.212 2.191,17.235 -5.018,30.886 -15.684,43.257 -7.792,9.036 -10.114,19.571 -8.074,30.789 1.648,9.059 7.943,14.889 17.126,16.553 8.722,1.581 16.565,-0.279 22.393,-8.635 3.479,7.479 9.955,9.525 17.178,10.559 15.769,2.257 33.331,-12.151 31.977,-27.408 -0.571,-6.429 -3.626,-12.844 -6.523,-18.792 -2.25,-4.621 -10.455,-4.375 -13.66,-0.231 -3.217,4.159 -0.737,9.863 4.633,10.657 5.866,0.867 9.029,4.509 8.978,10.336 -0.071,8.083 -5.07,14.892 -12.801,17.22 -1.427,0.43 -3.116,0.757 -4.507,0.414 -6.626,-1.634 -13.191,-3.664 -17.293,-9.671 -1.272,-1.863 -2.289,-4.388 -2.24,-6.584 0.297,-13.291 0.89,-26.576 1.481,-39.86 0.375,-8.432 0.063,-17.024 1.658,-25.234 1.28,-6.586 4.71,-12.828 7.703,-18.971 1.278,-2.624 4.409,-3.098 7.153,-1.969 3.034,1.248 5.661,3.125 5.786,6.9 0.033,1.012 -0.454,2.078 -0.274,3.04 0.39,2.091 0.771,5.735 1.661,5.892 2.685,0.476 5.733,-0.067 8.365,-0.993 0.717,-0.252 1.245,-3.728 0.527,-4.918 -3.459,-5.725 -0.543,-9.585 7.056,-8.638 1.378,0.172 2.762,0.584 4.054,1.107 3.385,1.368 3.952,3.122 2.157,6.271 -0.506,0.887 -1.092,1.729 -1.578,2.626 -1.221,2.25 -0.304,3.622 1.883,4.452 3.634,1.378 6.71,0.416 9.728,-3.056 z"
             style="fill:#231f20;fill-opacity:1;fill-rule:nonzero;stroke:none"
             id="path59" />
        </g>
        <g
           id="g61"
           transform="translate(325.5497,178.138)">
          <path
             d="m 0,0 c -3.376,0.68 -6.097,1.459 -6.38,5.054 -0.251,3.189 1.273,5.467 3.988,6.833 3.257,1.638 6.489,1.301 9.299,-1.084 5.855,-4.97 3.653,-17.33 -3.601,-20.049 -9.04,-3.389 -24.73,-0.203 -29.679,11.662 -0.245,0.588 -0.767,1.195 -0.714,1.75 0.187,1.972 -0.054,5.097 0.997,5.655 2.656,1.409 3.489,-1.408 4.384,-3.36 C -18.063,-1.489 -8.232,-4.568 0,0"
             style="fill:#231f20;fill-opacity:1;fill-rule:nonzero;stroke:none"
             id="path63" />
        </g>
        <g
           id="g65"
           transform="translate(253.7636,221.2578)">
          <path
             d="M 0,0 C 0.012,5.095 2.367,7.601 7.054,7.503 10.307,7.435 13.406,4.09 13.448,0.602 13.495,-3.319 10.293,-6.862 6.705,-6.857 2.893,-6.853 -0.009,-3.885 0,0"
             style="fill:#231f20;fill-opacity:1;fill-rule:nonzero;stroke:none"
             id="path67" />
        </g>
      </g>
    </g>
  </g>
</svg>
