<?xml version="1.0" encoding="UTF-8" standalone="no"?>
<!-- Created with Inkscape (http://www.inkscape.org/) -->

<svg
   width="27.784832mm"
   height="40.267761mm"
   viewBox="0 0 27.784832 40.267761"
   version="1.1"
   id="svg1176"
   inkscape:version="1.1 (c68e22c387, 2021-05-23)"
   sodipodi:docname="hellig.svg"
   xmlns:inkscape="http://www.inkscape.org/namespaces/inkscape"
   xmlns:sodipodi="http://sodipodi.sourceforge.net/DTD/sodipodi-0.dtd"
   xmlns="http://www.w3.org/2000/svg"
   xmlns:svg="http://www.w3.org/2000/svg">
  <sodipodi:namedview
     id="namedview1178"
     pagecolor="#505050"
     bordercolor="#eeeeee"
     borderopacity="1"
     inkscape:pageshadow="0"
     inkscape:pageopacity="0"
     inkscape:pagecheckerboard="0"
     inkscape:document-units="mm"
     showgrid="false"
     inkscape:zoom="0.77771465"
     inkscape:cx="52.075655"
     inkscape:cy="76.50621"
     inkscape:window-width="1284"
     inkscape:window-height="1081"
     inkscape:window-x="1500"
     inkscape:window-y="162"
     inkscape:window-maximized="0"
     inkscape:current-layer="layer1" />
  <defs
     id="defs1173">
    <clipPath
       clipPathUnits="userSpaceOnUse"
       id="clipPath725">
      <path
         d="M 0,841.89 H 595.276 V 0 H 0 Z"
         id="path723" />
    </clipPath>
  </defs>
  <g
     inkscape:label="Layer 1"
     inkscape:groupmode="layer"
     id="layer1"
     transform="translate(-91.061193,-128.36612)">
    <g
       id="g719"
       transform="matrix(0.35277777,0,0,-0.35277777,73.985734,309.41804)">
      <g
         id="g721"
         clip-path="url(#clipPath725)">
        <g
           id="g727"
           transform="translate(101.2754,488.2553)">
          <path
             d="m 0,0 c 0,-3.957 0.356,-7.955 -0.095,-11.86 -0.508,-4.399 -3.914,-6.336 -7.176,-3.599 -5.663,4.752 -11.996,4.359 -18.473,4.23 -1.664,-0.033 -3.401,-0.315 -4.961,-0.879 -6.568,-2.376 -10.969,-9.425 -9.633,-15.174 1.116,-4.8 6.417,-7.914 13.781,-7.132 4.105,0.436 8.375,1.643 12.018,3.553 5.17,2.711 10.083,3.382 15.453,1.214 1.571,-0.634 3.176,-1.239 4.82,-1.632 15.878,-3.796 20.785,-15.201 17.771,-33.842 -2.751,-17.017 -26.257,-26.651 -39.034,-23.452 -6.661,1.669 -13.106,3.119 -17.208,9.57 -7.687,12.091 1.604,31.343 15.769,32.267 5.736,0.374 13.538,-4.766 15.452,-10.181 2.144,-6.066 -2.728,-13.386 -9.106,-13.305 -1.397,0.018 -3.002,1.259 -4.022,2.38 -0.296,0.326 0.986,2.284 1.774,3.32 0.48,0.631 1.669,0.765 2.061,1.412 0.793,1.311 2.104,3.198 1.67,4.158 -0.699,1.548 -2.455,3.19 -4.084,3.64 -4.742,1.31 -8.971,-1.606 -10.161,-6.461 -2.063,-8.422 0.55,-14.896 7.207,-17.855 6.438,-2.862 16.965,-0.56 20.856,5.265 5.253,7.864 7.213,16.729 4.049,25.841 -1.1,3.17 -3.81,6.78 -6.736,8.128 -7.872,3.626 -16.219,4.981 -24.228,-0.322 -4.074,-2.698 -8.262,-3.5 -13.442,-3.506 -14.576,-0.016 -18.621,21.22 -11.439,29.502 5.518,6.362 12.216,9.924 20.498,10.573 3.38,0.264 6.801,-0.004 10.184,0.243 1.612,0.117 3.52,0.457 4.694,1.424 2.769,2.281 1.724,15.858 -1.475,17.227 -2.034,0.871 -5.107,0.912 -7.062,-0.028 -2.566,-1.232 -1.216,-3.718 -0.22,-5.896 2.9,-6.338 2.014,-7.585 -5.161,-7.813 -1.131,-0.035 -2.269,-0.035 -3.398,0.039 -6.452,0.423 -7.22,1.692 -4.365,7.159 0.13,0.249 0.365,0.449 0.471,0.704 0.615,1.482 1.206,2.974 1.805,4.463 -1.323,0.348 -2.872,1.296 -3.919,0.905 -1.632,-0.61 -3.137,-1.955 -4.271,-3.337 -0.57,-0.696 -0.429,-2.202 -0.22,-3.266 0.726,-3.691 -0.182,-6.162 -4.343,-6.575 -4.623,-0.46 -8.391,1.806 -8.871,5.903 -0.246,2.102 -0.115,4.994 1.127,6.393 4.853,5.467 9.93,10.957 18.153,11.063 14.157,0.181 28.318,0.642 42.47,0.46 C 19.242,24.79 26.68,15.691 25.82,5.399 25.624,3.052 24.643,1.883 22.243,1.541 18.411,0.995 14.639,-0.062 10.796,-0.42 9.16,-0.572 6.021,0.392 5.972,1.032 5.825,2.966 6.437,5.286 7.567,6.881 c 0.836,1.181 3.288,1.127 4.381,2.246 0.96,0.981 1.791,3.13 1.352,4.238 -1.322,3.334 -4.57,2.653 -7.361,2.549 C 3.222,15.813 0.636,15.131 0.442,11.873 0.207,7.928 0.386,3.959 0.386,0.001 0.257,0 0.129,0 0,0"
             style="fill:#231f20;fill-opacity:1;fill-rule:nonzero;stroke:none"
             id="path729" />
        </g>
        <g
           id="g731"
           transform="translate(76.4232,471.9646)">
          <path
             d="m 0,0 c 2.8,0.052 5.068,-2.455 5.052,-5.582 -0.019,-3.521 -3.441,-7.524 -6.561,-7.675 -3.054,-0.148 -5.339,2.469 -5.428,6.219 C -7.025,-3.318 -3.824,-0.071 0,0"
             style="fill:#231f20;fill-opacity:1;fill-rule:nonzero;stroke:none"
             id="path733" />
        </g>
      </g>
    </g>
  </g>
</svg>
