<?xml version="1.0" encoding="UTF-8" standalone="no"?>
<!-- Created with Inkscape (http://www.inkscape.org/) -->

<svg
   width="116.35926"
   height="176.93518"
   viewBox="0 0 30.786718 46.814101"
   version="1.1"
   id="svg346"
   inkscape:version="1.1 (c68e22c387, 2021-05-23)"
   sodipodi:docname="uld.svg"
   xmlns:inkscape="http://www.inkscape.org/namespaces/inkscape"
   xmlns:sodipodi="http://sodipodi.sourceforge.net/DTD/sodipodi-0.dtd"
   xmlns="http://www.w3.org/2000/svg"
   xmlns:svg="http://www.w3.org/2000/svg">
  <sodipodi:namedview
     id="namedview348"
     pagecolor="#ffffff"
     bordercolor="#666666"
     borderopacity="1.0"
     inkscape:pageshadow="2"
     inkscape:pageopacity="0.0"
     inkscape:pagecheckerboard="0"
     inkscape:document-units="mm"
     showgrid="false"
     units="px"
     fit-margin-top="0"
     fit-margin-left="0"
     fit-margin-right="0"
     fit-margin-bottom="0"
     inkscape:zoom="0.77771465"
     inkscape:cx="58.504749"
     inkscape:cy="88.078578"
     inkscape:window-width="1284"
     inkscape:window-height="1081"
     inkscape:window-x="1841"
     inkscape:window-y="162"
     inkscape:window-maximized="0"
     inkscape:current-layer="layer1" />
  <defs
     id="defs343">
    <clipPath
       clipPathUnits="userSpaceOnUse"
       id="clipPath135">
      <path
         d="M 0,841.89 H 595.276 V 0 H 0 Z"
         id="path133" />
    </clipPath>
    <clipPath
       clipPathUnits="userSpaceOnUse"
       id="clipPath155">
      <path
         d="M 0,841.89 H 595.276 V 0 H 0 Z"
         id="path153" />
    </clipPath>
    <clipPath
       clipPathUnits="userSpaceOnUse"
       id="clipPath23">
      <path
         d="M 0,841.89 H 595.276 V 0 H 0 Z"
         id="path21" />
    </clipPath>
  </defs>
  <g
     inkscape:label="Layer 1"
     inkscape:groupmode="layer"
     id="layer1"
     transform="translate(8.2546503,-124.80001)">
    <g
       id="g17"
       transform="matrix(0.35277777,0,0,-0.35277777,-26.336399,311.72365)">
      <g
         id="g19"
         clip-path="url(#clipPath23)">
        <g
           id="g25"
           transform="translate(54.1718,429.9413)">
          <path
             d="m 0,0 c 0.67,4.745 1.178,9.521 2.048,14.23 1.433,7.755 3.137,15.461 4.66,23.201 1.301,6.615 4.22,12.235 9.593,16.493 1.545,1.224 3.036,2.585 4.272,4.11 1.191,1.469 2.021,3.231 3.009,4.864 -1.597,0.295 -3.283,0.357 -4.778,0.923 -8.25,3.121 -16.793,8.224 -15.896,17.158 0.469,4.677 -1.289,8.746 -4.155,12.561 -2.771,3.689 -2.201,4.478 2.527,4.787 1.41,0.092 2.831,0.049 4.247,0.038 9.021,-0.076 8.6,-0.05 7.996,-8.847 -0.319,-4.654 0.865,-9.485 1.862,-14.13 0.658,-3.066 3.482,-3.352 6.182,-3.078 2.957,0.299 6.224,1.094 6.235,4.503 0.013,4.077 -0.934,8.215 -1.941,12.207 -0.371,1.469 -2.225,2.513 -3.165,3.91 -0.595,0.883 -1.251,2.189 -1.02,3.084 1.192,4.628 5.231,3.568 8.344,3.467 3.004,-0.097 8.565,0.963 7.617,-3.887 C 34.873,81.458 35.603,66.936 26.744,53.572 16.632,38.318 11.149,20.371 11.593,1.417 c 0.269,-11.46 6.088,-18.344 15.456,-18.726 8.536,-0.348 17.064,5.316 19.396,13.637 1.198,4.277 1.811,8.934 1.57,13.359 -0.941,17.207 -2.441,34.383 -3.459,51.587 -0.211,3.571 0.208,7.381 1.281,10.784 2.259,7.164 3.433,14.236 1.488,21.646 -0.571,2.173 -1.095,5.156 1.867,5.596 3.153,0.469 6.528,-0.187 9.717,-0.81 0.39,-0.076 0.759,-3.215 0.188,-4.52 -0.748,-1.708 -2.776,-2.832 -3.647,-4.519 -1.237,-2.398 -2.587,-5.051 -2.7,-7.647 -0.201,-4.645 3.513,-9.04 7.03,-9.392 3.562,-0.356 6.717,2.171 7.739,7.517 0.661,3.454 0.09,7.197 -0.259,10.778 -0.659,6.776 0.87,8.741 7.612,9.18 0.282,0.018 0.576,0.062 0.847,0.008 2.88,-0.576 5.757,-1.169 8.634,-1.757 -1.055,-2.495 -2.232,-4.947 -3.134,-7.496 -1.196,-3.379 -2.767,-6.776 -3.113,-10.27 -0.513,-5.174 -1.902,-9.523 -4.744,-14.104 -2.621,-4.225 -3.652,-10.055 -3.644,-15.174 0.03,-18.359 0.92,-36.714 1.227,-55.074 0.123,-7.401 0.673,-14.596 3.521,-21.553 1.77,-4.323 1.069,-5.256 -3.538,-6.454 -1.091,-0.284 -2.215,-0.493 -3.337,-0.604 -9.036,-0.896 -10.512,1.217 -7.998,10.014 1.377,4.82 2.465,9.917 2.489,14.894 0.092,19.516 -0.267,39.035 -0.529,58.551 -0.03,2.242 -0.173,4.586 -0.869,6.683 -0.536,1.613 -2.023,2.912 -3.087,4.351 -1.58,-1.372 -4.313,-2.587 -4.526,-4.145 -0.645,-4.716 -0.583,-9.58 -0.31,-14.358 C 53.58,29.04 54.845,14.704 55.462,0.339 55.651,-4.072 54.801,-8.689 53.572,-12.967 50.676,-23.05 44.155,-29.732 33.419,-31.073 21.577,-32.553 11.578,-29.067 4.697,-18.749 0.916,-13.08 0.053,-6.696 0,0"
             style="fill:#231f20;fill-opacity:1;fill-rule:nonzero;stroke:none"
             id="path27" />
        </g>
        <g
           id="g29"
           transform="translate(92.6694,430.4912)">
          <path
             d="m 0,0 c 0.062,-4.65 -3.573,-8.261 -8.506,-8.449 -5.25,-0.2 -8.64,3.35 -8.649,9.059 -0.008,4.794 2.816,7.626 7.863,7.882 C -3.739,8.774 -0.072,5.424 0,0"
             style="fill:#231f20;fill-opacity:1;fill-rule:nonzero;stroke:none"
             id="path31" />
        </g>
        <g
           id="g33"
           transform="translate(83.3482,447.9423)">
          <path
             d="m 0,0 c -3.019,-0.114 -5.662,2.7 -5.702,6.072 -0.042,3.485 2.168,5.716 5.755,5.804 C 3.34,11.957 5.465,10.722 5.593,7.104 5.733,3.192 3.35,0.127 0,0"
             style="fill:#231f20;fill-opacity:1;fill-rule:nonzero;stroke:none"
             id="path35" />
        </g>
      </g>
    </g>
  </g>
</svg>
