<?xml version="1.0" encoding="UTF-8" standalone="no"?>
<!-- Created with Inkscape (http://www.inkscape.org/) -->

<svg
   width="34.192375mm"
   height="46.374317mm"
   viewBox="0 0 34.192375 46.374317"
   version="1.1"
   id="svg995"
   inkscape:version="1.1 (c68e22c387, 2021-05-23)"
   sodipodi:docname="jotun.svg"
   xmlns:inkscape="http://www.inkscape.org/namespaces/inkscape"
   xmlns:sodipodi="http://sodipodi.sourceforge.net/DTD/sodipodi-0.dtd"
   xmlns="http://www.w3.org/2000/svg"
   xmlns:svg="http://www.w3.org/2000/svg">
  <sodipodi:namedview
     id="namedview997"
     pagecolor="#ffffff"
     bordercolor="#666666"
     borderopacity="1.0"
     inkscape:pageshadow="2"
     inkscape:pageopacity="0.0"
     inkscape:pagecheckerboard="0"
     inkscape:document-units="mm"
     showgrid="false"
     fit-margin-top="0"
     fit-margin-left="0"
     fit-margin-right="0"
     fit-margin-bottom="0"
     inkscape:zoom="0.77771465"
     inkscape:cx="-304.09611"
     inkscape:cy="88.078578"
     inkscape:window-width="1284"
     inkscape:window-height="1081"
     inkscape:window-x="1913"
     inkscape:window-y="222"
     inkscape:window-maximized="0"
     inkscape:current-layer="layer1" />
  <defs
     id="defs992">
    <clipPath
       clipPathUnits="userSpaceOnUse"
       id="clipPath1101">
      <path
         d="M 0,841.89 H 595.276 V 0 H 0 Z"
         id="path1099" />
    </clipPath>
  </defs>
  <g
     inkscape:label="Layer 1"
     inkscape:groupmode="layer"
     id="layer1"
     transform="translate(-87.85742,-125.31285)">
    <g
       id="g1095"
       transform="matrix(0.35277777,0,0,-0.35277777,68.740888,411.27589)">
      <g
         id="g1097"
         clip-path="url(#clipPath1101)">
        <g
           id="g1103"
           transform="translate(112.0571,733.9893)">
          <path
             d="m 0,0 c 0,-10.245 -0.118,-20.492 0.047,-30.735 0.09,-5.574 2.718,-9.992 7.964,-12.148 2.059,-0.847 4.685,-0.533 7.035,-0.408 2.122,0.113 4.214,0.96 6.329,1.003 3.546,0.071 6.836,-0.833 7.267,-5.092 0.395,-3.91 -3.371,-7.435 -7.662,-7.454 -4.945,-0.023 -9.891,0.024 -14.836,0.053 -11.789,0.07 -23.581,0.034 -35.364,0.325 -2.167,0.054 -4.568,1.061 -6.393,2.308 -3.452,2.36 -3.311,6.643 0.478,8.405 3.033,1.411 6.627,2.228 9.972,2.23 5.29,0.003 11.891,4.609 11.781,9.866 -0.384,18.339 -0.662,36.707 -2.037,54.986 -0.56,7.445 -3.874,14.538 -10.702,19.326 -4.278,3.001 -8.29,3.059 -12.496,0.533 -5.699,-3.422 -8.733,-8.447 -8.524,-15.208 0.18,-5.8 1.769,-7.047 7.527,-8.143 2.086,-0.397 5.373,-3.012 5.277,-4.422 -0.169,-2.455 -2.113,-6.199 -4.089,-6.78 -2.752,-0.808 -7.208,-0.265 -9.198,1.569 -6.366,5.864 -10.592,13.344 -10.222,22.321 0.33,8.013 2.474,15.748 10.427,19.611 9.267,4.502 18.896,6.556 28.341,0.024 0.819,-0.566 1.621,-1.157 2.437,-1.726 5.613,-3.911 8.788,-3.903 14.493,0.032 11.275,7.777 20.597,7.821 31.69,0.15 C 39.749,43.567 42.26,26.744 34.536,16.953 32.074,13.832 29.474,10.82 27.015,7.697 24.752,4.823 21.819,2.666 18.562,5.123 c -2.528,1.907 -6.163,6.137 -5.489,7.668 1.29,2.929 5.026,5.976 8.231,6.633 6.452,1.323 8.785,3.623 6.666,9.857 -1.108,3.258 -2.589,6.463 -4.378,9.405 C 19.459,45.48 8.543,45.634 4.879,38.446 1.957,32.716 0.046,26.201 -0.908,19.826 -1.876,13.35 -1.122,6.619 -1.122,0 -0.748,0 -0.374,0 0,0"
             style="fill:#231f20;fill-opacity:1;fill-rule:nonzero;stroke:none"
             id="path1105" />
        </g>
        <g
           id="g1107"
           transform="translate(102.2203,792.8786)">
          <path
             d="M 0,0 C -4.95,-0.025 -8.466,3.173 -8.523,7.752 -8.589,13.088 -3.751,17.77 1.783,17.725 6.357,17.689 9.363,14.731 9.342,10.287 9.315,4.577 5.182,0.026 0,0"
             style="fill:#231f20;fill-opacity:1;fill-rule:nonzero;stroke:none"
             id="path1109" />
        </g>
      </g>
    </g>
  </g>
</svg>
