<?xml version="1.0" encoding="UTF-8" standalone="no"?>
<!-- Created with Inkscape (http://www.inkscape.org/) -->

<svg
   width="46.721569mm"
   height="36.396801mm"
   viewBox="0 0 46.721569 36.396801"
   version="1.1"
   id="svg784"
   inkscape:version="1.1 (c68e22c387, 2021-05-23)"
   sodipodi:docname="krig.svg"
   xmlns:inkscape="http://www.inkscape.org/namespaces/inkscape"
   xmlns:sodipodi="http://sodipodi.sourceforge.net/DTD/sodipodi-0.dtd"
   xmlns="http://www.w3.org/2000/svg"
   xmlns:svg="http://www.w3.org/2000/svg">
  <sodipodi:namedview
     id="namedview786"
     pagecolor="#505050"
     bordercolor="#eeeeee"
     borderopacity="1"
     inkscape:pageshadow="0"
     inkscape:pageopacity="0"
     inkscape:pagecheckerboard="0"
     inkscape:document-units="mm"
     showgrid="false"
     inkscape:zoom="0.77771465"
     inkscape:cx="88.078578"
     inkscape:cy="68.791298"
     inkscape:window-width="1284"
     inkscape:window-height="1081"
     inkscape:window-x="2072"
     inkscape:window-y="183"
     inkscape:window-maximized="0"
     inkscape:current-layer="layer1" />
  <defs
     id="defs781">
    <clipPath
       clipPathUnits="userSpaceOnUse"
       id="clipPath55">
      <path
         d="M 0,841.89 H 595.276 V 0 H 0 Z"
         id="path53" />
    </clipPath>
  </defs>
  <g
     inkscape:label="Layer 1"
     inkscape:groupmode="layer"
     id="layer1"
     transform="translate(-81.592824,-130.3016)">
    <g
       id="g49"
       transform="matrix(0.35277777,0,0,-0.35277777,-3.1882117,315.72618)">
      <g
         id="g51"
         clip-path="url(#clipPath55)">
        <g
           id="g57"
           transform="translate(342.6882,491.615)">
          <path
             d="m 0,0 c 1.351,-18.835 2.753,-37.666 4.003,-56.508 0.204,-3.062 0.171,-6.271 -0.529,-9.228 -0.892,-3.766 -4.099,-4.67 -5.948,-1.548 -3.366,5.681 -8.326,5.044 -13.388,4.649 -2.518,-0.196 -5.067,-0.671 -7.48,-1.415 -8.24,-2.541 -15.095,0.104 -20.784,5.852 -2.391,2.415 -3.858,2.29 -6.355,0.503 -6.917,-4.951 -14.727,-6.789 -23.234,-6.48 -7.919,0.288 -15.859,-0.055 -23.782,0.163 -1.64,0.045 -3.245,1.335 -4.867,2.051 1.296,1.374 2.361,3.209 3.948,4.006 1.958,0.984 4.4,0.952 6.545,1.634 4.039,1.285 4.775,2.578 2.716,6.109 -5.125,8.788 -6.089,18.721 -8.277,28.321 -0.621,2.729 -0.165,5.111 3.063,5.983 8.996,2.427 17.963,4.972 27.002,7.228 2.859,0.713 4.747,-1.411 3.255,-3.77 -2.368,-3.744 -5.396,-7.139 -8.499,-10.34 -6.423,-6.626 -7.004,-16.388 -1.086,-22.925 5.683,-6.278 17.329,-6.063 22.735,0.419 3.297,3.954 2.83,10.666 -1.327,14.541 -1.638,1.526 -4.528,2.63 -3.025,5.139 1.15,1.921 3.654,3.745 5.838,4.173 3.538,0.692 7.386,0.649 10.948,0.03 1.834,-0.318 3.872,-2.249 4.856,-3.993 1.381,-2.45 -0.697,-3.794 -2.65,-5.311 -5.264,-4.089 -6.365,-14.327 -2.483,-19.942 4.321,-6.248 10.66,-7.604 17.975,-3.708 5.447,2.902 9.4,7.174 11.412,13.106 2.465,7.272 -0.382,13.01 -7.66,15.179 -1.889,0.563 -3.866,0.877 -5.825,1.147 -2.703,0.373 -3.974,1.843 -3.96,4.541 0.015,2.906 1.725,3.923 4.337,4.04 2.543,0.114 5.117,0.064 7.621,0.452 7.372,1.144 9.443,3.343 8.951,10.661 -0.339,5.035 -1.703,9.996 -2.513,15.005 -0.615,3.805 -2.77,8.635 -1.231,11.228 2.592,4.366 7.108,8.134 11.641,10.698 9.544,5.398 22.36,0.852 26.766,-8.7 C 31.8,16.289 29.538,9.975 23.013,6.822 20.217,5.471 17.484,3.981 14.784,2.446 12.394,1.087 10.183,0.355 7.913,2.719 c -2.687,2.8 -4.341,5.917 -3.465,9.879 0.027,0.126 2.535,0.223 2.964,-0.353 1.465,-1.967 3.223,-4.057 5.458,-2.371 2.034,1.534 3.829,4.141 4.448,6.597 0.744,2.954 -3.856,7.311 -7.513,8.026 C 5.787,25.282 2.366,23.594 1.321,19.379 0.385,15.601 0.319,11.58 0.139,7.654 0.023,5.126 0.396,2.576 0.549,0.035 0.366,0.024 0.183,0.012 0,0"
             style="fill:#231f20;fill-opacity:1;fill-rule:nonzero;stroke:none"
             id="path59" />
        </g>
        <g
           id="g61"
           transform="translate(302.9463,502.4692)">
          <path
             d="m 0,0 c 0.174,-4.781 -1.638,-6.853 -6.138,-7.013 -5.003,-0.179 -7.923,2.565 -7.962,7.48 -0.033,4.29 2.12,6.382 6.803,6.608 C -2.762,7.294 -0.174,4.785 0,0"
             style="fill:#231f20;fill-opacity:1;fill-rule:nonzero;stroke:none"
             id="path63" />
        </g>
      </g>
    </g>
  </g>
</svg>
