<?xml version="1.0" encoding="UTF-8" standalone="no"?>
<!-- Created with Inkscape (http://www.inkscape.org/) -->

<svg
   width="30.203144mm"
   height="43.813522mm"
   viewBox="0 0 30.203144 43.813522"
   version="1.1"
   id="svg388"
   inkscape:version="1.1 (c68e22c387, 2021-05-23)"
   sodipodi:docname="liv.svg"
   xmlns:inkscape="http://www.inkscape.org/namespaces/inkscape"
   xmlns:sodipodi="http://sodipodi.sourceforge.net/DTD/sodipodi-0.dtd"
   xmlns="http://www.w3.org/2000/svg"
   xmlns:svg="http://www.w3.org/2000/svg">
  <sodipodi:namedview
     id="namedview390"
     pagecolor="#505050"
     bordercolor="#eeeeee"
     borderopacity="1"
     inkscape:pageshadow="0"
     inkscape:pageopacity="0"
     inkscape:pagecheckerboard="0"
     inkscape:document-units="mm"
     showgrid="false"
     inkscape:zoom="0.77771465"
     inkscape:cx="604.97768"
     inkscape:cy="554.83075"
     inkscape:window-width="1284"
     inkscape:window-height="1081"
     inkscape:window-x="1940"
     inkscape:window-y="260"
     inkscape:window-maximized="0"
     inkscape:current-layer="layer1" />
  <defs
     id="defs385">
    <clipPath
       clipPathUnits="userSpaceOnUse"
       id="clipPath79">
      <path
         d="M 0,841.89 H 595.276 V 0 H 0 Z"
         id="path77" />
    </clipPath>
  </defs>
  <g
     inkscape:label="Layer 1"
     inkscape:groupmode="layer"
     id="layer1"
     transform="translate(55.2459,-1.5674669)">
    <g
       id="g73"
       transform="matrix(0.35277777,0,0,-0.35277777,-211.68166,281.03791)">
      <g
         id="g75"
         clip-path="url(#clipPath79)">
        <g
           id="g81"
           transform="translate(482.9279,668.0493)">
          <path
             d="m 0,0 c -11.329,0 -22.66,-0.131 -33.987,0.052 -6.298,0.101 -6.822,1.53 -3.425,7.052 1.159,1.884 2.676,3.981 2.751,6.027 0.415,11.331 6.184,20.494 11.887,29.553 6.008,9.545 12.75,18.628 19.148,27.93 0.449,0.653 0.702,1.44 1.047,2.165 -0.963,0.201 -1.941,0.623 -2.885,0.557 -2.244,-0.157 -4.467,-0.719 -6.71,-0.8 -3.271,-0.118 -5.285,-1.513 -6.133,-4.735 -0.349,-1.329 -0.822,-2.905 -1.787,-3.725 -1.399,-1.19 -3.296,-1.796 -4.981,-2.651 -0.68,1.696 -1.815,3.356 -1.953,5.095 -0.355,4.504 -0.441,9.049 -0.311,13.568 0.108,3.753 1.853,5.077 4.728,3.261 8.46,-5.345 17.657,-2.867 26.462,-2.448 3.332,0.158 6.518,3.988 9.676,6.274 0.297,0.215 0.196,1.606 -0.187,2.037 -4.654,5.231 -11.352,6.52 -18.419,3.658 -11.092,-4.492 -18.711,0.226 -18.876,11.961 -0.059,4.132 -0.847,7.395 -3.786,10.685 -3.264,3.655 -1.139,7.753 3.705,8.452 1.113,0.161 2.261,0.094 3.394,0.1 8.654,0.044 10.34,-2.719 6.218,-10.175 -2.58,-4.665 -2.363,-8.576 0.625,-11.264 2.946,-2.651 9.263,-2.584 12.688,0.134 2.609,2.07 3.634,8.085 1.837,11.754 -0.608,1.241 -1.763,2.201 -2.525,3.382 -2.734,4.234 -1.861,5.849 3.4,6.127 2.541,0.134 5.129,0.235 7.632,-0.112 1.474,-0.204 3.623,-1.027 4.009,-2.096 0.416,-1.156 -0.437,-3.401 -1.483,-4.343 -4.643,-4.178 -4.025,-9.206 -2.032,-13.95 1.645,-3.914 8.391,-5.722 13.635,-4.572 5.791,1.269 10.773,5.628 11.025,10.358 0.084,1.582 -1.31,3.454 -2.456,4.84 -1.668,2.017 -3.407,3.74 -2.213,6.714 1.39,3.465 4.284,3.107 7.119,3.151 8.294,0.13 9.125,-0.676 9.283,-9.123 C 46.313,104.554 42.686,96.905 32.815,91.888 26.387,88.621 20.587,83.685 15.36,78.617 9.634,73.067 9.28,65.39 10.621,57.958 c 0.613,-3.404 3.712,-4.986 7.216,-4.432 6.324,0.999 11.022,5.036 10.893,11.006 -0.068,3.109 -0.026,6.226 0.105,9.334 0.082,1.963 -0.117,4.223 0.786,5.789 1.001,1.735 3.113,2.832 4.741,4.206 1.074,-1.739 3.027,-3.454 3.077,-5.223 0.286,-10.177 0.131,-20.367 0.107,-30.553 -0.01,-4.244 0.039,-8.492 -0.147,-12.729 -0.1,-2.278 -0.623,-5.173 -3.531,-4.69 -1.673,0.278 -3.029,2.664 -4.435,4.187 -0.337,0.364 -0.281,1.075 -0.444,1.614 -0.763,2.519 0.95,6.591 -2.774,7.207 -4.051,0.669 -8.376,0.189 -12.498,-0.389 -1.214,-0.17 -3.002,-2.337 -3.055,-3.648 -0.252,-6.267 -2.76,-12.959 3.04,-18.374 1.261,-1.177 2.439,-3.658 2.017,-5.041 -0.348,-1.143 -3.067,-2.03 -4.813,-2.193 -4.218,-0.393 -8.49,-0.474 -12.724,-0.3 -1.489,0.061 -3.645,0.885 -4.189,1.998 -0.513,1.049 0.225,3.731 1.226,4.324 5.509,3.263 6.075,8.208 5.992,13.874 -0.044,3.016 1.595,6.026 1.788,9.081 0.386,6.136 0.338,12.301 0.359,18.454 0.003,0.658 -0.72,1.319 -1.106,1.978 C 1.598,62.969 0.788,62.622 0.313,62.014 -10.199,48.56 -16.4,33.313 -18.275,16.374 c -0.689,-6.225 0.57,-7.573 6.86,-7.661 10.761,-0.151 21.526,-0.155 32.288,-0.03 6.698,0.078 8.349,1.413 10.554,7.622 0.471,1.326 0.34,3.194 1.226,3.974 1.557,1.37 3.806,3.031 5.537,2.808 1.558,-0.201 2.922,-2.685 4.135,-4.335 0.415,-0.563 0.134,-1.651 0.136,-2.499 C 42.488,-0.57 43.268,-0.104 27.19,0.022 18.127,0.093 9.063,0.035 0,0.035 Z"
             style="fill:#231f20;fill-opacity:1;fill-rule:nonzero;stroke:none"
             id="path83" />
        </g>
      </g>
    </g>
  </g>
</svg>
