<?xml version="1.0" encoding="UTF-8" standalone="no"?>
<!-- Created with Inkscape (http://www.inkscape.org/) -->

<svg
   width="44.385414mm"
   height="56.289051mm"
   viewBox="0 0 44.385414 56.289051"
   version="1.1"
   id="svg524"
   inkscape:version="1.1 (c68e22c387, 2021-05-23)"
   sodipodi:docname="magi.svg"
   xmlns:inkscape="http://www.inkscape.org/namespaces/inkscape"
   xmlns:sodipodi="http://sodipodi.sourceforge.net/DTD/sodipodi-0.dtd"
   xmlns="http://www.w3.org/2000/svg"
   xmlns:svg="http://www.w3.org/2000/svg">
  <sodipodi:namedview
     id="namedview526"
     pagecolor="#505050"
     bordercolor="#eeeeee"
     borderopacity="1"
     inkscape:pageshadow="0"
     inkscape:pageopacity="0"
     inkscape:pagecheckerboard="0"
     inkscape:document-units="mm"
     showgrid="false"
     inkscape:zoom="0.77771465"
     inkscape:cx="84.221122"
     inkscape:cy="106.08004"
     inkscape:window-width="1284"
     inkscape:window-height="1081"
     inkscape:window-x="1844"
     inkscape:window-y="268"
     inkscape:window-maximized="0"
     inkscape:current-layer="layer1" />
  <defs
     id="defs521">
    <clipPath
       clipPathUnits="userSpaceOnUse"
       id="clipPath105">
      <path
         d="M 0,841.89 H 595.276 V 0 H 0 Z"
         id="path103" />
    </clipPath>
  </defs>
  <g
     inkscape:label="Layer 1"
     inkscape:groupmode="layer"
     id="layer1"
     transform="translate(-82.760902,-120.35548)">
    <g
       id="g99"
       transform="matrix(0.35277777,0,0,-0.35277777,-1.698125,300.71917)">
      <g
         id="g101"
         clip-path="url(#clipPath105)">
        <g
           id="g107"
           transform="translate(287.9502,413.4031)">
          <path
             d="m 0,0 c -9.373,0 -18.428,0.456 -27.395,-0.225 -3.572,-0.272 -6.93,-3.105 -10.426,-4.68 -1.613,-0.727 -3.283,-1.503 -5.003,-1.778 -3.168,-0.506 -5.222,1.019 -5.422,4.251 -0.23,3.735 -0.482,7.528 -0.083,11.227 0.494,4.591 3.659,5.894 7.361,3.132 3.675,-2.741 7.635,-3.474 12.14,-3.557 C -20.937,8.225 -13.061,7.367 -5.171,6.975 -1.164,6.776 2.862,6.94 6.765,6.94 v 20.322 c -6.022,0 -11.532,-0.057 -17.041,0.016 -5.855,0.078 -11.748,-0.101 -17.552,0.515 -9.235,0.981 -14.348,6.539 -15.842,15.634 -0.69,4.195 -1.938,8.339 -3.334,12.369 -1.481,4.274 -0.788,6.876 3.634,8.037 2.991,0.786 6.365,0.713 9.454,0.257 1.206,-0.178 2.791,-2.358 2.995,-3.796 0.465,-3.268 -0.146,-6.687 0.314,-9.956 0.32,-2.273 1.133,-4.993 2.711,-6.469 3.597,-3.365 7.985,-5.497 13.234,-5.316 4.604,0.159 9.224,-0.097 13.826,0.095 4.717,0.198 6.248,2.051 5.725,6.697 -0.655,5.816 -3.452,10.199 -9.078,12.435 -2.488,0.989 -4.709,2.17 -4.198,5.344 0.531,3.301 3.321,3.559 5.81,3.55 4.167,-0.016 8.332,-0.453 12.5,-0.658 2.762,-0.137 5.565,0.064 8.28,-0.343 2.012,-0.302 5.015,-0.858 5.592,-2.168 C 24.568,61.75 24.221,57.94 22.971,57.13 16.594,52.997 16.689,46.794 16.646,40.551 16.569,29.579 16.624,18.606 16.624,7.037 23.975,6.697 31.709,6.202 39.451,6.031 c 4.674,-0.103 9.137,0.071 13.831,-1.567 4.592,-1.602 9.899,-1.167 14.89,-1.645 2.46,-0.235 5.208,-0.634 4.879,-3.837 -0.357,-3.48 -3.224,-3.099 -5.842,-2.846 -15.37,1.482 -30.745,2.914 -46.022,4.354 -0.239,-1.027 -0.44,-1.383 -0.339,-1.524 5.253,-7.278 10.464,-14.588 15.86,-21.759 1.126,-1.498 2.8,-2.788 4.501,-3.573 0.911,-0.421 2.731,0.097 3.537,0.841 0.482,0.446 0.117,2.349 -0.448,3.226 -0.622,0.966 -2.032,1.392 -2.875,2.266 -0.956,0.992 -1.664,2.22 -2.48,3.345 1.259,0.896 2.436,2.403 3.79,2.58 5.238,0.689 11.21,-4.951 10.951,-10.256 -0.106,-2.182 -0.573,-4.463 -1.419,-6.472 -3.529,-8.377 -12.132,-8.694 -18.189,-0.968 -5.862,7.477 -11.988,14.747 -18.047,22.167 0,-5.203 -0.119,-10.864 0.04,-16.517 0.113,-4.008 0.299,-8.059 0.997,-11.994 1.004,-5.658 2.163,-11.336 3.907,-16.799 1.283,-4.019 0.398,-6.712 -3.638,-6.743 -5.553,-0.043 -11.123,0.169 -16.655,0.63 -1.358,0.114 -3.443,1.445 -3.664,2.527 -0.239,1.164 1.043,3.581 2.141,3.921 8.418,2.615 8.368,9.169 8.295,16.086 -0.112,10.57 0.11,21.144 0.188,31.717 0.009,1.332 0.001,2.665 -0.774,4.166 -2.251,-4.381 -4.337,-8.857 -6.792,-13.121 -3.808,-6.615 -6.993,-13.875 -12.033,-19.43 -7.167,-7.901 -14.962,-11.249 -23.469,-1.926 -4.906,5.376 -2.843,15.111 3.959,18.169 0.888,0.4 1.868,1.026 2.743,0.938 1.829,-0.184 4.361,-0.194 5.253,-1.33 1.5,-1.908 -0.062,-3.506 -1.902,-5.071 -1.17,-0.995 -1.079,-3.461 -1.554,-5.267 1.626,0.077 3.596,-0.414 4.821,0.323 8.04,4.835 12.674,12.749 17.628,20.288 1.802,2.742 2.947,5.912 4.48,9.07"
             style="fill:#231f20;fill-opacity:1;fill-rule:nonzero;stroke:none"
             id="path109" />
        </g>
        <g
           id="g111"
           transform="translate(342.54,446.4084)">
          <path
             d="m 0,0 c 2.45,0.94 6.11,2.089 9.489,3.79 1.052,0.529 2.058,2.727 1.783,3.843 -0.271,1.103 -2.109,2.406 -3.397,2.575 -4.912,0.643 -7.905,3.654 -8.067,8.725 -0.133,4.157 3.459,7.705 8.353,8.252 6.376,0.712 12.32,-3.365 13.544,-9.852 1.383,-7.325 2.312,-14.732 -4.441,-20.412 -7.561,-6.359 -16.022,-7.239 -25.119,-4.138 -2.631,0.897 -5.204,1.981 -7.76,3.08 -7.893,3.394 -9.942,12.938 -3.725,17.852 1.06,0.838 2.951,0.633 4.458,0.91 0.093,-1.607 0.801,-3.524 0.17,-4.767 -2.375,-4.683 -1.527,-7.01 3.723,-8.139 C -7.869,1.049 -4.676,0.717 0,0"
             style="fill:#231f20;fill-opacity:1;fill-rule:nonzero;stroke:none"
             id="path113" />
        </g>
        <g
           id="g115"
           transform="translate(289.4025,511.2655)">
          <path
             d="m 0,0 c 4.292,-0.083 7.503,-2.973 7.487,-6.739 -0.021,-4.983 -4.546,-10.295 -8.614,-10.114 -3.779,0.169 -6.438,3.62 -6.378,8.281 C -7.437,-3.215 -4.546,0.087 0,0"
             style="fill:#231f20;fill-opacity:1;fill-rule:nonzero;stroke:none"
             id="path117" />
        </g>
      </g>
    </g>
  </g>
</svg>
