<?xml version="1.0" encoding="UTF-8" standalone="no"?>
<!-- Created with Inkscape (http://www.inkscape.org/) -->

<svg
   width="33.658627mm"
   height="44.781528mm"
   viewBox="0 0 33.658627 44.781528"
   version="1.1"
   id="svg1479"
   inkscape:version="1.1 (c68e22c387, 2021-05-23)"
   sodipodi:docname="mann.svg"
   xmlns:inkscape="http://www.inkscape.org/namespaces/inkscape"
   xmlns:sodipodi="http://sodipodi.sourceforge.net/DTD/sodipodi-0.dtd"
   xmlns="http://www.w3.org/2000/svg"
   xmlns:svg="http://www.w3.org/2000/svg">
  <sodipodi:namedview
     id="namedview1481"
     pagecolor="#ffffff"
     bordercolor="#666666"
     borderopacity="1.0"
     inkscape:pageshadow="2"
     inkscape:pageopacity="0.0"
     inkscape:pagecheckerboard="0"
     inkscape:document-units="mm"
     showgrid="false"
     inkscape:zoom="0.77771465"
     inkscape:cx="63.648023"
     inkscape:cy="84.221122"
     inkscape:window-width="1284"
     inkscape:window-height="1081"
     inkscape:window-x="1961"
     inkscape:window-y="144"
     inkscape:window-maximized="0"
     inkscape:current-layer="layer1" />
  <defs
     id="defs1476">
    <clipPath
       clipPathUnits="userSpaceOnUse"
       id="clipPath1183">
      <path
         d="M 0,841.89 H 595.276 V 0 H 0 Z"
         id="path1181" />
    </clipPath>
  </defs>
  <g
     inkscape:label="Layer 1"
     inkscape:groupmode="layer"
     id="layer1"
     transform="translate(-88.124294,-126.10923)">
    <g
       id="g1177"
       transform="matrix(0.35277777,0,0,-0.35277777,69.527656,319.00843)">
      <g
         id="g1179"
         clip-path="url(#clipPath1183)">
        <g
           id="g1185"
           transform="translate(100.8146,428.32)">
          <path
             d="m 0,0 c -0.902,-5.398 -4.769,-8.242 -10.952,-8.452 -5.062,-0.171 -6.725,2.856 -7.11,7.249 -0.335,3.817 -0.93,7.624 -1.058,11.447 -0.765,22.829 -0.94,45.692 -2.391,68.475 -0.503,7.888 -3.819,15.816 -11.388,20.378 -1.876,1.131 -4.451,1.62 -6.671,1.534 -3.601,-0.139 -7.609,0.062 -8.283,3.759 -0.653,3.584 0.007,8.1 1.781,11.249 1.943,3.446 5.946,1.974 8.971,0.255 5.162,-2.934 10.359,-5.833 15.309,-9.101 4.545,-3 8.587,-2.663 13.222,-0.056 6.843,3.849 13.936,7.28 21.067,10.574 3.312,1.53 7.732,2.105 9.316,-1.74 1.534,-3.723 1.979,-8.494 1.145,-12.43 -0.818,-3.856 -4.952,-4.281 -8.773,-3.718 -9.579,1.411 -13.132,-0.302 -16.874,-9.11 -1.822,-4.286 -3.412,-9.042 -3.515,-13.622 -0.348,-15.469 0.01,-30.955 0.126,-46.435 0.008,-1.016 0.248,-2.03 0.451,-3.598 6.763,2.288 13.303,3.593 18.358,-2.878 2.826,1.928 5.306,3.867 8.007,5.417 8.722,5.006 19.609,0.243 22.046,-9.537 1.397,-5.606 2.866,-11.195 4.171,-16.822 0.865,-3.735 0.331,-7.078 -3.617,-8.877 -4.064,-1.852 -11.76,-1.345 -12.75,1.299 -0.71,1.894 -0.492,5.256 0.764,6.571 4.755,4.979 3.427,10.566 1.888,15.845 -0.6,2.055 -3.659,4.189 -5.969,4.75 C 24.039,23.212 20.597,22.317 18.87,18.621 16.524,13.598 18.383,9.408 21.409,5.455 24.858,0.948 24.301,-1.958 19.382,-4.603 18.458,-5.1 17.433,-5.841 16.493,-5.788 13.694,-5.632 10.104,-6.043 8.379,-4.493 6.935,-3.197 7.48,0.553 7.542,3.207 7.573,4.523 8.615,5.785 8.996,7.13 10.521,12.509 8.259,17.892 3.849,19.566 -0.138,21.078 -5.16,18.71 -7.017,14.442 -9.219,9.38 -7.434,3.931 -2.688,1.301 -1.796,0.806 -0.85,0.408 0,0"
             style="fill:#231f20;fill-opacity:1;fill-rule:nonzero;stroke:none"
             id="path1187" />
        </g>
        <g
           id="g1189"
           transform="translate(110.0667,507.8059)">
          <path
             d="m 0,0 c 5.226,-0.205 9.629,-4.585 9.558,-9.149 -0.065,-4.169 -2.979,-7.329 -6.729,-7.298 -4.421,0.036 -9.14,4.983 -8.758,9.505 C -5.61,-3.167 -4.18,-0.076 0,0"
             style="fill:#231f20;fill-opacity:1;fill-rule:nonzero;stroke:none"
             id="path1191" />
        </g>
        <g
           id="g1193"
           transform="translate(69.535,503.6785)">
          <path
             d="m 0,0 c 0.007,-4.815 -3.233,-8.572 -7.338,-8.508 -3.946,0.061 -7.553,4.187 -7.499,8.577 0.05,4.045 3.257,7.034 7.547,7.034 C -2.849,7.104 -0.006,4.334 0,0"
             style="fill:#231f20;fill-opacity:1;fill-rule:nonzero;stroke:none"
             id="path1195" />
        </g>
      </g>
    </g>
  </g>
</svg>
