<?xml version="1.0" encoding="UTF-8" standalone="no"?>
<!-- Created with Inkscape (http://www.inkscape.org/) -->

<svg
   width="33.102737mm"
   height="45.135719mm"
   viewBox="0 0 33.102737 45.135719"
   version="1.1"
   id="svg434"
   inkscape:version="1.1 (c68e22c387, 2021-05-23)"
   sodipodi:docname="metall wyrm.svg"
   xmlns:inkscape="http://www.inkscape.org/namespaces/inkscape"
   xmlns:sodipodi="http://sodipodi.sourceforge.net/DTD/sodipodi-0.dtd"
   xmlns="http://www.w3.org/2000/svg"
   xmlns:svg="http://www.w3.org/2000/svg">
  <sodipodi:namedview
     id="namedview436"
     pagecolor="#505050"
     bordercolor="#eeeeee"
     borderopacity="1"
     inkscape:pageshadow="0"
     inkscape:pageopacity="0"
     inkscape:pagecheckerboard="0"
     inkscape:document-units="mm"
     showgrid="false"
     inkscape:zoom="0.77771465"
     inkscape:cx="62.362205"
     inkscape:cy="85.50694"
     inkscape:window-width="1284"
     inkscape:window-height="1081"
     inkscape:window-x="1714"
     inkscape:window-y="230"
     inkscape:window-maximized="0"
     inkscape:current-layer="layer1" />
  <defs
     id="defs431">
    <clipPath
       clipPathUnits="userSpaceOnUse"
       id="clipPath147">
      <path
         d="M 0,841.89 H 595.276 V 0 H 0 Z"
         id="path145" />
    </clipPath>
  </defs>
  <g
     inkscape:label="Layer 1"
     inkscape:groupmode="layer"
     id="layer1"
     transform="translate(-88.40224,-125.93214)">
    <g
       id="g141"
       transform="matrix(0.35277777,0,0,-0.35277777,-52.408806,406.79236)">
      <g
         id="g143"
         clip-path="url(#clipPath147)">
        <g
           id="g149"
           transform="translate(435.9762,781.4236)">
          <path
             d="m 0,0 c 4.829,6.673 10.881,10.75 18.341,13.179 16.17,5.266 29.526,-3.354 30.327,-20.481 0.271,-5.782 -1.153,-11.645 -1.914,-18.475 10.737,-8.912 12.486,-21.526 7.821,-35.592 -3.609,-10.882 -7.635,-21.626 -11.199,-32.523 -1.211,-3.701 -1.893,-7.651 -2.243,-11.54 -0.367,-4.077 -2.089,-5.973 -6.205,-6.017 -10.228,-0.109 -20.458,-0.279 -30.682,-0.592 -8.01,-0.245 -16.014,-0.688 -24.015,-1.14 -6.909,-0.389 -10.604,1.569 -12.583,8.118 -3.685,12.192 -5.141,24.271 2.242,36.005 4.643,7.38 16.765,11.899 24.748,8.38 8.401,-3.702 12.592,-13.012 9.274,-22.121 -0.862,-2.367 -3.662,-4.743 -6.096,-5.577 -1.792,-0.614 -5.788,0.715 -6.392,2.178 -0.957,2.316 -0.677,5.871 0.501,8.17 1.639,3.2 0.711,4.657 -1.859,6.043 -7.045,3.8 -14.754,-0.335 -15.346,-9.236 -0.362,-5.459 1.536,-11.108 2.756,-16.596 0.204,-0.915 2.141,-2.066 3.267,-2.055 9.516,0.09 19.133,-0.363 28.519,0.873 13.547,1.784 21.467,11.584 27.961,22.642 1.275,2.17 2.271,4.502 3.451,6.731 8.51,16.079 0.736,30.662 -17.408,32.654 -1.249,0.137 -2.73,0.049 -3.666,0.699 -1.438,0.999 -3.376,2.476 -3.488,3.88 -0.134,1.668 1.034,3.968 2.385,5.084 1.451,1.198 3.731,1.579 5.717,1.896 8.347,1.335 13.005,6.683 11.935,13.926 C 35.051,-4.063 28.128,0.261 19.764,-1.254 11.176,-2.809 6.026,-9.057 6.405,-17.718 c 0.186,-4.243 0.822,-8.466 1.031,-12.71 0.388,-7.86 -3.435,-13.726 -10.309,-16.54 -6.442,-2.636 -13.555,-3.602 -20.325,-5.476 -1.799,-0.498 -3.392,-1.704 -5.136,-2.454 -1.358,-0.586 -3.149,-1.713 -4.122,-1.258 -1.26,0.59 -2.516,2.444 -2.68,3.879 -0.391,3.428 -0.539,6.994 0.01,10.375 0.293,1.804 1.93,4.162 3.523,4.759 1.531,0.573 4.518,-0.172 5.599,-1.431 4.497,-5.238 9.501,-5.987 15.644,-3.427 6.597,2.749 8.991,6.154 8.703,13.387 -0.163,4.099 -0.664,8.228 -0.349,12.291 0.424,5.457 -2.696,8.626 -6.58,11.112 -6.125,3.921 -14.063,-0.408 -14.476,-7.776 -0.22,-3.914 0.029,-7.856 0.102,-11.784 0.059,-3.124 -1.697,-4.01 -4.503,-4.071 -8.385,-0.185 -10.525,2.708 -8.821,11.052 2.195,10.744 7.774,18.187 18.32,22.043 C -10.979,6.806 -5.376,4.983 0,0"
             style="fill:#231f20;fill-opacity:1;fill-rule:nonzero;stroke:none"
             id="path151" />
        </g>
        <g
           id="g153"
           transform="translate(467.5832,721.8167)">
          <path
             d="m 0,0 c 0.041,-4.498 -3.006,-8.219 -6.705,-8.188 -3.631,0.029 -6.687,3.483 -6.764,7.645 -0.078,4.156 2.501,6.759 6.682,6.742 C -2.762,6.184 -0.033,3.692 0,0"
             style="fill:#231f20;fill-opacity:1;fill-rule:nonzero;stroke:none"
             id="path155" />
        </g>
      </g>
    </g>
  </g>
</svg>
