<?xml version="1.0" encoding="UTF-8" standalone="no"?>
<!-- Created with Inkscape (http://www.inkscape.org/) -->

<svg
   width="32.019855mm"
   height="40.546326mm"
   viewBox="0 0 32.019855 40.546326"
   version="1.1"
   id="svg578"
   inkscape:version="1.1 (c68e22c387, 2021-05-23)"
   sodipodi:docname="or.svg"
   xmlns:inkscape="http://www.inkscape.org/namespaces/inkscape"
   xmlns:sodipodi="http://sodipodi.sourceforge.net/DTD/sodipodi-0.dtd"
   xmlns="http://www.w3.org/2000/svg"
   xmlns:svg="http://www.w3.org/2000/svg">
  <sodipodi:namedview
     id="namedview580"
     pagecolor="#505050"
     bordercolor="#eeeeee"
     borderopacity="1"
     inkscape:pageshadow="0"
     inkscape:pageopacity="0"
     inkscape:pagecheckerboard="0"
     inkscape:document-units="mm"
     showgrid="false"
     inkscape:zoom="0.77771465"
     inkscape:cx="61.076386"
     inkscape:cy="76.50621"
     inkscape:window-width="1284"
     inkscape:window-height="1081"
     inkscape:window-x="1761"
     inkscape:window-y="122"
     inkscape:window-maximized="0"
     inkscape:current-layer="layer1" />
  <defs
     id="defs575">
    <clipPath
       clipPathUnits="userSpaceOnUse"
       id="clipPath55">
      <path
         d="M 0,841.89 H 595.276 V 0 H 0 Z"
         id="path53" />
    </clipPath>
  </defs>
  <g
     inkscape:label="Layer 1"
     inkscape:groupmode="layer"
     id="layer1"
     transform="translate(-88.94368,-128.22684)">
    <g
       id="g49"
       transform="matrix(0.35277777,0,0,-0.35277777,8.204118,219.03353)">
      <g
         id="g51"
         clip-path="url(#clipPath55)">
        <g
           id="g57"
           transform="translate(284.9059,257.4048)">
          <path
             d="m 0,0 c 3.044,-0.21 6.086,-0.455 9.133,-0.618 2.616,-0.14 5.531,-0.599 5.967,-3.404 0.279,-1.786 -0.997,-4.264 -2.325,-5.769 -4.087,-4.633 -5.929,-15.002 -2.951,-20.394 0.549,-0.993 2.4,-2.012 3.466,-1.845 5.06,0.794 10.463,0.258 14.781,4.21 1.787,1.635 4.232,0.643 4.668,-1.794 0.643,-3.596 0.898,-7.321 0.781,-10.974 -0.083,-2.597 -2.687,-3.656 -5.093,-1.999 -5.058,3.485 -10.298,2.102 -15.433,0.827 -2.981,-0.74 -5.064,-2.987 -5.69,-6.263 -0.692,-3.619 -1.244,-7.283 -2.234,-10.822 -2.281,-8.151 -6.731,-14.133 -15.941,-15.032 -3.635,-0.355 -7.25,-0.902 -11.643,-1.46 0.888,-7.999 1.596,-15.876 2.709,-23.695 0.459,-3.223 2.91,-4.946 5.896,-6.531 9.234,-4.9 18.766,-2.942 28.303,-2.084 0.354,0.032 0.705,0.169 1.056,0.163 7.319,-0.144 11.492,3.186 12.332,10.689 0.126,1.126 1.987,3.001 2.815,2.885 1.272,-0.178 3.208,-1.674 3.35,-2.802 0.609,-4.811 0.862,-9.697 0.757,-14.545 -0.022,-1.005 -2.101,-2.78 -3.277,-2.819 -14.015,-0.468 -28.038,-0.863 -42.058,-0.808 -3.269,0.013 -6.532,1.788 -9.148,2.56 -3.269,-0.7 -6.14,-1.627 -9.069,-1.874 -5.443,-0.46 -10.917,-0.591 -16.381,-0.731 -4.031,-0.103 -5.444,1.235 -5.376,5.279 0.073,4.394 0.213,8.814 0.801,13.158 0.201,1.48 1.849,2.764 2.835,4.137 1.492,-1.171 3.494,-2.054 4.358,-3.582 1.319,-2.333 1.745,-5.154 2.746,-7.691 1.148,-2.912 3.675,-3.723 6.437,-3.187 2.684,0.52 4.262,2.218 4.242,5.292 -0.047,7.475 0.221,14.953 0.106,22.426 -0.058,3.793 -2.459,5.65 -6.144,4.323 -4.512,-1.625 -9.68,-0.673 -13.778,-4.183 -1.882,-1.613 -4.456,-0.305 -4.646,2.39 -0.231,3.256 -0.157,6.665 0.578,9.823 0.945,4.068 3.748,4.613 6.841,1.786 4.809,-4.397 7.895,-4.872 13.564,-1.736 1.113,0.615 2.324,1.914 2.573,3.092 1.606,7.6 -0.013,14.45 -5.636,20.016 -3.13,3.098 -9.643,3.01 -12.902,0.06 -2.494,-2.257 -5.794,-2.039 -6.575,1.096 -0.971,3.896 -0.962,8.162 -0.631,12.207 0.173,2.111 2.514,2.705 4.582,1.73 1.715,-0.809 3.305,-1.882 5.002,-2.735 1.371,-0.688 2.769,-1.425 4.242,-1.792 7.339,-1.825 9.993,0.245 11.021,7.674 0.855,6.184 -0.891,11.152 -5.189,15.587 -1.204,1.243 -2.359,3.811 -1.846,5.093 0.537,1.341 3.067,2.509 4.799,2.62 4.25,0.274 8.548,0.016 12.813,-0.251 4.402,-0.276 6.627,-3.305 4.382,-7.128 -7.081,-12.049 -5.611,-25.271 -6.052,-38.247 -0.2,-5.909 -0.034,-11.83 -0.034,-18.336 3.669,0.666 7.164,0.834 10.304,1.979 4.903,1.786 8.391,5.109 9.348,10.711 1.844,10.79 3.453,21.58 3.218,32.577 -0.12,5.635 -0.355,11.113 -3.86,15.992 -1.778,2.475 0.211,3.851 2.393,4.749 z"
             style="fill:#231f20;fill-opacity:1;fill-rule:nonzero;stroke:none"
             id="path59" />
        </g>
      </g>
    </g>
  </g>
</svg>
