<?xml version="1.0" encoding="UTF-8" standalone="no"?>
<!-- Created with Inkscape (http://www.inkscape.org/) -->

<svg
   width="37.514416mm"
   height="35.269413mm"
   viewBox="0 0 37.514416 35.269413"
   version="1.1"
   id="svg1736"
   inkscape:version="1.1 (c68e22c387, 2021-05-23)"
   sodipodi:docname="se.svg"
   xmlns:inkscape="http://www.inkscape.org/namespaces/inkscape"
   xmlns:sodipodi="http://sodipodi.sourceforge.net/DTD/sodipodi-0.dtd"
   xmlns="http://www.w3.org/2000/svg"
   xmlns:svg="http://www.w3.org/2000/svg">
  <sodipodi:namedview
     id="namedview1738"
     pagecolor="#505050"
     bordercolor="#eeeeee"
     borderopacity="1"
     inkscape:pageshadow="0"
     inkscape:pageopacity="0"
     inkscape:pagecheckerboard="0"
     inkscape:document-units="mm"
     showgrid="false"
     inkscape:zoom="0.77771465"
     inkscape:cx="-52.075655"
     inkscape:cy="-41.789106"
     inkscape:window-width="1284"
     inkscape:window-height="1081"
     inkscape:window-x="1834"
     inkscape:window-y="188"
     inkscape:window-maximized="0"
     inkscape:current-layer="layer1" />
  <defs
     id="defs1733">
    <clipPath
       clipPathUnits="userSpaceOnUse"
       id="clipPath1409">
      <path
         d="M 0,841.89 H 595.276 V 0 H 0 Z"
         id="path1407" />
    </clipPath>
  </defs>
  <g
     inkscape:label="Layer 1"
     inkscape:groupmode="layer"
     id="layer1"
     transform="translate(-118.68609,-159.61271)">
    <g
       id="g1403"
       transform="matrix(0.35277777,0,0,-0.35277777,102.79044,332.50383)">
      <g
         id="g1405"
         clip-path="url(#clipPath1409)">
        <g
           id="g1411"
           transform="translate(120.3121,477.6977)">
          <path
             d="m 0,0 c 3.583,3.455 8.291,5.818 14.153,5.618 6.702,-0.23 11.472,-3.108 13.361,-9.421 1.632,-5.454 2.947,-11.103 3.495,-16.753 0.909,-9.374 -6.347,-10.782 -12.762,-9.146 -3.627,0.926 -2.762,3.868 -1.323,6.462 3.3,5.949 2.543,13.72 -1.769,18.688 -3.381,3.896 -7.072,3.705 -10.049,-0.522 -3.535,-5.021 -3.544,-6.825 -0.133,-12.089 0.835,-1.288 1.687,-2.584 2.341,-3.966 1.39,-2.936 2.194,-6.508 -0.542,-8.501 -2.305,-1.68 -5.918,-2.452 -8.788,-2.141 -1.545,0.168 -3.535,3.31 -3.927,5.374 -0.64,3.364 -0.224,6.947 -0.099,10.432 0.337,9.398 -3.987,15.108 -13.211,17.296 -0.811,0.192 -1.685,0.24 -2.43,0.575 -11.16,5.018 -22.134,0.069 -24.478,-11.874 -1.32,-6.729 -1.339,-13.826 -1.055,-20.722 0.359,-8.726 1.604,-17.418 2.506,-26.121 0.391,-3.78 1.206,-5.897 6.39,-5.539 10.578,0.731 20.846,-2.188 30.736,-5.813 5.493,-2.013 7.597,-9.541 3.86,-14.038 -1.489,-1.792 -4.712,-2.951 -7.154,-2.965 -3.134,-0.018 -3.987,2.959 -4.196,5.815 -0.452,6.177 -1.385,7.377 -7.782,7.814 -5.52,0.378 -11.087,0.079 -17.241,0.079 0.641,-2.338 1.082,-4.052 1.582,-5.748 1.191,-4.038 0.29,-6.281 -2.818,-6.923 -3.386,-0.7 -6.98,1.726 -7.454,5.111 -0.308,2.192 0.301,5.308 -0.927,6.354 -1.26,1.075 -4.253,0.105 -6.489,0.087 -4.914,-0.039 -5.833,-1.241 -6.232,-6.164 -0.189,-2.336 -1.182,-4.894 -2.59,-6.773 -1.915,-2.555 -4.88,-2.618 -7.561,-0.912 -2.778,1.767 -3.155,4.475 -2.184,7.393 0.7,2.101 1.66,4.114 2.409,6.201 2.037,5.674 5.782,9.259 12.067,9.276 3.292,0.009 3.863,1.515 3.879,4.393 0.04,7.389 0.342,14.779 0.653,22.165 0.138,3.281 -0.869,5.527 -4.113,6.94 -5.258,2.291 -5.353,4.62 -1.673,8.775 1.978,2.232 3.637,5.283 4.13,8.185 2.171,12.801 15.504,24.948 28.799,25.333 6.401,0.186 13.126,0.829 18.718,-3.198 C -6.481,6.573 -3.615,3.346 0,0"
             style="fill:#231f20;fill-opacity:1;fill-rule:nonzero;stroke:none"
             id="path1413" />
        </g>
        <g
           id="g1415"
           transform="translate(103.7632,454.1996)">
          <path
             d="m 0,0 c -0.131,-4.7 -3.117,-7.569 -7.767,-7.46 -4.069,0.094 -6.046,3.154 -5.798,8.97 0.178,4.186 2.655,6.591 6.643,6.45 C -2.903,7.818 0.121,4.341 0,0"
             style="fill:#231f20;fill-opacity:1;fill-rule:nonzero;stroke:none"
             id="path1417" />
        </g>
      </g>
    </g>
  </g>
</svg>
