<?xml version="1.0" encoding="UTF-8" standalone="no"?>
<!-- Created with Inkscape (http://www.inkscape.org/) -->

<svg
   width="25.266029mm"
   height="46.63258mm"
   viewBox="0 0 25.266029 46.63258"
   version="1.1"
   id="svg320"
   inkscape:version="1.1 (c68e22c387, 2021-05-23)"
   sodipodi:docname="skold.svg"
   xmlns:inkscape="http://www.inkscape.org/namespaces/inkscape"
   xmlns:sodipodi="http://sodipodi.sourceforge.net/DTD/sodipodi-0.dtd"
   xmlns="http://www.w3.org/2000/svg"
   xmlns:svg="http://www.w3.org/2000/svg">
  <sodipodi:namedview
     id="namedview322"
     pagecolor="#505050"
     bordercolor="#eeeeee"
     borderopacity="1"
     inkscape:pageshadow="0"
     inkscape:pageopacity="0"
     inkscape:pagecheckerboard="0"
     inkscape:document-units="mm"
     showgrid="false"
     inkscape:zoom="0.77771465"
     inkscape:cx="-214.08881"
     inkscape:cy="424.96307"
     inkscape:window-width="3440"
     inkscape:window-height="1377"
     inkscape:window-x="-8"
     inkscape:window-y="-8"
     inkscape:window-maximized="1"
     inkscape:current-layer="layer1" />
  <defs
     id="defs317">
    <clipPath
       clipPathUnits="userSpaceOnUse"
       id="clipPath23">
      <path
         d="M 0,841.89 H 595.276 V 0 H 0 Z"
         id="path21" />
    </clipPath>
  </defs>
  <g
     inkscape:label="Layer 1"
     inkscape:groupmode="layer"
     id="layer1"
     transform="translate(-161.55255,-36.219791)">
    <g
       id="g17"
       transform="matrix(0.35277777,0,0,-0.35277777,75.966853,318.75981)">
      <g
         id="g19"
         clip-path="url(#clipPath23)">
        <g
           id="g25"
           transform="translate(279.6857,735.3143)">
          <path
             d="m 0,0 c 0,11.623 0.184,23.25 -0.062,34.868 -0.177,8.365 -2.02,10.033 -10.437,8.923 -5.255,-0.693 -10.429,-2.381 -15.481,-4.091 -3.195,-1.081 -4.762,-0.017 -4.972,2.847 -0.278,3.808 -0.418,7.729 0.18,11.473 0.833,5.212 3.635,6.277 8.038,2.43 4.16,-3.636 8.566,-3.734 13.344,-3.24 2.792,0.289 4.252,1.772 3.47,4.906 -0.599,2.398 -2.446,5.508 1.236,6.805 3.829,1.348 10.918,-2.836 11.235,-6.531 0.353,-4.12 -0.452,-8.372 0.168,-12.425 0.452,-2.952 1.714,-6.721 3.906,-8.15 1.591,-1.037 5.556,0.685 7.992,2.027 3.529,1.944 3.107,5.396 1.881,8.699 -1.138,3.064 -2.423,6.079 -3.437,9.183 -0.438,1.342 -0.77,2.964 -0.419,4.261 0.613,2.27 10.463,4.448 14.055,3.272 4.112,-1.346 4.359,-4.364 3.332,-7.905 C 32.454,51.925 30.687,46.542 29.385,41.05 28.132,35.768 24.849,33.105 19.833,31.592 9.412,28.45 7.088,24.695 7.054,13.385 7.017,1.218 6.64,-10.947 6.424,-23.113 6.219,-34.701 6.061,-46.289 5.809,-57.875 5.764,-59.948 5.65,-62.099 5.057,-64.06 c -0.752,-2.486 -2.881,-3.66 -4.483,-1.123 -2.972,4.709 -6.342,3.25 -9.999,1.482 -0.268,-0.129 -0.544,-0.246 -0.82,-0.358 -13.675,-5.598 -21.149,-2.094 -23.357,12.856 -1.593,10.786 -1.324,21.969 -0.772,32.918 0.784,15.532 0.139,30.913 -2.493,46.191 -0.584,3.389 -0.12,5.288 3.289,5.777 3.814,0.548 7.693,1.291 11.499,1.098 5.873,-0.299 7.385,-2.865 5.061,-8.235 -2.48,-5.731 -5.709,-11.152 -8,-16.949 -1.49,-3.773 -2.682,-7.986 -2.633,-11.984 0.168,-13.68 0.886,-27.356 1.567,-41.025 0.081,-1.609 0.829,-3.592 1.964,-4.673 6.058,-5.776 19.958,-2.571 22.608,5.368 1.198,3.588 1.473,7.595 1.546,11.423 C 0.234,-20.866 0.103,-10.432 0.103,0 0.069,0 0.034,0 0,0"
             style="fill:#231f20;fill-opacity:1;fill-rule:nonzero;stroke:none"
             id="path27" />
        </g>
        <g
           id="g29"
           transform="translate(266.4798,702.9295)">
          <path
             d="m 0,0 c 3.934,-0.091 6.779,-3.037 6.45,-6.679 -0.33,-3.657 -4.148,-6.808 -8.026,-6.626 -3.492,0.165 -5.733,2.664 -5.751,6.415 C -7.348,-2.656 -4.415,0.102 0,0"
             style="fill:#231f20;fill-opacity:1;fill-rule:nonzero;stroke:none"
             id="path31" />
        </g>
        <g
           id="g33"
           transform="translate(271.4402,720.1884)">
          <path
             d="m 0,0 c -0.104,-3.849 -2.953,-6.625 -6.765,-6.589 -2.722,0.025 -5.459,2.997 -5.478,5.947 -0.03,4.601 3.316,8.55 7.308,8.625 C -1.777,8.042 0.134,4.951 0,0"
             style="fill:#231f20;fill-opacity:1;fill-rule:nonzero;stroke:none"
             id="path35" />
        </g>
      </g>
    </g>
  </g>
</svg>
