<?xml version="1.0" encoding="UTF-8" standalone="no"?>
<!-- Created with Inkscape (http://www.inkscape.org/) -->

<svg
   width="37.89621mm"
   height="48.042145mm"
   viewBox="0 0 37.89621 48.042145"
   version="1.1"
   id="svg748"
   inkscape:version="1.1 (c68e22c387, 2021-05-23)"
   sodipodi:docname="stein.svg"
   xmlns:inkscape="http://www.inkscape.org/namespaces/inkscape"
   xmlns:sodipodi="http://sodipodi.sourceforge.net/DTD/sodipodi-0.dtd"
   xmlns="http://www.w3.org/2000/svg"
   xmlns:svg="http://www.w3.org/2000/svg">
  <sodipodi:namedview
     id="namedview750"
     pagecolor="#ffffff"
     bordercolor="#666666"
     borderopacity="1.0"
     inkscape:pageshadow="2"
     inkscape:pageopacity="0.0"
     inkscape:pagecheckerboard="0"
     inkscape:document-units="mm"
     showgrid="false"
     fit-margin-top="0"
     fit-margin-left="0"
     fit-margin-right="0"
     fit-margin-bottom="0"
     inkscape:zoom="0.77771465"
     inkscape:cx="-297.66702"
     inkscape:cy="90.650215"
     inkscape:window-width="1284"
     inkscape:window-height="1081"
     inkscape:window-x="1949"
     inkscape:window-y="122"
     inkscape:window-maximized="0"
     inkscape:current-layer="layer1" />
  <defs
     id="defs745">
    <clipPath
       clipPathUnits="userSpaceOnUse"
       id="clipPath51">
      <path
         d="M 0,841.89 H 595.276 V 0 H 0 Z"
         id="path49" />
    </clipPath>
  </defs>
  <g
     inkscape:label="Layer 1"
     inkscape:groupmode="layer"
     id="layer1"
     transform="translate(-86.005503,-124.47893)">
    <g
       id="g45"
       transform="matrix(0.35277777,0,0,-0.35277777,2.6548706,310.11156)">
      <g
         id="g47"
         clip-path="url(#clipPath51)">
        <g
           id="g53"
           transform="translate(260.573,412.2773)">
          <path
             d="m 0,0 c -8.786,-0.204 -15.985,2.032 -20.313,10.723 -4.899,9.839 -5.732,19.381 0.016,29.04 1.006,1.691 2.269,3.246 3.541,4.757 2.442,2.902 2.804,5.228 0.382,8.889 -7.532,11.387 -2.062,31.282 10.06,37.785 2.109,1.131 4.8,1.318 7.261,1.6 1.326,0.152 2.809,-0.827 4.095,-0.596 6.222,1.12 6.325,1.207 7.93,-4.1 0.812,-2.685 1.682,-5.459 1.765,-8.215 0.047,-1.588 -1.103,-4.181 -2.296,-4.58 -1.325,-0.441 -3.484,0.852 -4.955,1.862 -1.086,0.747 -1.65,2.252 -2.45,3.417 -2.196,3.201 -5.059,3.334 -8.143,1.567 -5.64,-3.23 -10.1,-14.661 -8.249,-20.88 2.53,-8.5 8.491,-10.48 16.215,-5.45 1.09,0.711 2.385,1.108 3.586,1.65 0.558,-1.447 1.586,-2.892 1.595,-4.343 0.047,-7.305 -1.177,-8.525 -8.545,-9.303 -9.809,-1.036 -14.724,-4.719 -16.173,-12.121 -1.886,-9.632 1.312,-17.639 9.323,-21.537 2.488,-1.211 5.801,-0.73 8.737,-1.024 0.279,3.533 0.744,7.069 0.675,10.595 -0.013,0.668 -2.074,1.567 -3.311,1.877 -1.898,0.474 -3.982,0.265 -5.837,0.834 -2.067,0.633 -2.563,2.559 -0.915,3.849 1.661,1.3 3.865,2.242 5.955,2.58 2.76,0.447 5.642,0.103 8.469,0.186 7.02,0.206 7.979,0.991 8.009,7.806 0.038,8.476 0.359,17.019 -0.573,25.408 -0.756,6.811 3.555,9.625 7.686,12.931 0.619,0.496 2.335,0.373 3.006,-0.151 0.724,-0.565 1.284,-2.041 1.085,-2.937 -0.418,-1.893 -0.987,-3.985 -2.177,-5.438 -8.875,-10.833 -5.745,-22.013 -0.028,-32.412 3.096,-5.63 2.786,-10.755 1.862,-16.24 -0.338,-2.008 -2.02,-3.989 -3.56,-5.504 -0.691,-0.681 -2.849,-0.673 -3.775,-0.086 -0.866,0.549 -1.008,2.269 -1.404,3.494 -0.065,0.199 0.274,0.497 0.313,0.766 0.254,1.749 0.477,3.503 0.71,5.255 -1.301,-0.003 -3.227,0.532 -3.783,-0.112 C 14.27,20.081 13.116,17.905 12.274,15.718 11.983,14.962 13.078,13.705 13.47,12.652 16.053,5.719 13.999,1.897 6.755,0.493 4.554,0.066 2.254,0.15 0,0"
             style="fill:#231f20;fill-opacity:1;fill-rule:nonzero;stroke:none"
             id="path55" />
        </g>
        <g
           id="g57"
           transform="translate(316.5625,485.6358)">
          <path
             d="m 0,0 c 0,-4.244 -0.213,-8.501 0.061,-12.728 0.267,-4.136 2.531,-5.964 6.657,-6.02 3.543,-0.049 6.094,1.271 6.599,5.096 1.263,9.587 2.527,19.098 -5.003,27.194 -2.526,2.716 -1.536,4.42 2.429,4.627 3.953,0.206 7.939,0.228 11.887,-0.032 3.696,-0.244 5.746,-3.037 3.673,-5.593 -6.502,-8.015 -4.552,-17.265 -4.399,-26.099 0.146,-8.522 -3.005,-14.706 -9.855,-19.399 -4.668,-3.197 -9.429,-6.305 -13.788,-9.892 -3.451,-2.84 -7.009,-5.932 -9.365,-9.643 -5.009,-7.893 0.859,-17.178 10.341,-17.043 5.084,0.072 10.687,3.971 12.589,8.76 1.353,3.406 0.576,7.107 -2.033,8.206 -3.518,1.481 -5.342,-0.979 -6.51,-3.645 -0.953,-2.176 -1.534,-4.502 -4.56,-3.727 -2.438,0.624 -3.795,4.337 -2.103,7.208 1.33,2.256 3.494,4.75 5.834,5.556 9.659,3.327 19.338,-3.178 20.438,-13.251 0.532,-4.858 -5.07,-12.068 -10.112,-13.072 -3.297,-0.656 -6.682,-1.076 -9.848,-2.138 -8.154,-2.732 -14.116,-0.956 -19.077,6.18 -7.256,10.441 -4.268,22.945 3.418,32.06 2.647,3.139 6.426,5.424 9.942,7.709 4.048,2.631 4.2,3.553 0.055,6.334 -0.935,0.628 -1.977,1.103 -2.995,1.597 -3.719,1.804 -5.38,4.814 -5.348,8.882 0.027,3.395 0.054,6.792 -0.042,10.185 -0.153,5.417 -0.875,10.541 -4.524,15.087 -3.114,3.879 -2.264,5.327 2.444,5.78 0.562,0.054 1.133,0.02 1.698,0.045 11.412,0.492 11.413,0.492 11.44,-10.585 C -0.051,5.093 -0.056,2.546 -0.056,0 Z"
             style="fill:#231f20;fill-opacity:1;fill-rule:nonzero;stroke:none"
             id="path59" />
        </g>
        <g
           id="g61"
           transform="translate(325.1565,526.2006)">
          <path
             d="m 0,0 c 4.448,-0.085 7.018,-2.995 6.748,-7.641 -0.224,-3.863 -3.198,-6.752 -7.107,-6.903 -3.881,-0.15 -7.873,3.427 -7.956,7.13 C -8.415,-2.986 -4.96,0.095 0,0"
             style="fill:#231f20;fill-opacity:1;fill-rule:nonzero;stroke:none"
             id="path63" />
        </g>
        <g
           id="g65"
           transform="translate(266.9798,397.4768)">
          <path
             d="m 0,0 c 0.026,-4.06 -2.996,-7.564 -6.429,-7.454 -3.048,0.098 -5.636,2.803 -5.815,6.079 -0.219,4.021 3.305,7.46 7.542,7.192 C -1.122,5.59 -0.046,3.168 0,0"
             style="fill:#231f20;fill-opacity:1;fill-rule:nonzero;stroke:none"
             id="path67" />
        </g>
      </g>
    </g>
  </g>
</svg>
