<?xml version="1.0" encoding="UTF-8" standalone="no"?>
<!-- Created with Inkscape (http://www.inkscape.org/) -->

<svg
   width="33.666069mm"
   height="47.029709mm"
   viewBox="0 0 33.666069 47.029709"
   version="1.1"
   id="svg966"
   inkscape:version="1.1 (c68e22c387, 2021-05-23)"
   sodipodi:docname="strom.svg"
   xmlns:inkscape="http://www.inkscape.org/namespaces/inkscape"
   xmlns:sodipodi="http://sodipodi.sourceforge.net/DTD/sodipodi-0.dtd"
   xmlns="http://www.w3.org/2000/svg"
   xmlns:svg="http://www.w3.org/2000/svg">
  <sodipodi:namedview
     id="namedview968"
     pagecolor="#505050"
     bordercolor="#eeeeee"
     borderopacity="1"
     inkscape:pageshadow="0"
     inkscape:pageopacity="0"
     inkscape:pagecheckerboard="0"
     inkscape:document-units="mm"
     showgrid="false"
     inkscape:zoom="0.77771465"
     inkscape:cx="63.648023"
     inkscape:cy="89.364396"
     inkscape:window-width="1284"
     inkscape:window-height="1081"
     inkscape:window-x="1654"
     inkscape:window-y="252"
     inkscape:window-maximized="0"
     inkscape:current-layer="layer1" />
  <defs
     id="defs963" />
  <g
     inkscape:label="Layer 1"
     inkscape:groupmode="layer"
     id="layer1"
     transform="translate(-88.120574,-124.98515)">
    <g
       id="g987"
       transform="matrix(0.35277777,0,0,-0.35277777,4.3794343,408.44047)">
      <g
         id="g849"
         transform="translate(261.754,683.5898)">
        <path
           d="m 0,0 c -2.775,8.191 -2.235,16.556 -2.076,25.059 0.236,12.611 -0.949,25.246 -1.42,37.875 -0.368,9.858 -0.965,19.733 -0.704,29.58 0.173,6.52 -2.039,11.496 -6.236,16.185 -1.457,1.627 -2.999,4.753 -2.341,6.257 0.713,1.63 3.895,2.875 6.092,3.034 4.707,0.339 9.479,-0.028 14.214,-0.294 5.457,-0.306 8.183,-3.841 5.451,-8.439 C 4.858,95.584 6.107,80.566 5.963,65.821 5.791,48.315 6.417,30.799 6.765,13.289 6.919,5.533 8.927,3.022 15.23,2.271 c 6.985,-0.831 14.053,2.986 14.941,9.082 0.996,6.829 0.955,13.825 1.127,20.753 0.416,16.792 0.702,33.586 1.021,50.38 0.121,6.393 0.705,12.836 0.099,19.164 -0.408,4.256 -2.599,8.331 -3.856,12.527 -0.406,1.353 -0.903,3.076 -0.386,4.179 0.405,0.864 2.299,1.408 3.547,1.439 3.904,0.095 7.895,0.318 11.692,-0.378 2.296,-0.421 5.102,-2.013 6.144,-3.913 0.705,-1.286 -0.677,-4.66 -2.142,-5.991 -4.118,-3.742 -5.339,-8.328 -5.373,-13.491 C 41.838,65.042 41.656,34.061 41.487,3.08 41.482,2.285 41.706,1.489 41.81,0.779 46.179,0.545 50.328,0.297 54.48,0.107 c 4.884,-0.223 8.802,3.285 9.061,8.245 0.17,3.267 0.02,7.377 4.36,7.113 4.494,-0.272 2.868,-4.532 2.859,-7.362 -0.016,-5.562 -0.078,-11.129 -0.322,-16.684 -0.216,-4.944 -2.132,-5.899 -6.558,-3.731 -1.052,0.515 -2.402,0.618 -3.609,0.595 -8.768,-0.167 -17.535,-0.629 -26.301,-0.592 -15.851,0.068 -31.701,0.45 -47.553,0.602 -1.731,0.017 -3.594,-0.323 -5.178,-1.001 -3.273,-1.401 -5.242,0.03 -5.379,2.952 -0.349,7.492 -0.259,15.011 -0.076,22.512 0.024,0.97 1.843,2.815 2.475,2.674 1.757,-0.393 3.762,-1.266 4.855,-2.607 1.256,-1.541 1.621,-3.796 2.407,-5.727 C -12.499,2.232 -5.694,-1.162 0,0"
           style="fill:#231f20;fill-opacity:1;fill-rule:nonzero;stroke:none"
           id="path851" />
      </g>
      <g
         id="g853"
         transform="translate(279.441,697.5993)">
        <path
           d="m 0,0 c -4.272,-0.817 -6.433,0.52 -6.871,4.144 -0.489,4.049 2.196,7.332 6.279,7.854 C 2.738,12.424 6.783,9.154 7.057,5.814 7.342,2.334 5.037,0.59 0,0"
           style="fill:#231f20;fill-opacity:1;fill-rule:nonzero;stroke:none"
           id="path855" />
      </g>
      <g
         id="g857"
         transform="translate(284.8833,728.0386)">
        <path
           d="m 0,0 c 0.037,-3.065 -2.674,-6.519 -5.189,-6.611 -2.485,-0.09 -5.031,2.723 -5.072,5.604 -0.044,3.103 2.414,5.636 5.451,5.618 C -1.959,4.595 -0.034,2.749 0,0"
           style="fill:#231f20;fill-opacity:1;fill-rule:nonzero;stroke:none"
           id="path859" />
      </g>
    </g>
  </g>
</svg>
