<?xml version="1.0" encoding="UTF-8" standalone="no"?>
<!-- Created with Inkscape (http://www.inkscape.org/) -->

<svg
   width="154.35901"
   height="195.09326"
   viewBox="0 0 40.84082 51.618427"
   version="1.1"
   id="svg260"
   inkscape:version="1.1 (c68e22c387, 2021-05-23)"
   sodipodi:docname="uvar.svg"
   xmlns:inkscape="http://www.inkscape.org/namespaces/inkscape"
   xmlns:sodipodi="http://sodipodi.sourceforge.net/DTD/sodipodi-0.dtd"
   xmlns="http://www.w3.org/2000/svg"
   xmlns:svg="http://www.w3.org/2000/svg">
  <sodipodi:namedview
     id="namedview262"
     pagecolor="#ffffff"
     bordercolor="#666666"
     borderopacity="1.0"
     inkscape:pageshadow="2"
     inkscape:pageopacity="0.0"
     inkscape:pagecheckerboard="0"
     inkscape:document-units="mm"
     showgrid="false"
     units="px"
     inkscape:zoom="3.1108586"
     inkscape:cx="29.413102"
     inkscape:cy="109.77677"
     inkscape:window-width="1284"
     inkscape:window-height="1081"
     inkscape:window-x="1749"
     inkscape:window-y="154"
     inkscape:window-maximized="0"
     inkscape:current-layer="layer1"
     fit-margin-top="0"
     fit-margin-left="0"
     fit-margin-right="0"
     fit-margin-bottom="0" />
  <defs
     id="defs257">
    <clipPath
       clipPathUnits="userSpaceOnUse"
       id="clipPath83">
      <path
         d="M 0,841.89 H 595.276 V 0 H 0 Z"
         id="path81" />
    </clipPath>
  </defs>
  <g
     inkscape:label="Layer 1"
     inkscape:groupmode="layer"
     id="layer1"
     transform="translate(-6.7960838,-0.53790401)">
    <g
       id="g77"
       transform="matrix(0.35277777,0,0,-0.35277777,-11.285006,286.67391)">
      <g
         id="g79"
         clip-path="url(#clipPath83)">
        <g
           id="g85"
           transform="translate(113.9885,770.242)">
          <path
             d="m 0,0 c 0,6.504 -0.078,13.009 0.024,19.511 0.086,5.478 -0.117,10.384 -5.435,14.179 -3.921,2.798 -2.783,6.089 2.061,6.724 4.456,0.585 9.05,0.499 13.555,0.234 3.863,-0.228 4.986,-2.66 2.875,-5.746 -0.924,-1.351 -2.424,-2.306 -3.657,-3.448 -3.069,-2.846 -3.78,-6.225 -1.94,-9.749 2.334,-4.468 6.468,-4.904 10.904,-4.899 3.884,0.004 7.472,0.129 8.543,4.934 0.241,1.078 0.747,2.162 1.372,3.079 1.818,2.668 5.198,2.478 5.639,-0.66 C 34.753,18.378 34.503,12.442 34.443,6.573 34.441,6.358 31.021,5.488 30.491,6.081 27.359,9.583 23.279,10.395 19.028,10.654 16.256,10.824 13.45,10.373 10.656,10.277 7.35,10.164 6.349,8.24 6.396,5.261 6.52,-2.656 6.272,-10.594 6.765,-18.486 c 0.352,-5.639 3.012,-9.926 8.777,-12.377 4.064,-1.728 7.75,-4.598 11.191,-7.456 3.259,-2.708 6.004,-2.588 9.028,-0.014 5.351,4.554 7.605,10.578 7.3,17.329 -0.216,4.788 -2.988,8.488 -7.514,10.499 -4.838,2.148 -8.976,0.184 -10.316,-4.952 -0.825,-3.159 -0.616,-6.867 -5.033,-7.599 -0.616,2.88 -1.617,5.741 -1.761,8.644 -0.238,4.788 -0.155,9.623 0.242,14.401 0.273,3.285 2.574,4.131 4.415,1.533 3.322,-4.686 8.045,-5.825 13.111,-6.776 2.496,-0.468 5.015,-1.043 7.377,-1.95 4.144,-1.593 7.604,-4.335 8.402,-8.843 1.543,-8.714 1.884,-17.406 -2.485,-25.654 -4.46,-8.423 -11.711,-11.456 -20.574,-7.87 -3.621,1.465 -6.899,3.799 -10.275,5.835 -2.659,1.604 -5.212,3.382 -7.856,5.012 -0.388,0.24 -1.02,0.085 -1.54,0.112 0.055,-0.72 -0.167,-1.676 0.212,-2.12 1.466,-1.716 3.233,-3.177 4.688,-4.901 3.43,-4.063 2.539,-7.218 -2.517,-7.476 -8.885,-0.454 -18.237,-2.243 -24.9,6.643 -1.243,1.657 -4.65,3.066 -6.531,2.574 -3.428,-0.895 -3.959,-4.569 -3.596,-7.752 0.987,-8.662 1.978,-17.338 3.472,-25.921 0.727,-4.18 2.567,-7.945 7.48,-9.424 1.749,-0.527 2.933,-2.928 4.374,-4.474 -2.074,-1.093 -4.084,-2.946 -6.234,-3.127 -5.037,-0.423 -10.143,-0.076 -15.219,0.02 -3.099,0.058 -6.206,0.118 -9.289,0.401 -1.269,0.116 -3.368,0.603 -3.538,1.299 -0.351,1.442 -0.158,3.529 0.719,4.629 1.138,1.427 3.037,2.61 4.825,3.085 4.375,1.162 5.822,4.289 6.026,8.19 0.664,12.697 1.17,25.402 1.721,38.105 0.037,0.844 0.013,1.706 -0.111,2.54 -0.82,5.537 -4.501,6.94 -8.943,3.43 -6.089,-4.813 -6.143,-4.82 -7.196,2.781 -0.347,2.504 -0.659,5.09 -0.416,7.583 0.525,5.394 2.01,6.127 6.888,3.908 6.081,-2.766 8.268,-1.834 9.15,4.726 0.598,4.45 0.33,9.025 0.332,13.543 0.004,8.767 0.157,17.544 -0.202,26.298 -0.238,5.807 -3.448,7.587 -8.469,4.831 -2.376,-1.303 -4.607,-3.376 -6.128,-5.624 -3.611,-5.339 -1.068,-10.643 5.321,-11.456 2.572,-0.328 5.959,-0.084 5.386,-3.555 -0.39,-2.364 -2.595,-4.984 -4.721,-6.361 -2.462,-1.595 -5.908,-1.303 -7.188,1.967 -1.545,3.949 -4.218,6.308 -7.586,8.652 -1.519,1.056 -2.097,4.498 -1.912,6.761 0.465,5.708 0.377,10.524 -6.015,13.335 -2.92,1.284 -2.26,4.567 0.843,5.613 1.565,0.528 3.328,0.635 5.004,0.645 8.776,0.051 17.556,0.121 26.33,-0.033 7.151,-0.125 8.295,-1.194 8.174,-8.606 -0.203,-12.419 -0.777,-24.832 -1.2,-37.248 -0.077,-2.26 -0.268,-4.52 -0.258,-6.78 0.029,-6.961 0.062,-6.938 7.073,-8.499 1.371,-0.305 2.873,-0.599 3.973,-1.378 1.271,-0.899 2.908,-2.272 3.007,-3.545 0.093,-1.213 -1.436,-2.722 -2.547,-3.796 -0.76,-0.734 -2.016,-0.972 -3.07,-1.383 -2.91,-1.134 -3.86,-3.24 -2.787,-6.088 1.146,-3.044 3.674,-4.818 6.654,-3.633 2.413,0.96 5.145,2.938 6.159,5.178 1.697,3.75 2.735,8.033 2.98,12.155 0.451,7.609 0.128,15.264 0.128,22.9 z"
             style="fill:#231f20;fill-opacity:1;fill-rule:nonzero;stroke:none"
             id="path87" />
        </g>
        <g
           id="g89"
           transform="translate(141.403,706.7338)">
          <path
             d="m 0,0 c 0.161,-4.019 -2.174,-6.727 -5.763,-6.589 -3.487,0.134 -4.803,2.292 -4.957,5.482 -0.185,3.853 1.567,6.217 4.852,6.513 C -2.341,5.724 -0.148,3.703 0,0"
             style="fill:#231f20;fill-opacity:1;fill-rule:nonzero;stroke:none"
             id="path91" />
        </g>
        <g
           id="g93"
           transform="translate(93.0762,670.2828)">
          <path
             d="m 0,0 c -0.657,-4.172 -2.457,-6.131 -5.269,-5.334 -1.653,0.469 -3.751,2.677 -3.935,4.296 -0.336,2.97 2.242,4.593 4.976,4.06 C -2.514,2.688 -1.097,0.831 0,0"
             style="fill:#231f20;fill-opacity:1;fill-rule:nonzero;stroke:none"
             id="path95" />
        </g>
      </g>
    </g>
  </g>
</svg>
