<?xml version="1.0" encoding="UTF-8" standalone="no"?>
<!-- Created with Inkscape (http://www.inkscape.org/) -->

<svg
   width="32.438499mm"
   height="41.946564mm"
   viewBox="0 0 32.438499 41.946564"
   version="1.1"
   id="svg504"
   inkscape:version="1.1 (c68e22c387, 2021-05-23)"
   sodipodi:docname="vand.svg"
   xmlns:inkscape="http://www.inkscape.org/namespaces/inkscape"
   xmlns:sodipodi="http://sodipodi.sourceforge.net/DTD/sodipodi-0.dtd"
   xmlns="http://www.w3.org/2000/svg"
   xmlns:svg="http://www.w3.org/2000/svg">
  <sodipodi:namedview
     id="namedview506"
     pagecolor="#505050"
     bordercolor="#eeeeee"
     borderopacity="1"
     inkscape:pageshadow="0"
     inkscape:pageopacity="0"
     inkscape:pagecheckerboard="0"
     inkscape:document-units="mm"
     showgrid="false"
     inkscape:zoom="0.77771465"
     inkscape:cx="748.98937"
     inkscape:cy="397.96087"
     inkscape:window-width="1284"
     inkscape:window-height="1081"
     inkscape:window-x="1908"
     inkscape:window-y="242"
     inkscape:window-maximized="0"
     inkscape:current-layer="layer1" />
  <defs
     id="defs501" />
  <g
     inkscape:label="Layer 1"
     inkscape:groupmode="layer"
     id="layer1"
     transform="translate(93.105844,-43.32569)">
    <g
       id="g560"
       transform="matrix(0.35277777,0,0,-0.35277777,-233.31469,215.89057)">
      <g
         id="g301"
         transform="translate(413.1295,479.5665)">
        <path
           d="m 0,0 c 2.516,-6.595 1.578,-9.374 -3.672,-11.866 -2.636,-1.251 -5.22,-1.599 -7.612,0.372 -2.481,2.045 -2.221,4.87 -1.465,7.478 C -9.953,5.627 -2.191,10.409 8.026,9.48 12.912,9.036 17.872,9.441 22.795,9.319 37.951,8.943 53.112,8.647 68.257,7.996 73.162,7.785 75.415,5.287 75.93,0.197 c 0.379,-3.741 0.594,-7.689 -0.243,-11.286 -0.44,-1.894 -3.075,-3.638 -5.111,-4.711 -2.178,-1.149 -4.395,-0.138 -5.797,1.974 -1.423,2.144 -1.202,4.307 0.586,6.087 1.721,1.714 2.905,3.445 1.648,5.881 C 65.7,0.684 63.551,1.446 60.8,0.94 60.003,0.794 59.151,0.972 58.334,0.897 c -5.965,-0.55 -6.956,-1.68 -6.688,-7.553 0.274,-5.996 -1.778,-8.724 -7.677,-9.818 -2.301,-0.426 -4.682,-0.609 -7.023,-0.585 -2.469,0.025 -3.533,1.297 -2.973,3.941 0.868,4.1 2.858,6.858 7.338,7.298 0.774,0.076 1.514,0.498 2.482,0.835 -0.898,3.781 -3.469,5.77 -6.783,6.531 -3.426,0.787 -6.915,1.177 -9.55,-2.368 -6.363,-8.563 -10.463,-18.038 -11.896,-28.579 -0.79,-5.813 2.868,-11.373 9.496,-14.232 13.071,-5.639 21.727,-15.142 26.54,-28.449 5.691,-15.736 -0.213,-28.1 -15.965,-33.786 -8.753,-3.16 -17.793,-2.956 -26.802,-3.433 -1.446,-0.076 -3.192,0.34 -4.365,1.152 -5.369,3.717 -10.923,7.28 -15.752,11.625 -4.444,3.999 -5.292,9.745 -3.579,15.327 2.714,8.844 7.688,16.025 16.83,19.531 1.188,0.455 2.354,1.096 3.364,1.867 4.222,3.223 8.807,3.386 13.283,1.058 5.638,-2.932 10.515,-7.021 12.295,-13.349 3.288,-11.688 -7.526,-18.282 -15.539,-18.98 -2.784,-0.243 -5.881,0.427 -8.489,1.508 -3.384,1.401 -4.337,5.576 -2.481,8.315 2.023,2.986 6.068,3.294 9.184,1.466 1.649,-0.968 4.706,-1.534 5.992,-0.648 1.682,1.16 2.998,3.897 3.107,6.025 0.166,3.246 -2.158,5.695 -5.136,6.967 -4.936,2.11 -10.031,3.233 -14.443,-1.072 -3.661,-3.573 -7.336,-7.203 -10.458,-11.229 -2.252,-2.903 -1.998,-6.37 0.494,-9.423 0.732,-0.897 1.232,-1.984 1.83,-2.988 2.835,-4.764 6.594,-7.949 12.589,-7.262 7.795,0.893 15.681,1.334 23.356,2.84 8.359,1.64 11.274,5.794 11.594,14.375 0.469,12.609 -4.508,22.538 -15.064,29.534 -4.2,2.783 -8.55,5.371 -12.985,7.766 -4.774,2.577 -7.414,6.445 -7.716,11.736 -0.532,9.328 -0.079,18.503 4.824,26.918 2.155,3.698 1.331,5.708 -2.657,7.309 C 5.846,2.298 2.957,1.747 0,0"
           style="fill:#231f20;fill-opacity:1;fill-rule:nonzero;stroke:none"
           id="path303" />
      </g>
      <g
         id="g305"
         transform="translate(462.8199,445.0808)">
        <path
           d="m 0,0 c 0.089,-3.414 -2.981,-6.775 -6.263,-6.855 -3.011,-0.074 -5.545,2.402 -5.654,5.525 -0.119,3.416 2.061,5.531 5.761,5.591 C -2.307,4.323 -0.072,2.776 0,0"
           style="fill:#231f20;fill-opacity:1;fill-rule:nonzero;stroke:none"
           id="path307" />
      </g>
      <g
         id="g309"
         transform="translate(481.634,437.6299)">
        <path
           d="m 0,0 c -2.718,0.03 -4.636,2.154 -4.617,5.116 0.02,3.099 3.312,6.529 6.263,6.525 C 3.74,11.638 6.366,8.673 6.36,6.318 6.351,3.097 3.199,-0.035 0,0"
           style="fill:#231f20;fill-opacity:1;fill-rule:nonzero;stroke:none"
           id="path311" />
      </g>
      <g
         id="g313"
         transform="translate(410.9162,443.7592)">
        <path
           d="m 0,0 c -0.101,-3.342 -2.015,-5.581 -4.673,-5.467 -2.505,0.108 -4.658,2.634 -4.544,5.332 0.123,2.915 2.21,5.216 4.704,5.188 C -1.558,5.019 0.096,3.168 0,0"
           style="fill:#231f20;fill-opacity:1;fill-rule:nonzero;stroke:none"
           id="path315" />
      </g>
    </g>
  </g>
</svg>
